<svg width="24" height="24" fill="none" xmlns="http://www.w3.org/2000/svg"><path d="M20.485 3.515A11.922 11.922 0 0 0 12 0a11.922 11.922 0 0 0-8.485 3.515A11.921 11.921 0 0 0 0 12c0 3.205 1.248 6.219 3.515 8.485A11.921 11.921 0 0 0 12 24c3.205 0 6.219-1.248 8.485-3.515A11.921 11.921 0 0 0 24 12c0-3.205-1.248-6.219-3.515-8.485zM12 22.06C6.452 22.061 1.939 17.548 1.939 12S6.452 1.939 12 1.939 22.061 6.452 22.061 12 17.548 22.061 12 22.061z" fill="#935641"/><path d="M15.995 14.624l-3.025-3.025V5.382a.97.97 0 0 0-1.94 0V12a.97.97 0 0 0 .285.686l3.309 3.309a.966.966 0 0 0 1.37 0 .97.97 0 0 0 0-1.371z" fill="#935641"/></svg>