<svg width="36" height="48" fill="none" xmlns="http://www.w3.org/2000/svg"><g filter="url(#filter0_d)"><path d="M17.852 0C11.122 0 5.646 5.686 5.646 12.676c0 8.674 10.923 21.407 11.388 21.945.437.506 1.2.505 1.636 0 .465-.538 11.388-13.271 11.388-21.945C30.058 5.686 24.582 0 17.852 0zm0 19.053c-3.386 0-6.141-2.86-6.141-6.377s2.755-6.378 6.141-6.378 6.141 2.861 6.141 6.378c0 3.516-2.755 6.377-6.141 6.377z" fill="#FA9231"/></g><defs><filter id="filter0_d" x="-4" y="0" width="43.704" height="48" filterUnits="userSpaceOnUse" color-interpolation-filters="sRGB"><feFlood flood-opacity="0" result="BackgroundImageFix"/><feColorMatrix in="SourceAlpha" values="0 0 0 0 0 0 0 0 0 0 0 0 0 0 0 0 0 0 127 0"/><feOffset dy="8"/><feGaussianBlur stdDeviation="2.5"/><feColorMatrix values="0 0 0 0 0.525 0 0 0 0 0.292973 0 0 0 0 0.0765625 0 0 0 0.35 0"/><feBlend in2="BackgroundImageFix" result="effect1_dropShadow"/><feBlend in="SourceGraphic" in2="effect1_dropShadow" result="shape"/></filter></defs></svg>