<svg width="26" height="25" fill="none" xmlns="http://www.w3.org/2000/svg"><path d="M25.76 18.217a.544.544 0 0 0-.748 0l-5.247 5.046V.51a.52.52 0 0 0-.53-.509.52.52 0 0 0-.529.509v22.754l-5.248-5.046a.544.544 0 0 0-.748 0 .495.495 0 0 0 0 .72l6.151 5.914c.104.1.24.149.374.149.136 0 .271-.05.375-.15l6.15-5.914a.495.495 0 0 0 0-.719zM.613 1.018h15.885a.52.52 0 0 0 .53-.51.52.52 0 0 0-.53-.508H.613a.52.52 0 0 0-.529.509c0 .28.237.509.53.509z" fill="#E16C5B"/><path d="M.613 6.972h15.885a.52.52 0 0 0 .53-.509.52.52 0 0 0-.53-.508H.613a.52.52 0 0 0-.529.508c0 .281.237.51.53.51zM.613 12.927h15.885a.52.52 0 0 0 .53-.509.52.52 0 0 0-.53-.509H.613a.52.52 0 0 0-.529.51c0 .28.237.508.53.508zM10.973 17.864H.613a.52.52 0 0 0-.529.509c0 .28.237.509.53.509h10.36a.52.52 0 0 0 .528-.509.52.52 0 0 0-.529-.509zM10.973 23.819H.613a.52.52 0 0 0-.529.509c0 .28.237.508.53.508h10.36a.52.52 0 0 0 .528-.508.52.52 0 0 0-.529-.51z" fill="#E16C5B"/></svg>