<svg width="24" height="24" fill="none" xmlns="http://www.w3.org/2000/svg"><path d="M23.988 18.936c.051.39-.067.729-.355 1.016l-3.38 3.354a1.9 1.9 0 0 1-.596.432 2.467 2.467 0 0 1-.724.229c-.017 0-.068.004-.153.012a3.467 3.467 0 0 1-.33.013c-.322 0-.843-.055-1.563-.165-.72-.11-1.6-.381-2.642-.813-1.042-.432-2.223-1.08-3.544-1.944-1.321-.863-2.727-2.05-4.218-3.557-1.186-1.168-2.168-2.286-2.947-3.353-.78-1.068-1.406-2.054-1.88-2.96-.475-.906-.83-1.728-1.067-2.465C.35 7.998.19 7.363.106 6.83.02 6.296-.013 5.877.004 5.572c.017-.305.026-.474.026-.508a2.47 2.47 0 0 1 .228-.724c.119-.246.263-.445.432-.597L4.07.363c.236-.237.508-.355.812-.355.22 0 .415.063.585.19.17.127.313.284.432.47l2.718 5.158c.153.271.195.567.127.89a1.584 1.584 0 0 1-.432.812L7.067 8.773a.424.424 0 0 0-.089.165.627.627 0 0 0-.038.191c.068.356.22.762.458 1.22.203.406.516.902.94 1.486.423.584 1.025 1.257 1.804 2.02.762.779 1.44 1.384 2.032 1.816.593.432 1.089.75 1.487.953.398.203.703.326.914.368l.318.064c.034 0 .089-.013.165-.038a.425.425 0 0 0 .165-.09l1.448-1.473c.305-.27.66-.406 1.067-.406.288 0 .517.05.686.152h.026l4.903 2.897c.356.22.568.5.635.838z" fill="#935641"/></svg>