<svg width="24" height="24" fill="none" xmlns="http://www.w3.org/2000/svg"><path d="M21.547 7h-3.29a.743.743 0 0 0-.655.392s-1.312 2.417-1.733 3.23C14.735 12.813 14 12.126 14 11.11V7.604A1.104 1.104 0 0 0 12.896 6.5h-2.474a1.982 1.982 0 0 0-1.751.813s1.256-.204 1.256 1.49c0 .419.022 1.626.042 2.64a.73.73 0 0 1-1.273.504 21.54 21.54 0 0 1-2.499-4.544.693.693 0 0 0-.63-.403h-2.99a.508.508 0 0 0-.48.685C3.006 10.175 6.917 18 11.38 18h1.879a.742.742 0 0 0 .742-.742v-1.134a.729.729 0 0 1 1.229-.532l2.248 2.113c.202.19.47.295.746.295h2.953c1.424 0 1.424-.988.648-1.753-.547-.538-2.519-2.617-2.519-2.617a1.019 1.019 0 0 1-.078-1.323c.637-.839 1.68-2.212 2.122-2.8.604-.804 1.698-2.507.198-2.507z" fill="#fff"/></svg>