<svg width="24" height="24" fill="none" xmlns="http://www.w3.org/2000/svg"><g clip-path="url(#clip0)" fill="#935641"><path d="M20.25 2.25h-3V1.5c0-.45-.3-.75-.75-.75s-.75.3-.75.75v.75h-7.5V1.5c0-.45-.3-.75-.75-.75s-.75.3-.75.75v.75h-3C1.65 2.25 0 3.9 0 6v13.5c0 2.1 1.65 3.75 3.75 3.75h16.5c2.1 0 3.75-1.65 3.75-3.75V6c0-2.1-1.65-3.75-3.75-3.75zM1.5 6c0-1.2 1.05-2.25 2.25-2.25h3v.75c0 .45.3.75.75.75s.75-.3.75-.75v-.75h7.5v.75c0 .45.3.75.75.75s.75-.3.75-.75v-.75h3c1.2 0 2.25 1.05 2.25 2.25v2.25h-21V6zm21 13.5c0 1.2-1.05 2.25-2.25 2.25H3.75c-1.2 0-2.25-1.05-2.25-2.25V9.75h21v9.75z"/><path d="M5.25 19.5c.45 0 .75-.15 1.05-.45.3-.3.45-.75.45-1.05 0-.3-.15-.75-.45-1.05-.6-.6-1.5-.6-2.1 0-.3.3-.45.6-.45 1.05 0 .3.15.75.45 1.05.3.3.6.45 1.05.45zM5.25 15c.45 0 .75-.15 1.05-.45.3-.3.45-.75.45-1.05 0-.3-.15-.75-.45-1.05-.6-.6-1.5-.6-2.1 0-.3.3-.45.6-.45 1.05 0 .45.15.75.45 1.05.3.3.6.45 1.05.45zM9.75 19.5c.45 0 .75-.15 1.05-.45.3-.3.45-.75.45-1.05 0-.3-.15-.75-.45-1.05-.6-.6-1.5-.6-2.1 0-.3.3-.45.75-.45 1.05 0 .3.15.75.45 1.05.3.3.6.45 1.05.45zM9.75 15c.45 0 .75-.15 1.05-.45.3-.3.45-.75.45-1.05 0-.3-.15-.75-.45-1.05-.6-.6-1.5-.6-2.1 0-.3.3-.45.75-.45 1.05 0 .3.15.75.45 1.05.3.3.6.45 1.05.45zM14.25 19.5c.45 0 .75-.15 1.05-.45.3-.3.45-.6.45-1.05 0-.45-.15-.75-.45-1.05-.6-.6-1.5-.6-2.1 0-.3.3-.45.75-.45 1.05 0 .3.15.75.45 1.05.3.3.6.45 1.05.45zM14.25 15c.45 0 .75-.15 1.05-.45.3-.3.45-.6.45-1.05 0-.3-.15-.75-.45-1.05-.6-.6-1.5-.6-2.1 0-.3.3-.45.75-.45 1.05 0 .3.15.75.45 1.05.3.3.6.45 1.05.45zM18.75 19.5c.45 0 .75-.15 1.05-.45.3-.3.45-.75.45-1.05 0-.3-.15-.75-.45-1.05-.6-.6-1.5-.6-2.1 0-.3.3-.45.6-.45 1.05 0 .3.15.75.45 1.05.3.3.6.45 1.05.45zM18.75 15c.45 0 .75-.15 1.05-.45.3-.3.45-.6.45-1.05 0-.3-.15-.75-.45-1.05-.6-.6-1.5-.6-2.1 0-.3.3-.45.75-.45 1.05 0 .3.15.75.45 1.05.3.3.6.45 1.05.45z"/></g><defs><clipPath id="clip0"><path fill="#fff" d="M0 0h24v24H0z"/></clipPath></defs></svg>