<?xml version="1.0" encoding="utf-8"?><svg width="36" height="289" viewBox="0 0 36 289" xmlns="http://www.w3.org/2000/svg" xmlns:xlink="http://www.w3.org/1999/xlink"><svg width="15" height="16" fill="none" viewBox="0 0 15 16" id="icon-al" xmlns="http://www.w3.org/2000/svg"><path d="M.96 7.293a1 1 0 0 0 0 1.414l6.363 6.364a1 1 0 0 0 1.415-1.414L3.08 8l5.657-5.657A1 1 0 1 0 7.323.93L.96 7.293zM14.666 7h-13v2h13V7z" fill="#333"/></svg><svg width="11" height="12" fill="none" viewBox="0 0 11 12" id="icon-al2" y="16" xmlns="http://www.w3.org/2000/svg"><path fill-rule="evenodd" clip-rule="evenodd" d="M7.809 1.116a.537.537 0 0 1-.035.668L3.828 6.006l3.946 4.222c.165.176.18.475.035.667a.356.356 0 0 1-.563.03l-4.25-4.548a.526.526 0 0 1-.134-.371.526.526 0 0 1 .134-.372l4.25-4.547a.356.356 0 0 1 .563.029z" fill="#000" fill-opacity=".45"/></svg><svg width="15" height="16" fill="none" viewBox="0 0 15 16" id="icon-ar" y="28" xmlns="http://www.w3.org/2000/svg"><path d="M14.374 8.707a1 1 0 0 0 0-1.414L8.01.929a1 1 0 1 0-1.415 1.414L12.252 8l-5.657 5.657A1 1 0 1 0 8.01 15.07l6.364-6.364zM.667 9h13V7h-13v2z" fill="#333"/></svg><svg width="11" height="12" fill="none" viewBox="0 0 11 12" id="icon-ar2" y="44" xmlns="http://www.w3.org/2000/svg"><path fill-rule="evenodd" clip-rule="evenodd" d="M3.48 1.116a.537.537 0 0 0 .035.668L7.46 6.006l-3.946 4.222a.537.537 0 0 0-.035.667.356.356 0 0 0 .563.03l4.25-4.548a.526.526 0 0 0 .134-.371.526.526 0 0 0-.134-.372l-4.25-4.547a.356.356 0 0 0-.563.029z" fill="#000" fill-opacity=".45"/></svg><svg width="24" height="24" fill="none" viewBox="0 0 24 24" id="icon-calendar" y="56" xmlns="http://www.w3.org/2000/svg"><g clip-path="url(#eclip0)" fill="#935641"><path d="M20.25 2.25h-3V1.5c0-.45-.3-.75-.75-.75s-.75.3-.75.75v.75h-7.5V1.5c0-.45-.3-.75-.75-.75s-.75.3-.75.75v.75h-3C1.65 2.25 0 3.9 0 6v13.5c0 2.1 1.65 3.75 3.75 3.75h16.5c2.1 0 3.75-1.65 3.75-3.75V6c0-2.1-1.65-3.75-3.75-3.75zM1.5 6c0-1.2 1.05-2.25 2.25-2.25h3v.75c0 .45.3.75.75.75s.75-.3.75-.75v-.75h7.5v.75c0 .45.3.75.75.75s.75-.3.75-.75v-.75h3c1.2 0 2.25 1.05 2.25 2.25v2.25h-21V6zm21 13.5c0 1.2-1.05 2.25-2.25 2.25H3.75c-1.2 0-2.25-1.05-2.25-2.25V9.75h21v9.75z"/><path d="M5.25 19.5c.45 0 .75-.15 1.05-.45.3-.3.45-.75.45-1.05 0-.3-.15-.75-.45-1.05-.6-.6-1.5-.6-2.1 0-.3.3-.45.6-.45 1.05 0 .3.15.75.45 1.05.3.3.6.45 1.05.45zm0-4.5c.45 0 .75-.15 1.05-.45.3-.3.45-.75.45-1.05 0-.3-.15-.75-.45-1.05-.6-.6-1.5-.6-2.1 0-.3.3-.45.6-.45 1.05 0 .45.15.75.45 1.05.3.3.6.45 1.05.45zm4.5 4.5c.45 0 .75-.15 1.05-.45.3-.3.45-.75.45-1.05 0-.3-.15-.75-.45-1.05-.6-.6-1.5-.6-2.1 0-.3.3-.45.75-.45 1.05 0 .3.15.75.45 1.05.3.3.6.45 1.05.45zm0-4.5c.45 0 .75-.15 1.05-.45.3-.3.45-.75.45-1.05 0-.3-.15-.75-.45-1.05-.6-.6-1.5-.6-2.1 0-.3.3-.45.75-.45 1.05 0 .3.15.75.45 1.05.3.3.6.45 1.05.45zm4.5 4.5c.45 0 .75-.15 1.05-.45.3-.3.45-.6.45-1.05 0-.45-.15-.75-.45-1.05-.6-.6-1.5-.6-2.1 0-.3.3-.45.75-.45 1.05 0 .3.15.75.45 1.05.3.3.6.45 1.05.45zm0-4.5c.45 0 .75-.15 1.05-.45.3-.3.45-.6.45-1.05 0-.3-.15-.75-.45-1.05-.6-.6-1.5-.6-2.1 0-.3.3-.45.75-.45 1.05 0 .3.15.75.45 1.05.3.3.6.45 1.05.45zm4.5 4.5c.45 0 .75-.15 1.05-.45.3-.3.45-.75.45-1.05 0-.3-.15-.75-.45-1.05-.6-.6-1.5-.6-2.1 0-.3.3-.45.6-.45 1.05 0 .3.15.75.45 1.05.3.3.6.45 1.05.45zm0-4.5c.45 0 .75-.15 1.05-.45.3-.3.45-.6.45-1.05 0-.3-.15-.75-.45-1.05-.6-.6-1.5-.6-2.1 0-.3.3-.45.75-.45 1.05 0 .3.15.75.45 1.05.3.3.6.45 1.05.45z"/></g><defs><clipPath id="eclip0"><path fill="#fff" d="M0 0h24v24H0z"/></clipPath></defs></svg><svg width="24" height="24" fill="none" viewBox="0 0 24 24" id="icon-clock" y="80" xmlns="http://www.w3.org/2000/svg"><path d="M20.485 3.515A11.922 11.922 0 0 0 12 0a11.922 11.922 0 0 0-8.485 3.515A11.921 11.921 0 0 0 0 12c0 3.205 1.248 6.219 3.515 8.485A11.921 11.921 0 0 0 12 24c3.205 0 6.219-1.248 8.485-3.515A11.921 11.921 0 0 0 24 12c0-3.205-1.248-6.219-3.515-8.485zM12 22.06C6.452 22.061 1.939 17.548 1.939 12S6.452 1.939 12 1.939 22.061 6.452 22.061 12 17.548 22.061 12 22.061z" fill="#935641"/><path d="M15.995 14.624l-3.025-3.025V5.382a.97.97 0 0 0-1.94 0V12a.97.97 0 0 0 .285.686l3.309 3.309a.966.966 0 0 0 1.37 0 .97.97 0 0 0 0-1.371z" fill="#935641"/></svg><svg width="26" height="25" fill="none" viewBox="0 0 26 25" id="icon-doc" y="104" xmlns="http://www.w3.org/2000/svg"><path d="M25.76 18.217a.544.544 0 0 0-.748 0l-5.247 5.046V.51a.52.52 0 0 0-.53-.509.52.52 0 0 0-.529.509v22.754l-5.248-5.046a.544.544 0 0 0-.748 0 .495.495 0 0 0 0 .72l6.151 5.914c.104.1.24.149.374.149.136 0 .271-.05.375-.15l6.15-5.914a.495.495 0 0 0 0-.719zM.613 1.018h15.885a.52.52 0 0 0 .53-.51.52.52 0 0 0-.53-.508H.613a.52.52 0 0 0-.529.509c0 .28.237.509.53.509z" fill="#E16C5B"/><path d="M.613 6.972h15.885a.52.52 0 0 0 .53-.509.52.52 0 0 0-.53-.508H.613a.52.52 0 0 0-.529.508c0 .281.237.51.53.51zm0 5.955h15.885a.52.52 0 0 0 .53-.509.52.52 0 0 0-.53-.509H.613a.52.52 0 0 0-.529.51c0 .28.237.508.53.508zm10.36 4.937H.613a.52.52 0 0 0-.529.509c0 .28.237.509.53.509h10.36a.52.52 0 0 0 .528-.509.52.52 0 0 0-.529-.509zm0 5.955H.613a.52.52 0 0 0-.529.509c0 .28.237.508.53.508h10.36a.52.52 0 0 0 .528-.508.52.52 0 0 0-.529-.51z" fill="#E16C5B"/></svg><svg width="20" height="20" fill="none" viewBox="0 0 20 20" id="icon-instagram" y="129" xmlns="http://www.w3.org/2000/svg"><path d="M14.48 0H5.52A5.525 5.525 0 0 0 0 5.52v8.96A5.525 5.525 0 0 0 5.52 20h8.96A5.526 5.526 0 0 0 20 14.48V5.52A5.525 5.525 0 0 0 14.48 0zm3.745 14.48a3.75 3.75 0 0 1-3.744 3.745H5.519a3.749 3.749 0 0 1-3.745-3.744V5.519A3.749 3.749 0 0 1 5.52 1.774h8.961a3.75 3.75 0 0 1 3.745 3.745v8.962z" fill="#fff"/><path d="M10 4.847A5.16 5.16 0 0 0 4.847 10 5.16 5.16 0 0 0 10 15.153 5.16 5.16 0 0 0 15.154 10 5.16 5.16 0 0 0 10 4.847zm0 8.532A3.383 3.383 0 0 1 6.621 10a3.383 3.383 0 0 1 3.38-3.379A3.383 3.383 0 0 1 13.378 10 3.383 3.383 0 0 1 10 13.379zm5.37-10.037a1.306 1.306 0 0 0-1.302 1.302c0 .342.14.677.383.92.24.241.577.38.919.38.343 0 .678-.139.92-.38a1.307 1.307 0 0 0 0-1.84 1.307 1.307 0 0 0-.92-.382z" fill="#fff"/></svg><svg width="20" height="20" fill="none" viewBox="0 0 20 20" id="icon-marker" y="149" xmlns="http://www.w3.org/2000/svg"><path d="M9.63 0C5.784 0 2.655 3.25 2.655 7.243c0 4.957 6.242 12.233 6.507 12.54.25.29.686.289.935 0 .266-.307 6.508-7.583 6.508-12.54C16.605 3.25 13.475 0 9.63 0zm0 10.887c-1.935 0-3.51-1.634-3.51-3.644 0-2.01 1.575-3.644 3.51-3.644 1.935 0 3.509 1.635 3.509 3.644 0 2.01-1.574 3.644-3.51 3.644z" fill="#333"/></svg><svg width="36" height="48" fill="none" viewBox="0 0 36 48" id="icon-marker2" y="169" xmlns="http://www.w3.org/2000/svg"><g filter="url(#jfilter0_d)"><path d="M17.852 0C11.122 0 5.646 5.686 5.646 12.676c0 8.674 10.923 21.407 11.388 21.945.437.506 1.2.505 1.636 0 .465-.538 11.388-13.271 11.388-21.945C30.058 5.686 24.582 0 17.852 0zm0 19.053c-3.386 0-6.141-2.86-6.141-6.377s2.755-6.378 6.141-6.378 6.141 2.861 6.141 6.378c0 3.516-2.755 6.377-6.141 6.377z" fill="#FA9231"/></g><defs><filter id="jfilter0_d" x="-4" y="0" width="43.704" height="48" filterUnits="userSpaceOnUse" color-interpolation-filters="sRGB"><feFlood flood-opacity="0" result="BackgroundImageFix"/><feColorMatrix in="SourceAlpha" values="0 0 0 0 0 0 0 0 0 0 0 0 0 0 0 0 0 0 127 0"/><feOffset dy="8"/><feGaussianBlur stdDeviation="2.5"/><feColorMatrix values="0 0 0 0 0.525 0 0 0 0 0.292973 0 0 0 0 0.0765625 0 0 0 0.35 0"/><feBlend in2="BackgroundImageFix" result="effect1_dropShadow"/><feBlend in="SourceGraphic" in2="effect1_dropShadow" result="shape"/></filter></defs></svg><svg width="24" height="24" fill="none" viewBox="0 0 24 24" id="icon-phone" y="217" xmlns="http://www.w3.org/2000/svg"><path d="M23.988 18.936c.051.39-.067.729-.355 1.016l-3.38 3.354a1.9 1.9 0 0 1-.596.432 2.467 2.467 0 0 1-.724.229c-.017 0-.068.004-.153.012a3.467 3.467 0 0 1-.33.013c-.322 0-.843-.055-1.563-.165-.72-.11-1.6-.381-2.642-.813-1.042-.432-2.223-1.08-3.544-1.944-1.321-.863-2.727-2.05-4.218-3.557-1.186-1.168-2.168-2.286-2.947-3.353-.78-1.068-1.406-2.054-1.88-2.96-.475-.906-.83-1.728-1.067-2.465A12.775 12.775 0 0 1 .106 6.83C.02 6.296-.013 5.877.004 5.572c.017-.305.026-.474.026-.508a2.47 2.47 0 0 1 .228-.724c.119-.246.263-.445.432-.597L4.07.363c.236-.237.508-.355.812-.355.22 0 .415.063.585.19.17.127.313.284.432.47l2.718 5.158c.153.271.195.567.127.89a1.584 1.584 0 0 1-.432.812L7.067 8.773a.424.424 0 0 0-.089.165.627.627 0 0 0-.038.191c.068.356.22.762.458 1.22.203.406.516.902.94 1.486.423.584 1.025 1.257 1.804 2.02.762.779 1.44 1.384 2.032 1.816.593.432 1.089.75 1.487.953.398.203.703.326.914.368l.318.064a.616.616 0 0 0 .165-.038.425.425 0 0 0 .165-.09l1.448-1.473a1.56 1.56 0 0 1 1.067-.406c.288 0 .517.05.686.152h.026l4.903 2.897c.356.22.568.5.635.838z" fill="#935641"/></svg><svg width="24" height="24" fill="none" viewBox="0 0 24 24" id="icon-user" y="241" xmlns="http://www.w3.org/2000/svg"><path d="M20.485 15.515a11.954 11.954 0 0 0-4.56-2.86 6.935 6.935 0 0 0 3.012-5.717A6.945 6.945 0 0 0 12 0a6.945 6.945 0 0 0-6.938 6.938 6.935 6.935 0 0 0 3.013 5.717 11.954 11.954 0 0 0-4.56 2.86A11.922 11.922 0 0 0 0 24h1.875c0-5.583 4.542-10.125 10.125-10.125S22.125 18.417 22.125 24H24c0-3.205-1.248-6.219-3.515-8.485zM12 12a5.068 5.068 0 0 1-5.063-5.063A5.068 5.068 0 0 1 12 1.875a5.068 5.068 0 0 1 5.063 5.063A5.068 5.068 0 0 1 12 12z" fill="#935641"/></svg><svg width="24" height="24" fill="none" viewBox="0 0 24 24" id="icon-vk" y="265" xmlns="http://www.w3.org/2000/svg"><path d="M21.547 7h-3.29a.743.743 0 0 0-.655.392s-1.312 2.417-1.733 3.23C14.735 12.813 14 12.126 14 11.11V7.604A1.104 1.104 0 0 0 12.896 6.5h-2.474a1.982 1.982 0 0 0-1.751.813s1.256-.204 1.256 1.49c0 .419.022 1.626.042 2.64a.73.73 0 0 1-1.273.504 21.54 21.54 0 0 1-2.499-4.544.693.693 0 0 0-.63-.403h-2.99a.508.508 0 0 0-.48.685C3.006 10.175 6.917 18 11.38 18h1.879a.742.742 0 0 0 .742-.742v-1.134a.729.729 0 0 1 1.229-.532l2.248 2.113c.202.19.47.295.746.295h2.953c1.424 0 1.424-.988.648-1.753-.547-.538-2.519-2.617-2.519-2.617a1.019 1.019 0 0 1-.078-1.323c.637-.839 1.68-2.212 2.122-2.8.604-.804 1.698-2.507.198-2.507z" fill="#fff"/></svg></svg>