<svg xmlns="http://www.w3.org/2000/svg" fill="none" viewBox="-2.82 -2.32 8.82 12.64">
<mask id="path-1-inside-1_532_3186" fill="white">
<path fill-rule="evenodd" clip-rule="evenodd" d="M0 7.5L4 4L0 0.5"/>
</mask>
<path fill-rule="evenodd" clip-rule="evenodd" d="M0 7.5L4 4L0 0.5" fill="#2D2D2D"/>
<path d="M-1.31701 5.99485L-2.82216 7.31186L-0.188144 10.3222L1.31701 9.00515L-1.31701 5.99485ZM4 4L5.31701 5.50515C5.75104 5.12538 6 4.57673 6 4C6 3.42327 5.75104 2.87462 5.31701 2.49485L4 4ZM1.31701 -1.00515L-0.188144 -2.32216L-2.82216 0.688144L-1.31701 2.00515L1.31701 -1.00515ZM1.31701 9.00515L5.31701 5.50515L2.68299 2.49485L-1.31701 5.99485L1.31701 9.00515ZM5.31701 2.49485L1.31701 -1.00515L-1.31701 2.00515L2.68299 5.50515L5.31701 2.49485Z" fill="#2D2D2D" mask="url(#path-1-inside-1_532_3186)"/>
</svg>