<svg width="187" height="42" viewBox="0 0 187 42" fill="none" xmlns="http://www.w3.org/2000/svg"><path d="M11.853 31.282c0-.962.194-1.856.584-2.68a7.518 7.518 0 0 1 1.478-2.13h.343c-.046.297-.08.606-.103.927-.023.275-.04.573-.051.894a33.18 33.18 0 0 0 0 2.08c.01.331.028.623.051.875.024.275.057.514.103.721H0v-.343l2.062-.516V8.777L0 8.261v-.343h13.915c-.046.206-.08.446-.103.721-.022.252-.04.544-.051.876a33.283 33.283 0 0 0 0 2.096c.012.309.029.602.051.876.023.32.057.63.104.927h-.344a7.494 7.494 0 0 1-1.477-2.13 6.176 6.176 0 0 1-.585-2.68H4.984v10.308h3.264l1.546-3.092h.344v6.871h-.344L8.247 19.6H4.983v11.682h6.87zm7.216-.172V17.023l-2.062-.515v-.344h4.81V31.11l2.062.516v.343h-6.872v-.343l2.062-.516zm2.92-18.896c0 .434-.178.83-.533 1.185-.355.355-.75.533-1.185.533-.435 0-.831-.178-1.185-.533-.355-.355-.533-.75-.533-1.185 0-.435.178-.831.533-1.186.355-.355.75-.533 1.185-.533.434 0 .83.178 1.185.533.355.355.533.75.533 1.186zm6.013 18.896V17.023l-2.062-.515v-.344h4.811v2.061c.229-.457.538-.88.928-1.271.321-.32.733-.62 1.237-.894.504-.275 1.1-.412 1.787-.412a4.71 4.71 0 0 1 3.435 1.426 4.7 4.7 0 0 1 1.014 1.614c.24.63.36 1.335.36 2.114V31.11l2.062.516v.343h-6.7v-.343l1.89-.516V20.803c0-1.627-.258-2.777-.774-3.453-.515-.675-1.116-1.014-1.803-1.014-.573 0-1.065.162-1.477.48a5.835 5.835 0 0 0-1.066 1.067 7.74 7.74 0 0 0-.893 1.546v11.682l1.89.516v.343h-6.7v-.343l2.06-.517zM50.61 12.384c0 .94.275 1.748.824 2.423.55.676 1.236 1.3 2.062 1.872a34.478 34.478 0 0 0 2.696 1.684c.974.55 1.873 1.173 2.698 1.872a9.489 9.489 0 0 1 2.062 2.456c.55.94.824 2.085.824 3.436 0 .894-.161 1.73-.48 2.508a6.02 6.02 0 0 1-1.358 2.028 6.239 6.239 0 0 1-2.08 1.34c-.802.32-1.671.48-2.61.48-.871 0-1.615-.085-2.234-.257-.618-.173-1.134-.372-1.547-.602a4.888 4.888 0 0 1-1.202-.858c-.184.343-.43.663-.738.961-.31.298-.635.492-.98.584h-.516c.023-.322.046-.665.069-1.031.023-.298.045-.63.069-.997a17.28 17.28 0 0 0 0-2.215 129.78 129.78 0 0 0-.07-1.048c-.022-.367-.045-.722-.068-1.064h.516c.526 1.901 1.288 3.35 2.285 4.346.997.997 2.353 1.495 4.072 1.495 1.373 0 2.49-.441 3.349-1.323.859-.882 1.289-2.1 1.289-3.659 0-.94-.276-1.746-.825-2.422-.55-.676-1.237-1.3-2.061-1.873a34.874 34.874 0 0 0-2.698-1.683 17.292 17.292 0 0 1-2.697-1.873 9.457 9.457 0 0 1-2.061-2.456c-.55-.939-.824-2.084-.824-3.436 0-.779.149-1.512.446-2.2A5.604 5.604 0 0 1 50.06 9.07a5.898 5.898 0 0 1 4.157-1.667c.688 0 1.294.093 1.82.276.528.184.974.377 1.341.583.412.253.791.538 1.134.859.183-.343.43-.663.74-.962.309-.297.635-.492.979-.583h.516c-.047.344-.08.686-.103 1.03a31.562 31.562 0 0 0-.069 2.06c0 .392.005.776.017 1.154.01.377.029.726.052 1.047.022.367.056.722.103 1.065h-.517c-.526-1.902-1.26-3.35-2.198-4.346-.94-.997-2.096-1.495-3.47-1.495-1.122 0-2.062.39-2.818 1.168-.756.78-1.133 1.82-1.133 3.127zm22.486 3.78v.687h-3.952v10.961c0 1.397.252 2.411.756 3.041.504.63 1.053.945 1.65.945.778 0 1.436-.292 1.975-.876.538-.584.853-1.437.945-2.56h.516c-.093 1.306-.487 2.319-1.186 3.04-.699.723-1.564 1.084-2.594 1.084-1.467 0-2.635-.43-3.505-1.29-.87-.858-1.306-1.975-1.306-3.35V16.851h-2.92v-.687h2.92v-3.95l2.75-1.89v5.841h3.95zm6.681 7.903c0 1.466.108 2.691.326 3.677.218.984.504 1.78.86 2.387.355.607.755 1.037 1.202 1.289.446.252.91.378 1.391.378a4.18 4.18 0 0 0 1.683-.344 4.84 4.84 0 0 0 1.41-.928c.411-.389.75-.859 1.012-1.409.264-.55.441-1.144.533-1.786h.516a6.403 6.403 0 0 1-.602 2.044 5.68 5.68 0 0 1-1.185 1.632 5.447 5.447 0 0 1-1.667 1.082 5.24 5.24 0 0 1-2.044.395 5.598 5.598 0 0 1-2.475-.566c-.778-.378-1.472-.928-2.078-1.65-.608-.722-1.088-1.603-1.444-2.645-.355-1.043-.532-2.228-.532-3.556 0-1.375.172-2.588.516-3.642.344-1.053.796-1.93 1.358-2.63a5.775 5.775 0 0 1 1.958-1.597 5.251 5.251 0 0 1 2.354-.55c.824 0 1.608.183 2.353.55a5.775 5.775 0 0 1 1.959 1.597c.56.7 1.013 1.576 1.356 2.63.343 1.054.516 2.267.516 3.642h-9.276zm3.092-7.903c-.344 0-.687.11-1.032.327-.343.218-.665.602-.962 1.15-.297.55-.544 1.29-.739 2.217-.195.928-.315 2.102-.36 3.522h6.184c-.046-1.42-.166-2.594-.36-3.522-.195-.928-.442-1.667-.739-2.216-.298-.55-.619-.934-.962-1.15-.343-.219-.686-.328-1.03-.328zm9.705 14.946V17.023l-2.062-.515v-.344h4.811V31.11l2.062.516v.343h-6.873v-.343l2.062-.516zm2.92-18.896c0 .434-.178.83-.532 1.185-.356.355-.751.533-1.186.533-.435 0-.83-.178-1.185-.533-.355-.355-.532-.75-.532-1.185 0-.435.177-.831.532-1.186.355-.355.75-.533 1.185-.533.435 0 .83.178 1.186.533.355.355.532.75.532 1.186zm6.013 18.896V17.023l-2.061-.515v-.344h4.81v2.061c.229-.457.538-.88.928-1.271.32-.32.733-.62 1.236-.894.504-.275 1.1-.412 1.787-.412a4.71 4.71 0 0 1 3.435 1.426 4.67 4.67 0 0 1 1.014 1.614c.24.63.361 1.335.361 2.114V31.11l2.061.516v.343h-6.699v-.343l1.889-.516V20.803c0-1.627-.257-2.777-.773-3.453-.515-.675-1.117-1.014-1.804-1.014-.572 0-1.065.162-1.477.48a5.86 5.86 0 0 0-1.066 1.067 7.8 7.8 0 0 0-.893 1.546v11.682l1.89.516v.343h-6.7v-.343l2.062-.517zm47.272-12.198c0-.595.108-1.156.327-1.683.218-.527.452-1.048.704-1.564.251-.514.486-1.041.705-1.58a4.478 4.478 0 0 0 .326-1.7c0-1.535-.286-2.664-.858-3.384-.573-.722-1.203-1.083-1.89-1.083-.778 0-1.46.355-2.044 1.065-.584.709-.876 1.843-.876 3.4V31.11l1.718.516v.343h-6.528v-.343l2.062-.516V17.195l-2.062-.516v-.516h2.062v-3.78c0-.686.131-1.334.395-1.94a4.473 4.473 0 0 1 1.15-1.582 5.76 5.76 0 0 1 1.787-1.064c.687-.263 1.466-.395 2.336-.395.778 0 1.495.132 2.147.395a5.308 5.308 0 0 1 1.684 1.064c.469.447.836.975 1.099 1.581a4.81 4.81 0 0 1 .395 1.941c0 .596-.126 1.157-.378 1.684a14.424 14.424 0 0 1-.824 1.494c-.298.47-.573.924-.824 1.358-.252.436-.378.87-.378 1.306 0 .641.172 1.192.515 1.649.344.458.778.894 1.305 1.306a30.8 30.8 0 0 0 1.701 1.236 12.25 12.25 0 0 1 1.701 1.392c.526.516.962 1.11 1.306 1.787.343.675.515 1.482.515 2.422 0 .642-.115 1.236-.343 1.786-.23.55-.544 1.02-.945 1.409a4.41 4.41 0 0 1-1.46.927 5.039 5.039 0 0 1-1.89.344c-.573 0-1.065-.085-1.477-.257a4.708 4.708 0 0 1-1.065-.602 4.533 4.533 0 0 1-.893-.859 2.21 2.21 0 0 1-.568.962c-.286.297-.556.492-.807.584h-.516l.069-.928c.022-.275.046-.567.068-.876.023-.31.035-.624.035-.945 0-.344-.012-.686-.035-1.03-.022-.344-.047-.653-.068-.928l-.069-.962h.516c.435 1.65 1.071 2.92 1.907 3.814.836.894 1.689 1.34 2.56 1.34.778 0 1.402-.258 1.872-.773.469-.516.705-1.289.705-2.32 0-.686-.172-1.282-.516-1.786a7.28 7.28 0 0 0-1.272-1.409 17.417 17.417 0 0 0-1.649-1.253c-.595-.4-1.146-.853-1.649-1.358a7.377 7.377 0 0 1-1.272-1.7c-.344-.629-.516-1.39-.516-2.285zm17.695-2.748c-.687 0-1.26.235-1.718.705-.458.47-.687 1.093-.687 1.873 0 .183.006.343.017.48.011.137.028.264.051.378.024.115.057.229.103.344l-2.748.687a.721.721 0 0 1-.103-.275 3.21 3.21 0 0 1-.052-.378 6.685 6.685 0 0 1-.017-.55c0-.48.114-.945.343-1.391a3.71 3.71 0 0 1 1.014-1.203 5.4 5.4 0 0 1 1.615-.859c.629-.218 1.356-.327 2.182-.327 1.65 0 2.949.47 3.9 1.409.95.94 1.425 2.187 1.425 3.745V31.11l2.062.516v.343h-4.81v-2.061a5.37 5.37 0 0 1-.962 1.306c-.321.32-.727.613-1.22.876s-1.083.394-1.769.394c-1.65 0-2.893-.39-3.729-1.168-.836-.778-1.253-1.82-1.253-3.127 0-.642.177-1.283.532-1.924.355-.642.894-1.214 1.615-1.72.722-.503 1.644-.91 2.766-1.219 1.122-.309 2.462-.463 4.02-.463V20.8c0-1.719-.258-2.92-.773-3.608-.516-.685-1.117-1.029-1.804-1.029zm2.577 7.387c-1.993 0-3.465.442-4.415 1.323-.951.882-1.426 2.101-1.426 3.658 0 1.031.252 1.833.756 2.406.504.573 1.053.859 1.65.859.549 0 1.036-.16 1.46-.481a5.644 5.644 0 0 0 1.083-1.065c.343-.434.642-.95.894-1.545V23.55h-.002zm11.681 7.559l2.061.516v.343h-6.872v-.343l2.062-.516V17.023l-2.062-.515v-.344h4.811v4.123c.297-.848.652-1.615 1.065-2.301a7.456 7.456 0 0 1 1.34-1.616 2.707 2.707 0 0 1 1.89-.722c.252 0 .491.017.721.052.229.035.435.075.618.12.206.07.39.126.55.172l-1.031 2.578a9.672 9.672 0 0 1-.446-.241 3.053 3.053 0 0 0-.498-.19 2.132 2.132 0 0 0-.602-.085c-.596 0-1.123.16-1.581.48a5.141 5.141 0 0 0-1.134 1.065 6.055 6.055 0 0 0-.893 1.547v9.964h.001z" fill="#333"/><path d="M135.798 0h-.66l-6.935 37.351-6.476-26.856H99.446v.82h20.508l7.219 30.193h.893L135.678.65 187 .649V0h-51.202z" fill="#333"/></svg>