<svg width="669" height="152" viewBox="0 0 669 152" fill="none" xmlns="http://www.w3.org/2000/svg"><path d="M298.188 10.219h-1.489V18h-2.156v-7.781h-1.582L289.188 18h-2.672l4.722-9.059-4.347-8.004h2.531l3.539 7.407h1.582V.938h2.156v7.406h1.5l3.539-7.406h2.52l-4.336 7.992 4.711 9.07h-2.66l-3.785-7.781zm15.199-4.899h2.062V18h-2.062V8.754L308.793 18h-2.074V5.32h2.074v9.258l4.594-9.258zm13.16 3.457a2.97 2.97 0 0 1-.434 1.57 3.096 3.096 0 0 1-1.23 1.137c1.242.508 1.863 1.493 1.863 2.954 0 1.18-.387 2.105-1.16 2.777-.766.672-1.777 1.008-3.035 1.008-1.242 0-2.266-.356-3.071-1.067-.796-.718-1.195-1.687-1.195-2.906h2.051c0 .625.211 1.156.633 1.594.422.437.949.656 1.582.656.64 0 1.152-.191 1.535-.574.391-.383.586-.88.586-1.489 0-.71-.16-1.218-.481-1.523-.312-.312-.808-.469-1.488-.469h-1.898v-1.828h2.039c1.094-.039 1.64-.648 1.64-1.828 0-.594-.172-1.062-.515-1.406-.336-.352-.805-.528-1.407-.528-.585 0-1.078.196-1.476.586a1.93 1.93 0 0 0-.586 1.418h-2.051c0-1.101.391-2.004 1.172-2.707.781-.703 1.762-1.054 2.941-1.054 1.258 0 2.235.32 2.93.96.703.641 1.055 1.547 1.055 2.72zM338.383 18h-2.063v-5.414h-4.57V18h-2.086V5.32h2.086v5.496h4.57V5.32h2.063V18zm5.555-8.309h2.613c1.211.008 2.176.38 2.894 1.114.719.734 1.078 1.734 1.078 3 0 1.265-.363 2.28-1.089 3.047-.727.757-1.688 1.14-2.883 1.148h-4.676V5.32h2.063v4.371zm0 1.77v4.77h2.578c.609 0 1.082-.208 1.418-.622.343-.414.515-.988.515-1.722 0-.719-.168-1.301-.504-1.746-.336-.446-.797-.672-1.383-.68h-2.624zm18.585.176h-4.839v-1.77h4.839v1.77zm11.438-4.77c-.609 0-1.133.246-1.57.738-.438.485-.657 1.067-.657 1.747h-1.968c0-.727.191-1.422.574-2.086a4.413 4.413 0 0 1 1.57-1.582c.656-.399 1.34-.598 2.051-.598 1.391 0 2.516.59 3.375 1.77.867 1.171 1.301 2.738 1.301 4.699v.351c0 1.188-.196 2.27-.586 3.246-.391.977-.942 1.735-1.653 2.274-.71.539-1.527.808-2.449.808-1.195 0-2.191-.433-2.988-1.3-.797-.868-1.195-1.961-1.195-3.282h1.968c0 .813.215 1.489.645 2.028.437.53.961.797 1.57.797.735 0 1.332-.356 1.793-1.067.469-.719.742-1.71.82-2.976h-3.691v-1.782h3.668c-.094-1.172-.367-2.093-.82-2.765-.446-.68-1.031-1.02-1.758-1.02zm14.601.211h-3.457V18h-2.062V7.078h-3.41V5.32h8.929v1.758zm1.254 3.996c0-1.844.446-3.3 1.336-4.37.899-1.079 2.082-1.618 3.551-1.618 1.469 0 2.649.523 3.539 1.57.899 1.047 1.36 2.473 1.383 4.278v1.336c0 1.835-.445 3.289-1.336 4.359-.891 1.07-2.078 1.605-3.562 1.605-1.469 0-2.649-.52-3.539-1.558-.883-1.04-1.34-2.445-1.372-4.219v-1.383zm2.075 1.196c0 1.304.254 2.332.761 3.082.516.742 1.207 1.113 2.075 1.113 1.828 0 2.769-1.32 2.824-3.961v-1.43c0-1.297-.258-2.32-.774-3.07-.515-.758-1.207-1.137-2.074-1.137-.851 0-1.535.38-2.051 1.137-.507.75-.761 1.77-.761 3.059v1.207zM296.453 38h-2.062v-5.414h-4.571V38h-2.086V25.32h2.086v5.496h4.571V25.32h2.062V38zm7.84.234c-1.578 0-2.789-.468-3.633-1.406-.844-.945-1.273-2.328-1.289-4.148v-1.535c0-1.891.41-3.372 1.231-4.442.828-1.078 1.98-1.617 3.457-1.617 1.484 0 2.593.473 3.328 1.418.734.945 1.109 2.418 1.125 4.418v1.36h-7.078v.292c0 1.36.254 2.348.761 2.965.516.617 1.254.926 2.215.926.61 0 1.145-.113 1.606-.34.468-.234.906-.602 1.312-1.102l1.078 1.313c-.898 1.266-2.269 1.898-4.113 1.898zm-.234-11.367c-.86 0-1.497.297-1.911.89-.414.587-.648 1.5-.703 2.743h4.993v-.281c-.055-1.203-.274-2.063-.657-2.578-.375-.516-.949-.774-1.722-.774zm20.472.211h-3.457V38h-2.062V27.078h-3.41V25.32h8.929v1.758zm1.254 3.996c0-1.844.445-3.3 1.336-4.37.899-1.079 2.082-1.618 3.551-1.618 1.469 0 2.648.523 3.539 1.57.898 1.047 1.359 2.473 1.383 4.278v1.335c0 1.837-.446 3.29-1.336 4.36-.891 1.07-2.078 1.605-3.563 1.605-1.468 0-2.648-.52-3.539-1.558-.883-1.04-1.34-2.446-1.371-4.219v-1.383zm2.074 1.195c0 1.305.254 2.333.762 3.083.516.742 1.207 1.113 2.074 1.113 1.828 0 2.77-1.32 2.825-3.961v-1.43c0-1.297-.258-2.32-.774-3.07-.516-.758-1.207-1.137-2.074-1.137-.852 0-1.535.38-2.051 1.137-.508.75-.762 1.77-.762 3.058v1.207zm19.161-6.949V38h-2.075V27.113h-3.34l-.199 4.301c-.109 2.383-.429 4.074-.961 5.074-.531.992-1.383 1.496-2.554 1.512h-.692v-1.91l.528-.047c.578-.078.984-.465 1.218-1.16.243-.703.403-2.082.481-4.137l.199-5.426h7.395zm5.542 4.371h2.614c1.211.008 2.176.38 2.894 1.114.719.734 1.078 1.734 1.078 3 0 1.265-.363 2.28-1.089 3.047-.727.757-1.688 1.14-2.883 1.148H350.5V25.32h2.062v4.371zm0 1.77v4.77h2.579c.609 0 1.082-.208 1.418-.622.343-.414.515-.988.515-1.722 0-.719-.168-1.301-.504-1.746-.336-.446-.797-.672-1.382-.68h-2.626zm12.68 1.137h-1.172V38h-2.074V25.32h2.074v5.367h1.032l3.457-5.367h2.472l-4.23 6.035L371.336 38h-2.602l-3.492-5.402zm7.395-1.524c0-1.844.445-3.3 1.336-4.37.898-1.079 2.082-1.618 3.55-1.618 1.469 0 2.649.523 3.539 1.57.899 1.047 1.36 2.473 1.383 4.278v1.335c0 1.837-.445 3.29-1.336 4.36-.89 1.07-2.078 1.605-3.562 1.605-1.469 0-2.649-.52-3.539-1.558-.883-1.04-1.34-2.446-1.371-4.219v-1.383zm2.074 1.195c0 1.305.254 2.333.762 3.083.515.742 1.207 1.113 2.074 1.113 1.828 0 2.769-1.32 2.824-3.961v-1.43c0-1.297-.258-2.32-.773-3.07-.516-.758-1.207-1.137-2.075-1.137-.851 0-1.535.38-2.05 1.137-.508.75-.762 1.77-.762 3.058v1.207zm19.383 2.286l2.308-9.235h2.203l-4.148 14.473c-.312 1.086-.754 1.91-1.324 2.473-.571.57-1.219.855-1.945.855-.282 0-.641-.062-1.079-.187v-1.758l.457.047c.602 0 1.071-.145 1.407-.434.343-.281.621-.773.832-1.477l.41-1.417-3.727-12.575h2.262l2.344 9.235zM408.859 38h-2.086v-4.547a8.36 8.36 0 0 1-2.332.328c-1.296 0-2.304-.398-3.023-1.195-.719-.805-1.09-1.95-1.113-3.434V25.31h2.074v3.902c.047 1.86.734 2.789 2.062 2.789.782 0 1.559-.117 2.332-.352V25.32h2.086V38zm7.817.234c-1.578 0-2.789-.468-3.633-1.406-.844-.945-1.273-2.328-1.289-4.148v-1.535c0-1.891.41-3.372 1.23-4.442.828-1.078 1.981-1.617 3.457-1.617 1.485 0 2.594.473 3.329 1.418.734.945 1.109 2.418 1.125 4.418v1.36h-7.079v.292c0 1.36.254 2.348.762 2.965.516.617 1.254.926 2.215.926.609 0 1.145-.113 1.605-.34.469-.234.907-.602 1.313-1.102l1.078 1.313c-.898 1.266-2.269 1.898-4.113 1.898zm-.235-11.367c-.859 0-1.496.297-1.91.89-.414.587-.648 1.5-.703 2.743h4.992v-.281c-.054-1.203-.273-2.063-.656-2.578-.375-.516-.949-.774-1.723-.774zm11.778-.82c1.336 0 2.398.531 3.187 1.594.789 1.054 1.184 2.468 1.184 4.242v.176c0 1.875-.438 3.375-1.313 4.5-.875 1.117-2.031 1.675-3.468 1.675-1.438 0-2.594-.566-3.469-1.699s-1.313-2.656-1.313-4.57v-1.067c0-2.617.411-4.71 1.231-6.28.82-1.579 2.023-2.552 3.609-2.919.914-.21 1.531-.46 1.852-.75.328-.289.492-.672.492-1.148h1.676l-.012.457c-.094 1.547-.836 2.527-2.227 2.941l-1.429.399c-1.031.28-1.824.777-2.379 1.488-.547.71-.902 1.64-1.067 2.789.954-1.219 2.102-1.828 3.446-1.828zm-.422 1.781c-.828 0-1.485.352-1.969 1.055-.476.703-.715 1.762-.715 3.176 0 1.375.239 2.457.715 3.246.477.78 1.137 1.172 1.981 1.172.843 0 1.507-.395 1.992-1.184.484-.79.726-1.957.726-3.504 0-1.219-.246-2.184-.738-2.895-.484-.71-1.148-1.066-1.992-1.066zM441.543 38c-.125-.273-.215-.734-.27-1.383-.734 1.078-1.671 1.617-2.812 1.617-1.149 0-2.047-.32-2.695-.96-.641-.649-.961-1.56-.961-2.731 0-1.29.437-2.313 1.312-3.07.875-.758 2.074-1.145 3.598-1.16h1.523v-1.348c0-.758-.168-1.297-.504-1.617-.336-.32-.847-.48-1.535-.48-.625 0-1.133.187-1.523.562-.391.367-.586.836-.586 1.406h-2.074c0-.648.191-1.266.574-1.852a3.982 3.982 0 0 1 1.547-1.394c.648-.336 1.371-.504 2.168-.504 1.297 0 2.281.324 2.953.973.68.64 1.027 1.578 1.043 2.812v6.399c.008.976.14 1.824.398 2.542V38h-2.156zm-2.766-1.652c.508 0 .993-.141 1.453-.422.461-.282.797-.633 1.008-1.055v-3.023h-1.172c-.984.015-1.761.238-2.332.668-.57.422-.855 1.015-.855 1.78 0 .72.144 1.243.433 1.571.29.32.778.48 1.465.48z" fill="#333"/><path d="M56.16 146.12c0-4.032.816-7.776 2.448-11.232 1.632-3.456 3.696-6.432 6.192-8.928h1.44a48.124 48.124 0 0 0-.432 3.888c-.096 1.152-.192 2.4-.288 3.744v8.784c.096 1.344.192 2.544.288 3.6.096 1.152.24 2.16.432 3.024H6.48v-1.44l8.64-2.16V51.8l-8.64-2.16V48.2H64.8c-.192.864-.336 1.872-.432 3.024a158.662 158.662 0 0 0-.288 3.744v8.784c.096 1.248.192 2.448.288 3.6.096 1.344.24 2.64.432 3.888h-1.44c-2.496-2.496-4.56-5.472-6.192-8.928-1.632-3.456-2.448-7.2-2.448-11.232H27.36v43.2h13.68l6.48-12.96h1.44v28.8h-1.44l-6.48-12.96H27.36v48.96h28.8zm30.223-.72V86.36l-8.64-2.16v-1.44h20.16v62.64l8.64 2.16V149h-28.8v-1.44l8.64-2.16zm12.24-79.2c0 1.824-.768 3.504-2.304 5.04-1.44 1.44-3.072 2.16-4.896 2.16-1.824 0-3.504-.72-5.04-2.16-1.44-1.536-2.16-3.216-2.16-5.04 0-1.824.72-3.456 2.16-4.896C87.92 59.768 89.6 59 91.423 59c1.824 0 3.456.768 4.896 2.304 1.536 1.44 2.304 3.072 2.304 4.896zm25.166 79.2V86.36l-8.64-2.16v-1.44h20.16v8.64c.96-1.92 2.256-3.696 3.888-5.328 1.344-1.344 3.072-2.592 5.184-3.744 2.112-1.152 4.608-1.728 7.488-1.728 2.88 0 5.52.528 7.92 1.584 2.496 1.056 4.656 2.544 6.48 4.464 1.824 1.824 3.216 4.08 4.176 6.768 1.056 2.592 1.584 5.52 1.584 8.784v43.2l8.64 2.16V149h-28.08v-1.44l7.92-2.16v-43.2c0-6.816-1.104-11.616-3.312-14.4-2.112-2.88-4.608-4.32-7.488-4.32-2.4 0-4.464.672-6.192 2.016-1.728 1.344-3.216 2.832-4.464 4.464-1.44 1.92-2.688 4.08-3.744 6.48v48.96l7.92 2.16V149h-28.08v-1.44l8.64-2.16z" fill="#EDE6DF"/><path d="M200.059 66.92c0 3.936 1.152 7.344 3.456 10.224 2.304 2.784 5.184 5.376 8.64 7.776 3.456 2.4 7.2 4.752 11.232 7.056 4.128 2.304 7.92 4.944 11.376 7.92a38.542 38.542 0 0 1 8.64 10.224c2.304 3.936 3.456 8.736 3.456 14.4 0 3.744-.672 7.248-2.016 10.512-1.344 3.264-3.264 6.096-5.76 8.496-2.4 2.4-5.28 4.272-8.64 5.616-3.36 1.344-7.008 2.016-10.944 2.016-3.648 0-6.768-.384-9.36-1.152-2.592-.672-4.752-1.488-6.48-2.448-2.016-1.056-3.696-2.256-5.04-3.6-.768 1.44-1.824 2.784-3.168 4.032-1.248 1.248-2.592 2.064-4.032 2.448h-2.16c.096-1.344.192-2.784.288-4.32.096-1.248.192-2.64.288-4.176.096-1.536.144-3.024.144-4.464 0-1.632-.048-3.216-.144-4.752-.096-1.632-.192-3.12-.288-4.464-.096-1.536-.192-3.024-.288-4.464h2.16c2.208 7.968 5.376 14.064 9.504 18.288 4.224 4.128 9.936 6.192 17.136 6.192 5.76 0 10.416-1.824 13.968-5.472 3.648-3.744 5.472-8.88 5.472-15.408 0-3.936-1.152-7.296-3.456-10.08-2.304-2.88-5.184-5.52-8.64-7.92-3.456-2.4-7.248-4.752-11.376-7.056a77.765 77.765 0 0 1-11.232-7.776 40.77 40.77 0 0 1-8.64-10.368c-2.304-3.936-3.456-8.736-3.456-14.4 0-3.264.624-6.336 1.872-9.216 1.248-2.88 2.976-5.376 5.184-7.488 2.208-2.208 4.8-3.936 7.776-5.184 2.976-1.248 6.192-1.872 9.648-1.872 2.88 0 5.424.384 7.632 1.152 2.208.768 4.08 1.584 5.616 2.448a29.437 29.437 0 0 1 4.752 3.6c.768-1.44 1.776-2.784 3.024-4.032 1.344-1.248 2.736-2.064 4.176-2.448h2.16a65.792 65.792 0 0 0-.432 4.32 488.707 488.707 0 0 0-.288 4.32v9.216c.096 1.536.192 2.976.288 4.32.096 1.536.24 3.024.432 4.464h-2.16c-2.208-7.968-5.28-14.016-9.216-18.144-3.936-4.224-8.784-6.336-14.544-6.336-4.704 0-8.64 1.632-11.808 4.896-3.168 3.264-4.752 7.632-4.752 13.104zm92.857 15.84v2.88h-16.56v45.936c0 5.856 1.056 10.128 3.168 12.816 2.112 2.592 4.416 3.888 6.912 3.888 3.264 0 6-1.2 8.208-3.6 2.304-2.496 3.648-6.096 4.032-10.8h2.16c-.384 5.472-2.064 9.744-5.04 12.816-2.88 2.976-6.48 4.464-10.8 4.464-6.144 0-11.04-1.776-14.688-5.328-3.648-3.648-5.472-8.352-5.472-14.112V85.64h-12.24v-2.88h12.24V66.2l11.52-7.92v24.48h16.56zm27.462 33.12c0 6.144.432 11.28 1.296 15.408.96 4.128 2.16 7.488 3.6 10.08 1.536 2.496 3.216 4.272 5.04 5.328 1.92 1.056 3.888 1.584 5.904 1.584 2.496 0 4.848-.48 7.055-1.44a20.332 20.332 0 0 0 5.905-3.888c1.728-1.632 3.12-3.6 4.176-5.904 1.152-2.304 1.92-4.8 2.304-7.488h2.16c-.384 3.072-1.248 5.952-2.592 8.64-1.248 2.592-2.88 4.848-4.896 6.768s-4.368 3.408-7.057 4.464c-2.591 1.152-5.423 1.728-8.495 1.728-3.648 0-7.104-.768-10.368-2.304-3.264-1.632-6.192-3.936-8.784-6.912-2.496-3.072-4.512-6.768-6.048-11.088-1.44-4.416-2.16-9.408-2.16-14.976 0-5.76.72-10.848 2.16-15.264 1.44-4.416 3.312-8.064 5.616-10.944 2.4-2.976 5.136-5.232 8.208-6.768 3.168-1.536 6.48-2.304 9.936-2.304 3.456 0 6.72.768 9.792 2.304 3.168 1.536 5.904 3.792 8.208 6.768 2.4 2.88 4.32 6.528 5.76 10.944 1.44 4.416 2.16 9.504 2.16 15.264h-38.88zm12.96-33.12c-1.44 0-2.88.48-4.32 1.44-1.44.864-2.784 2.448-4.032 4.752-1.248 2.304-2.304 5.424-3.168 9.36-.768 3.84-1.248 8.736-1.44 14.688h25.92c-.192-5.952-.72-10.848-1.584-14.688-.768-3.936-1.776-7.056-3.024-9.36-1.248-2.304-2.592-3.888-4.032-4.752-1.44-.96-2.88-1.44-4.32-1.44zm45.405 62.64V86.36l-8.64-2.16v-1.44h20.16v62.64l8.64 2.16V149h-28.8v-1.44l8.64-2.16zm12.24-79.2c0 1.824-.768 3.504-2.304 5.04-1.44 1.44-3.072 2.16-4.896 2.16-1.824 0-3.504-.72-5.04-2.16-1.44-1.536-2.16-3.216-2.16-5.04 0-1.824.72-3.456 2.16-4.896 1.536-1.536 3.216-2.304 5.04-2.304 1.824 0 3.456.768 4.896 2.304 1.536 1.44 2.304 3.072 2.304 4.896zm25.166 79.2V86.36l-8.64-2.16v-1.44h20.16v8.64c.96-1.92 2.256-3.696 3.888-5.328 1.344-1.344 3.072-2.592 5.184-3.744 2.112-1.152 4.608-1.728 7.488-1.728 2.88 0 5.52.528 7.92 1.584 2.496 1.056 4.656 2.544 6.48 4.464 1.824 1.824 3.216 4.08 4.176 6.768 1.056 2.592 1.584 5.52 1.584 8.784v43.2l8.64 2.16V149h-28.08v-1.44l7.92-2.16v-43.2c0-6.816-1.104-11.616-3.312-14.4-2.112-2.88-4.608-4.32-7.488-4.32-2.4 0-4.464.672-6.192 2.016-1.728 1.344-3.216 2.832-4.464 4.464-1.44 1.92-2.688 4.08-3.744 6.48v48.96l7.92 2.16V149h-28.08v-1.44l8.64-2.16zm66.909 3.6v-1.44l8.64-2.16V51.8l-8.64-2.16V48.2h25.92c4.512 0 8.4.528 11.664 1.584 3.36.96 6.144 2.352 8.352 4.176 2.208 1.728 3.84 3.792 4.896 6.192 1.152 2.304 1.728 4.8 1.728 7.488 0 2.112-.336 3.984-1.008 5.616-.576 1.632-1.392 3.072-2.448 4.32-.96 1.152-2.112 2.208-3.456 3.168a22.154 22.154 0 0 1-3.888 2.16c-3.168 1.44-6.768 2.352-10.8 2.736 5.952.576 11.232 2.064 15.84 4.464a31.95 31.95 0 0 1 5.76 3.888c1.92 1.44 3.6 3.264 5.04 5.472 1.536 2.112 2.736 4.608 3.6 7.488.96 2.784 1.44 6 1.44 9.648 0 4.512-.864 8.736-2.592 12.672-1.728 3.936-4.224 7.392-7.488 10.368-3.168 2.88-7.008 5.184-11.52 6.912-4.512 1.632-9.552 2.448-15.12 2.448h-25.92zm20.88-61.92v59.04h5.04c3.264 0 6.288-.624 9.072-1.872 2.784-1.248 5.184-3.12 7.2-5.616 2.112-2.496 3.744-5.568 4.896-9.216 1.248-3.648 1.872-7.92 1.872-12.816 0-4.896-.624-9.168-1.872-12.816-1.152-3.648-2.784-6.72-4.896-9.216-2.016-2.496-4.416-4.368-7.2-5.616-2.784-1.248-5.808-1.872-9.072-1.872h-5.04zm0-2.88h5.04c4.32-.096 7.776-1.488 10.368-4.176 2.688-2.784 4.032-6.912 4.032-12.384s-1.344-9.6-4.032-12.384c-2.592-2.784-6.048-4.176-10.368-4.176h-5.04V84.2zm88.543 29.52c-8.352 0-14.544 1.872-18.576 5.616-3.936 3.648-5.904 8.736-5.904 15.264 0 4.32 1.056 7.68 3.168 10.08 2.112 2.4 4.416 3.6 6.912 3.6 2.304 0 4.32-.672 6.048-2.016 1.824-1.344 3.36-2.832 4.608-4.464 1.44-1.824 2.688-3.984 3.744-6.48v-21.6zm-10.8-30.96c-2.88 0-5.28 1.008-7.2 3.024-1.92 1.92-2.88 4.512-2.88 7.776v2.016c.096.576.192 1.104.288 1.584.096.48.24.96.432 1.44l-11.52 2.88c-.192-.288-.336-.672-.432-1.152a50.217 50.217 0 0 1-.288-1.584V96.44c0-2.016.48-3.936 1.44-5.76.96-1.92 2.352-3.6 4.176-5.04 1.92-1.536 4.176-2.736 6.768-3.6 2.688-.96 5.76-1.44 9.216-1.44 6.912 0 12.336 1.968 16.272 5.904 4.032 3.936 6.048 9.168 6.048 15.696v43.2l8.64 2.16V149h-20.16v-8.64a22.4 22.4 0 0 1-4.032 5.472c-1.344 1.344-3.072 2.544-5.184 3.6-2.016 1.152-4.464 1.728-7.344 1.728-6.912 0-12.144-1.632-15.696-4.896-3.456-3.264-5.184-7.632-5.184-13.104 0-2.688.72-5.376 2.16-8.064 1.536-2.688 3.792-5.088 6.768-7.2 3.072-2.112 6.96-3.792 11.664-5.04 4.704-1.344 10.32-2.016 16.848-2.016v-8.64c0-7.2-1.104-12.24-3.312-15.12-2.112-2.88-4.608-4.32-7.488-4.32zm59.738 62.64l8.64 2.16V149h-28.8v-1.44l8.64-2.16V86.36l-8.64-2.16v-1.44h20.16v17.28c1.248-3.552 2.736-6.768 4.464-9.648a31.455 31.455 0 0 1 5.616-6.768c2.208-2.016 4.848-3.024 7.92-3.024 1.056 0 2.064.096 3.024.288.96.096 1.824.24 2.592.432.864.288 1.632.528 2.304.72l-4.32 10.8a38.55 38.55 0 0 1-1.872-1.008c-.576-.288-1.296-.528-2.16-.72a6.914 6.914 0 0 0-2.448-.432c-2.496 0-4.704.672-6.624 2.016-1.92 1.344-3.504 2.832-4.752 4.464-1.536 1.92-2.784 4.08-3.744 6.48v41.76z" fill="#333"/><path d="M198.806 143.96c1.344 1.344 3.024 2.544 5.04 3.6 1.064.591 2.291 1.127 3.681 1.609l.554-2.617c-2.655-1.029-4.978-2.517-6.971-4.464-4.128-4.224-7.296-10.32-9.504-18.288h-2.16c.096 1.44.192 2.928.288 4.464.096 1.344.192 2.832.288 4.464.096 1.536.144 3.12.144 4.752 0 1.44-.048 2.928-.144 4.464a293.981 293.981 0 0 1-.288 4.176 488.707 488.707 0 0 1-.288 4.32h2.16c1.44-.384 2.784-1.2 4.032-2.448 1.344-1.248 2.4-2.592 3.168-4.032z" fill="#EDE6DF"/><path fill-rule="evenodd" clip-rule="evenodd" d="M233.366 53.24a29.398 29.398 0 0 0-4.632-3.527l-.581 2.718a21.294 21.294 0 0 1 3.197 2.825c3.936 4.128 7.008 10.176 9.216 18.144h2.16a63.981 63.981 0 0 1-.432-4.464 488.707 488.707 0 0 1-.288-4.32V55.4c.096-1.536.192-2.976.288-4.32.096-1.44.24-2.88.432-4.32h-2.16c-1.44.384-2.832 1.2-4.176 2.448-1.248 1.248-2.256 2.592-3.024 4.032z" fill="#333"/><path d="M234.95 99.896c-3.456-2.976-7.248-5.616-11.376-7.92a167.007 167.007 0 0 1-3.483-2.046l-2.939 14.095a131.177 131.177 0 0 1 8.438 5.375c3.456 2.4 6.336 5.04 8.64 7.92 2.304 2.784 3.456 6.144 3.456 10.08 0 6.528-1.824 11.664-5.472 15.408-3.552 3.648-8.208 5.472-13.968 5.472-3.803 0-7.192-.576-10.165-1.728l-.554 2.617c.869.301 1.802.581 2.799.839 2.592.768 5.712 1.152 9.36 1.152 3.936 0 7.584-.672 10.944-2.016 3.36-1.344 6.24-3.216 8.64-5.616 2.496-2.4 4.416-5.232 5.76-8.496 1.344-3.264 2.016-6.768 2.016-10.512 0-5.664-1.152-10.464-3.456-14.4a38.542 38.542 0 0 0-8.64-10.224z" fill="#333"/><path d="M203.702 77.144c-2.304-2.88-3.456-6.288-3.456-10.224 0-5.472 1.584-9.84 4.752-13.104 3.168-3.264 7.104-4.896 11.808-4.896 4.288 0 8.07 1.17 11.347 3.51l.581-2.717-.12-.073c-1.536-.864-3.408-1.68-5.616-2.448-2.208-.768-4.752-1.152-7.632-1.152-3.456 0-6.672.624-9.648 1.872-2.976 1.248-5.568 2.976-7.776 5.184-2.208 2.112-3.936 4.608-5.184 7.488-1.248 2.88-1.872 5.952-1.872 9.216 0 5.664 1.152 10.464 3.456 14.4a40.77 40.77 0 0 0 8.64 10.368 77.765 77.765 0 0 0 11.232 7.776 161.09 161.09 0 0 1 2.938 1.681l2.939-14.095a145.168 145.168 0 0 1-7.749-5.01c-3.456-2.4-6.336-4.992-8.64-7.776z" fill="#EDE6DF"/></svg>