<?xml version="1.0" standalone="no"?>
<!DOCTYPE svg PUBLIC "-//W3C//DTD SVG 20010904//EN"
 "http://www.w3.org/TR/2001/REC-SVG-20010904/DTD/svg10.dtd">
<svg version="1.0" xmlns="http://www.w3.org/2000/svg"
 width="513.000000pt" height="513.000000pt" viewBox="0 0 513.000000 513.000000"
 preserveAspectRatio="xMidYMid meet">
<metadata>
Created by potrace 1.11, written by Peter Selinger 2001-2013
</metadata>
<g transform="translate(0.000000,513.000000) scale(0.100000,-0.100000)"
fill="#000000" stroke="none">
<path d="M0 2570 l0 -2560 2565 0 2565 0 0 2560 0 2560 -2565 0 -2565 0 0
-2560z m4775 1545 c0 -20 -8 -20 -1302 -23 -717 -1 -1303 -3 -1303 -5 -1 -1
-130 -695 -289 -1542 l-287 -1540 -34 0 -34 0 -270 1130 c-149 622 -275 1136
-279 1143 -6 9 -69 12 -258 12 l-249 0 0 30 0 30 322 -2 321 -3 237 -980 c275
-1140 250 -1038 255 -1033 2 2 117 611 255 1353 138 743 255 1374 261 1403
l10 52 1322 -2 c1314 -3 1322 -3 1322 -23z m-901 -342 c-10 -62 -10 -391 0
-465 7 -53 6 -58 -12 -58 -26 0 -112 112 -157 204 -37 75 -65 171 -65 221 0
16 -3 40 -6 53 l-6 22 -339 0 -339 0 0 -535 0 -535 173 0 172 0 80 158 c119
233 115 239 115 -192 0 -436 3 -431 -115 -198 l-80 157 -170 0 -170 0 0 -605
0 -605 358 -3 357 -2 0 37 c0 69 29 174 69 257 48 98 127 200 160 204 20 3 23
1 16 -15 -11 -29 -18 -401 -8 -480 l9 -73 -738 0 c-704 0 -738 1 -738 18 0 14
20 23 103 43 l102 25 0 1164 0 1164 -102 25 c-83 20 -103 29 -103 43 0 17 34
18 721 18 l720 0 -7 -47z"/>
</g>
</svg>
