<svg width="70" height="70" fill="none" xmlns="http://www.w3.org/2000/svg"><g clip-path="url(#clip0)" fill="#F3A112"><path d="M35.012 17.007a7.033 7.033 0 0 0-7.023 7.024v3.026a7.023 7.023 0 0 0 14.047 0V24.03a7.033 7.033 0 0 0-7.024-7.024zm5.08 10.05a5.079 5.079 0 0 1-10.159 0V24.03a5.079 5.079 0 1 1 10.159 0v3.026zM52.713 36.061a6.276 6.276 0 0 0 6.268-6.269v-2.648a6.269 6.269 0 1 0-12.538 0v2.648a6.276 6.276 0 0 0 6.27 6.27zm-4.325-8.917a4.324 4.324 0 1 1 8.65 0v2.648a4.323 4.323 0 0 1-6.495 3.767 4.324 4.324 0 0 1-2.155-3.767v-2.648z"/><path d="M63.519 48.994v-5.96a6.94 6.94 0 0 0-6.51-6.918c-.508-.033-.766.288-.976.543a4.161 4.161 0 0 1-6.562-.16.963.963 0 0 0-.807-.394 6.868 6.868 0 0 0-3.365.97 7.773 7.773 0 0 0-5.45-2.658c-.467 0-.716.304-.936.573a4.891 4.891 0 0 1-7.716-.189.969.969 0 0 0-.807-.393 7.733 7.733 0 0 0-5.678 2.677 6.898 6.898 0 0 0-3.128-.969c-.511-.033-.767.288-.976.543a4.157 4.157 0 0 1-6.563-.16.967.967 0 0 0-.806-.394 6.934 6.934 0 0 0-6.758 6.93v5.96c0 .537.436.971.973.971h15.351v2.054c0 .537.435.972.973.972h22.468a.972.972 0 0 0 .973-.972v-2.054h15.327a.972.972 0 0 0 .973-.972zm-40.714-6.808v5.836H8.425v-4.987a5.024 5.024 0 0 1 4.402-4.954 6.104 6.104 0 0 0 9.101.024 4.959 4.959 0 0 1 1.7.596 7.746 7.746 0 0 0-.823 3.485zm22.47 8.862H24.75v-8.862a5.877 5.877 0 0 1 5.222-5.805 6.837 6.837 0 0 0 10.288.026 5.844 5.844 0 0 1 5.014 5.779v8.862zm16.299-3.026H47.219v-5.836c0-1.214-.285-2.41-.831-3.494a4.915 4.915 0 0 1 1.863-.611 6.105 6.105 0 0 0 9.101.024 4.994 4.994 0 0 1 4.222 4.93v4.987z"/><path d="M11.019 27.144v2.648a6.269 6.269 0 1 0 12.538 0v-2.648a6.269 6.269 0 1 0-12.538 0zm10.593 0v2.648a4.324 4.324 0 1 1-8.649 0v-2.648a4.325 4.325 0 1 1 8.65 0zM0 .972V18.19a.972.972 0 0 0 1.944 0V1.944H18.19a.972.972 0 0 0 0-1.944H.972A.972.972 0 0 0 0 .972zM18.189 68.056H1.944V51.812a.972.972 0 0 0-1.944 0v17.216c0 .537.435.972.972.972H18.19a.972.972 0 0 0 0-1.944zM69.028 50.84a.972.972 0 0 0-.973.972v16.244H51.811a.972.972 0 0 0 0 1.944h17.217a.972.972 0 0 0 .972-.972V51.812a.972.972 0 0 0-.972-.973zM69.028 0H51.81a.972.972 0 0 0 0 1.944h16.244V18.19a.973.973 0 0 0 1.945 0V.972A.972.972 0 0 0 69.028 0z"/></g><defs><clipPath id="clip0"><path fill="#fff" d="M0 0h70v70H0z"/></clipPath></defs></svg>