<svg width="70" height="70" fill="none" xmlns="http://www.w3.org/2000/svg"><path d="M5.637 53.243h19.77v11.153h-4.328a.93.93 0 0 0 0 1.858h28.657a.93.93 0 1 0 0-1.858h-5.142V53.243h19.77A5.643 5.643 0 0 0 70 47.607V9.353a5.643 5.643 0 0 0-5.636-5.636H5.637A5.643 5.643 0 0 0 0 9.353v38.254a5.643 5.643 0 0 0 5.637 5.636zm37.1 11.153H27.264V53.243h15.471v11.153zM1.857 9.353a3.782 3.782 0 0 1 3.779-3.778h58.727a3.782 3.782 0 0 1 3.778 3.778V42.82a.931.931 0 0 0-.358-.072H2.217a.932.932 0 0 0-.359.072V9.353zm0 35.182a.921.921 0 0 0 .359.072h65.567a.921.921 0 0 0 .358-.072v3.072a3.782 3.782 0 0 1-3.778 3.778H5.637a3.782 3.782 0 0 1-3.779-3.778v-3.072z" fill="#F3A112"/><path d="M6.256 33.745h18.918a11.143 11.143 0 0 0 19.652 0h18.918c.888 0 1.609-.72 1.61-1.61v-7.31a1.613 1.613 0 0 0-1.61-1.61H44.826a11.145 11.145 0 0 0-19.652 0H6.256a1.613 1.613 0 0 0-1.61 1.61v7.31c.001.89.722 1.61 1.61 1.61zm39.36-8.672h17.88v6.814h-17.88a11.134 11.134 0 0 0 0-6.814zM35 19.188a9.292 9.292 0 1 1-9.292 9.292A9.303 9.303 0 0 1 35 19.188zM6.504 25.073h17.88a11.136 11.136 0 0 0 0 6.814H6.504v-6.814z" fill="#F3A112"/><path d="M18.483 26.736a1.744 1.744 0 1 0 0 3.488 1.744 1.744 0 0 0 0-3.488zm0 1.858a.114.114 0 1 1 0-.228.114.114 0 0 1 0 .228zM51.517 30.224a1.744 1.744 0 1 0 0-3.488 1.744 1.744 0 0 0 0 3.488zm0-1.858a.114.114 0 1 1 0 .228.114.114 0 0 1 0-.228zM10.225 26.736a1.744 1.744 0 1 0 0 3.488 1.744 1.744 0 0 0 0-3.488zm0 1.858a.115.115 0 0 1-.115-.114.115.115 0 1 1 .229 0 .115.115 0 0 1-.114.114zM59.775 30.224a1.744 1.744 0 1 0 0-3.488 1.744 1.744 0 0 0 0 3.488zm0-1.858c.063 0 .114.051.114.114a.115.115 0 0 1-.228 0c0-.063.051-.114.114-.114zM33.16 31.88a.93.93 0 0 0 1.314 0l5.485-5.486a.928.928 0 1 0-1.314-1.314l-4.828 4.828-2.462-2.462a.929.929 0 1 0-1.314 1.314l3.12 3.12z" fill="#F3A112"/></svg>