<svg width="70" height="70" fill="none" xmlns="http://www.w3.org/2000/svg"><path d="M13.136 20.791a13.504 13.504 0 0 0 4.36 9.922 8.064 8.064 0 0 1 2.579 5.935v6.298a2.798 2.798 0 0 0 2.794 2.794h2.882v19.89a3.693 3.693 0 0 0 7.385 0V60.27a1.878 1.878 0 0 1 3.755 0v1.73a7.965 7.965 0 1 0 15.93 0v-6.824a19.952 19.952 0 0 0 4.558-2.379c3.568-2.522 5.454-5.877 5.454-9.702v-5.808a.853.853 0 0 0-.517-.784l-.065-.03a47.71 47.71 0 0 1-9.77-5.656.854.854 0 0 0-1.025 0 47.76 47.76 0 0 1-9.77 5.657l-.066.028a.853.853 0 0 0-.517.784v5.808c0 3.82 1.821 7.171 5.268 9.694a18.993 18.993 0 0 0 4.743 2.505V62a6.258 6.258 0 1 1-12.516 0v-1.729a3.585 3.585 0 0 0-7.17 0v5.358a1.985 1.985 0 1 1-3.97 0V45.74h2.884a2.797 2.797 0 0 0 2.794-2.794v-6.307a8.238 8.238 0 0 1 2.65-5.992 13.469 13.469 0 1 0-22.65-9.856zm31.68 28.168a.865.865 0 0 0 .048-.281v-.612a.854.854 0 0 0-1.114-.813 9.36 9.36 0 0 1-.94-4.157v-5.248a49.48 49.48 0 0 0 9.158-5.285 49.482 49.482 0 0 0 9.158 5.285v5.248a9.077 9.077 0 0 1-.97 4.147.851.851 0 0 0-1.083.822v.612c0 .071.01.142.027.212a12.878 12.878 0 0 1-2.667 2.487 18.314 18.314 0 0 1-4.634 2.348 17.4 17.4 0 0 1-4.459-2.342c-.95-.687-1.8-1.503-2.525-2.423zM30.34 44.033H22.87a1.088 1.088 0 0 1-1.086-1.069h6.422a.854.854 0 1 0 0-1.707h-6.423V40.19h1.377a.854.854 0 0 0 0-1.708h-1.377v-.98h9.647v.98h-6.26a.854.854 0 0 0 0 1.707h6.26v1.069h-1.215a.853.853 0 1 0 0 1.707h1.213a1.088 1.088 0 0 1-1.085 1.068zm-3.275-15.52a1.28 1.28 0 1 1 0-2.56 1.28 1.28 0 0 1 0 2.56zM26.605 9.03h.11a11.76 11.76 0 0 1 7.906 20.367 9.992 9.992 0 0 0-3.151 6.397h-3.55v-5.388a.859.859 0 0 0-.055-.297 2.987 2.987 0 1 0-1.598 0 .847.847 0 0 0-.054.297v5.388h-4.47a9.751 9.751 0 0 0-3.092-6.339A11.762 11.762 0 0 1 26.605 9.03zM27.92 4.735V.854a.854.854 0 0 0-1.707 0v3.88a.853.853 0 1 0 1.707 0z" fill="#F3A112"/><path d="M40.366 19.35c0 .471.382.853.854.853H45.1a.853.853 0 1 0 0-1.707H41.22a.854.854 0 0 0-.854.854zM12.845 19.35a.854.854 0 0 0-.854-.854H8.11a.854.854 0 0 0 0 1.707h3.882a.854.854 0 0 0 .854-.853zM39.65 5.1l-3.03 3.028a.853.853 0 1 0 1.207 1.207l3.03-3.029a.855.855 0 0 0-.379-1.437.853.853 0 0 0-.829.23zM13.562 5.1a.853.853 0 0 0-1.207 1.207l3.028 3.029a.853.853 0 0 0 1.208-1.208L13.56 5.1zM52.821 48.678v-.612a.853.853 0 1 0-1.707 0v.612a.854.854 0 0 0 1.707 0zM54.621 49.532a.854.854 0 0 0 .854-.854v-.612a.854.854 0 1 0-1.708 0v.612c0 .471.382.854.854.854zM57.274 49.532a.854.854 0 0 0 .853-.854v-.612a.854.854 0 1 0-1.707 0v.612c0 .471.382.854.854.854zM49.315 47.211a.854.854 0 0 0-.854.854v.612a.854.854 0 0 0 1.708 0v-.612a.854.854 0 0 0-.854-.854zM46.662 47.211a.854.854 0 0 0-.853.854v.612a.854.854 0 1 0 1.707 0v-.612a.854.854 0 0 0-.854-.854z" fill="#F3A112"/></svg>