<svg width="70" height="70" fill="none" xmlns="http://www.w3.org/2000/svg"><path d="M35 0c-9.447.01-17.104 7.667-17.114 17.114v15.769a22.411 22.411 0 0 0-5.397 14.606C12.489 59.902 22.589 70 35 70c12.412 0 22.511-10.099 22.511-22.511a22.41 22.41 0 0 0-5.396-14.606V17.114C52.104 7.668 44.447.011 35 0zm0 1.85c8.427.01 15.255 6.838 15.264 15.264V30.96a22.613 22.613 0 0 0-2.775-2.189V17.114c0-6.897-5.592-12.488-12.489-12.488-6.897 0-12.489 5.591-12.489 12.488V28.77a22.728 22.728 0 0 0-2.775 2.19V17.114C19.746 8.688 26.573 1.86 35 1.85zm10.639 25.805a22.476 22.476 0 0 0-21.278 0v-10.54c0-5.876 4.763-10.64 10.639-10.64 5.876 0 10.639 4.764 10.639 10.64v10.54zM35 68.15c-11.392 0-20.66-9.269-20.66-20.661 0-11.392 9.268-20.66 20.66-20.66s20.66 9.268 20.66 20.66-9.268 20.66-20.66 20.66z" fill="#F3A112"/><path d="M38.196 63.022a15.965 15.965 0 0 1-3.196.322.925.925 0 0 0 0 1.85c1.198 0 2.393-.12 3.567-.36a.925.925 0 1 0-.37-1.812zM41.318 62.035a.923.923 0 0 0-.196 1.606c.272.197.63.232.934.09A17.707 17.707 0 0 0 52.705 47.49a.925.925 0 1 0-1.85 0 15.859 15.859 0 0 1-9.537 14.547zM31.952 31.91a.926.926 0 0 0 .168-.015c.95-.174 1.915-.261 2.88-.26a.925.925 0 0 0 0-1.85c-1.078 0-2.153.096-3.213.29a.925.925 0 0 0 .165 1.835zM29.32 31.668a.925.925 0 0 0-1.212-.492 17.68 17.68 0 0 0-10.813 16.313.925.925 0 1 0 1.85 0A15.833 15.833 0 0 1 28.83 32.88a.925.925 0 0 0 .491-1.212zM41.822 42.904a.925.925 0 0 0-1.309 0l-7.208 7.208-3.818-3.818a.924.924 0 1 0-1.308 1.308l4.472 4.472a.925.925 0 0 0 1.308 0l7.862-7.862a.925.925 0 0 0 0-1.308z" fill="#F3A112"/></svg>