<svg width="70" height="70" fill="none" xmlns="http://www.w3.org/2000/svg"><g clip-path="url(#clip0)" fill="#F3A112"><path d="M35.067 13.924a6.961 6.961 0 1 0-6.96-6.961 6.969 6.969 0 0 0 6.96 6.96zm0-11.602a4.64 4.64 0 1 1 0 9.28 4.64 4.64 0 0 1 0-9.28zM7.545 13.924a6.961 6.961 0 1 0-6.96-6.961 6.969 6.969 0 0 0 6.96 6.96zm0-11.602a4.64 4.64 0 1 1 0 9.28 4.64 4.64 0 0 1 0-9.28z"/><path d="M69.55 6.963a6.961 6.961 0 1 0-8.121 6.862v14.312a6.977 6.977 0 0 0-5.703 5.703H41.93a6.959 6.959 0 0 0-13.725 0H14.408a6.961 6.961 0 1 0-8.023 8.022v14.313a6.962 6.962 0 1 0 2.32 0V41.862a6.976 6.976 0 0 0 5.703-5.702h13.796a6.96 6.96 0 0 0 13.725 0h13.797a6.96 6.96 0 1 0 8.023-8.023V13.825a6.972 6.972 0 0 0 5.801-6.862zM12.186 63.038a4.641 4.641 0 1 1-4.64-4.64 4.646 4.646 0 0 1 4.64 4.64zM7.546 39.64a4.64 4.64 0 1 1-.001-9.281 4.64 4.64 0 0 1 0 9.28zm27.521 0a4.64 4.64 0 1 1 0-9.281 4.64 4.64 0 0 1 0 9.28zM67.23 35a4.64 4.64 0 1 1-4.641-4.641 4.646 4.646 0 0 1 4.64 4.64zm-4.641-23.398a4.64 4.64 0 1 1 0-9.28 4.64 4.64 0 0 1 0 9.28z"/><path d="M35.067 56.077a6.96 6.96 0 1 0 6.961 6.96 6.969 6.969 0 0 0-6.96-6.96zm0 11.602a4.64 4.64 0 1 1 0-9.281 4.64 4.64 0 0 1 0 9.28zM62.589 56.077a6.96 6.96 0 1 0 6.961 6.96 6.969 6.969 0 0 0-6.961-6.96zm0 11.602a4.64 4.64 0 1 1 0-9.281 4.64 4.64 0 0 1 0 9.28z"/></g><defs><clipPath id="clip0"><path fill="#fff" d="M0 0h70v70H0z"/></clipPath></defs></svg>