<svg width="70" height="70" fill="none" xmlns="http://www.w3.org/2000/svg"><g clip-path="url(#clip0)" fill="#F3A112"><path d="M65.394 30.391a4.618 4.618 0 0 0-4.537 3.79h-6.659a19.14 19.14 0 0 0-5.088-12.177l4.724-4.723a4.601 4.601 0 1 0-1.19-1.225l-4.746 4.746a19.138 19.138 0 0 0-12.181-4.965V9.172a4.613 4.613 0 1 0-1.707-.055v6.732a19.142 19.142 0 0 0-12.022 5.073l-4.719-4.72a4.607 4.607 0 1 0-1.234 1.181l4.75 4.75a19.14 19.14 0 0 0-4.973 12.192h-6.63a4.613 4.613 0 1 0-.067 1.707h6.707a19.14 19.14 0 0 0 5.052 11.999l-4.692 4.692a4.602 4.602 0 1 0 1.189 1.225l4.713-4.712a19.136 19.136 0 0 0 12.07 4.988v6.634a4.611 4.611 0 1 0 1.707 0v-6.634a19.137 19.137 0 0 0 12.152-5.066l4.696 4.696a4.601 4.601 0 1 0 1.217-1.197l-4.709-4.71a19.138 19.138 0 0 0 4.981-12.06h6.67a4.611 4.611 0 1 0 4.526-5.496zM54.44 11.462a2.904 2.904 0 1 1 4.106 4.109 2.904 2.904 0 0 1-4.106-4.109zM32.103 4.616a2.904 2.904 0 1 1 5.808 0 2.904 2.904 0 0 1-5.808 0zM11.467 15.568a2.904 2.904 0 1 1 4.107-4.105 2.904 2.904 0 0 1-4.107 4.105zM4.621 37.906a2.904 2.904 0 1 1 0-5.809 2.904 2.904 0 0 1 0 5.81zm10.953 20.636a2.907 2.907 0 1 1-.092-4.19.816.816 0 0 0 .259.267 2.902 2.902 0 0 1-.167 3.923zm22.337 6.846a2.904 2.904 0 1 1-3.091-2.894c.123.028.25.028.373 0a2.906 2.906 0 0 1 2.718 2.894zm20.636-10.952a2.903 2.903 0 1 1-4.104 4.106 2.903 2.903 0 0 1 4.104-4.106zm-23.54-1.9c-9.667 0-17.503-7.836-17.503-17.502 0-9.667 7.836-17.504 17.503-17.504s17.504 7.837 17.504 17.504c-.011 9.662-7.841 17.492-17.504 17.503zm30.387-14.63a2.904 2.904 0 1 1 0-5.809 2.904 2.904 0 0 1 0 5.81z"/><path d="M34.495 19.535a61.31 61.31 0 0 1-12.544 7.264l-.084.036a.853.853 0 0 0-.517.784v7.428c0 4.805 2.296 9.026 6.64 12.206a23.436 23.436 0 0 0 6.556 3.353.85.85 0 0 0 .471.002 24.544 24.544 0 0 0 6.774-3.346c4.497-3.18 6.874-7.404 6.874-12.215v-7.428a.853.853 0 0 0-.517-.784l-.083-.036a61.291 61.291 0 0 1-12.545-7.264.854.854 0 0 0-1.025 0zm12.463 15.512c0 3.218-1.164 6.07-3.466 8.511a.853.853 0 0 0-1.704.064v.783c0 .202.072.399.204.553-.363.3-.746.594-1.147.88a23.627 23.627 0 0 1-6.056 3.052A22.353 22.353 0 0 1 29 45.874c-.37-.27-.723-.548-1.058-.833a.85.85 0 0 0 .287-.636v-.783a.853.853 0 1 0-1.707 0v.069c-2.3-2.47-3.464-5.366-3.464-8.644v-6.868a63.019 63.019 0 0 0 11.95-6.898 63.035 63.035 0 0 0 11.95 6.898v6.868z"/><path d="M35.007 42.769a.853.853 0 0 0-.853.853v.783a.854.854 0 0 0 1.707 0v-.783a.853.853 0 0 0-.854-.853zM37.552 42.769a.853.853 0 0 0-.854.853v.783a.854.854 0 0 0 1.707 0v-.783a.853.853 0 0 0-.853-.853zM39.243 43.622v.783a.854.854 0 0 0 1.707 0v-.783a.853.853 0 1 0-1.707 0zM32.462 42.769a.853.853 0 0 0-.853.853v.783a.854.854 0 0 0 1.707 0v-.783a.853.853 0 0 0-.854-.853zM29.918 42.769a.853.853 0 0 0-.854.853v.783a.854.854 0 0 0 1.707 0v-.783a.853.853 0 0 0-.853-.853zM31.613 34.048a.854.854 0 1 0-1.207 1.207l2.9 2.898a.853.853 0 0 0 1.206 0l5.097-5.096a.854.854 0 0 0-1.207-1.207l-4.493 4.493-2.296-2.295z"/></g><defs><clipPath id="clip0"><path fill="#fff" d="M0 0h70v70H0z"/></clipPath></defs></svg>