<svg width="120" height="120" fill="none" xmlns="http://www.w3.org/2000/svg"><g clip-path="url(#clip0)" fill="#F3A112"><path d="M50.69 43.35v3.895a9.307 9.307 0 1 0 18.615 0V43.35a9.306 9.306 0 0 0-13.976-8.1 9.304 9.304 0 0 0-4.64 8.1zm3.038 0a6.268 6.268 0 1 1 12.538 0v3.895a6.267 6.267 0 0 1-9.415 5.462 6.267 6.267 0 0 1-3.123-5.462V43.35z"/><path d="M66.326 56.452c-.794-.047-1.212.46-1.516.832a6.026 6.026 0 0 1-9.509-.232 1.543 1.543 0 0 0-1.26-.615 10.257 10.257 0 0 0-7.333 3.386 9.114 9.114 0 0 0-3.958-1.186c-.8-.058-1.22.456-1.5.796a5.084 5.084 0 0 1-8.024-.196 1.537 1.537 0 0 0-1.26-.615 9.247 9.247 0 0 0-8.958 9.187v7.671c0 .84.68 1.52 1.52 1.52h19.49v2.374c0 .839.68 1.52 1.52 1.52h28.92c.838 0 1.519-.681 1.519-1.52v-2.375h19.458c.84 0 1.52-.68 1.52-1.52v-7.67a9.197 9.197 0 0 0-8.61-9.173c-.802-.058-1.221.456-1.5.796a5.082 5.082 0 0 1-8.024-.196 1.544 1.544 0 0 0-1.26-.615 9.108 9.108 0 0 0-4.273 1.173 10.24 10.24 0 0 0-6.962-3.342zm-40.28 17.509v-6.152a6.197 6.197 0 0 1 5.292-6.091 8.125 8.125 0 0 0 11.918.035c.61.11 1.2.311 1.75.6a10.127 10.127 0 0 0-.988 4.364v7.243H26.047zm46.891 3.893h-25.88V66.717a7.297 7.297 0 0 1 6.346-7.19 9.066 9.066 0 0 0 13.451.038 7.255 7.255 0 0 1 6.083 7.152v11.137zm3.995-16.138a8.126 8.126 0 0 0 11.919.037 6.16 6.16 0 0 1 5.065 6.056v6.15h-17.94v-7.242a10.232 10.232 0 0 0-.985-4.386 6.042 6.042 0 0 1 1.94-.615z"/><path d="M82.779 59.103a8.348 8.348 0 0 0 8.337-8.338v-3.409a8.337 8.337 0 0 0-16.674 0v3.41a8.346 8.346 0 0 0 8.337 8.337zm-5.298-11.747a5.298 5.298 0 0 1 10.595 0v3.41a5.298 5.298 0 1 1-10.595 0v-3.41zM37.184 59.103a8.347 8.347 0 0 0 8.338-8.338v-3.409a8.337 8.337 0 0 0-16.675 0v3.41a8.347 8.347 0 0 0 8.337 8.337zm-5.298-11.747a5.298 5.298 0 0 1 10.596 0v3.41a5.298 5.298 0 1 1-10.596 0v-3.41z"/><path d="M103.857 88.567a51.67 51.67 0 0 0 8.292-28.388V30.796c0-.607-.361-1.156-.92-1.395l-.331-.143A244.349 244.349 0 0 1 60.893.304a1.521 1.521 0 0 0-1.823 0A244.327 244.327 0 0 1 9.065 29.257l-.332.144a1.52 1.52 0 0 0-.92 1.396v29.382c0 10.266 2.694 19.81 8.005 28.367 4.232 6.817 10.12 13.012 17.502 18.415 12.514 9.16 24.838 12.827 25.356 12.979.274.08.565.081.84.004.536-.152 13.282-3.815 26.228-12.967 7.64-5.401 13.733-11.595 18.113-18.41zM84.06 104.446c-11.24 7.964-22.64 11.732-24.95 12.446-2.256-.723-13.238-4.49-24.067-12.435-7.049-5.171-12.656-11.079-16.67-17.556-4.99-8.059-7.521-17.049-7.521-26.722V31.797a247.389 247.389 0 0 0 49.13-28.38 247.422 247.422 0 0 0 49.128 28.38v28.382a48.68 48.68 0 0 1-7.783 26.703c-4.156 6.481-9.965 12.39-17.267 17.564z"/><path d="M104.313 35.315a1.52 1.52 0 0 0-.919-1.396l-.281-.12a206.295 206.295 0 0 1-42.22-24.447 1.518 1.518 0 0 0-1.823 0 206.349 206.349 0 0 1-42.22 24.446l-.28.12a1.52 1.52 0 0 0-.92 1.397v24.837c0 8.722 2.289 16.832 6.802 24.103 3.593 5.787 8.59 11.047 14.855 15.632 10.61 7.766 21.066 10.876 21.505 11.005.274.08.565.082.84.004.456-.129 11.266-3.236 22.242-10.995 6.482-4.584 11.654-9.84 15.371-15.625a43.918 43.918 0 0 0 7.048-24.124V35.315zm-3.039 24.836a40.92 40.92 0 0 1-6.538 22.437 46.22 46.22 0 0 1-3.037 4.187v-.19a1.52 1.52 0 1 0-3.039 0v3.097c0 .148.022.296.064.438a60.786 60.786 0 0 1-8.514 7.247 79.938 79.938 0 0 1-20.963 10.476A76.064 76.064 0 0 1 39.03 97.379a59.56 59.56 0 0 1-7.931-6.936c.134-.231.205-.494.205-.761v-3.097a1.52 1.52 0 0 0-3.038 0v.615a46.324 46.324 0 0 1-3.258-4.593c-4.192-6.77-6.318-14.325-6.318-22.455V36.315A209.329 209.329 0 0 0 59.98 12.463a209.32 209.32 0 0 0 41.293 23.852V60.15z"/><path d="M59.981 85.066c-.839 0-1.52.68-1.52 1.52v3.097a1.52 1.52 0 0 0 3.04 0v-3.098c0-.838-.68-1.52-1.52-1.52zM70.048 85.066c-.84 0-1.52.68-1.52 1.52v3.097a1.52 1.52 0 1 0 3.04 0v-3.098c0-.838-.681-1.52-1.52-1.52zM80.114 85.066c-.839 0-1.52.68-1.52 1.52v3.097a1.52 1.52 0 0 0 3.04 0v-3.098c0-.838-.681-1.52-1.52-1.52zM49.916 85.066c-.84 0-1.52.68-1.52 1.52v3.097a1.52 1.52 0 1 0 3.04 0v-3.098c0-.838-.681-1.52-1.52-1.52zM39.848 85.066c-.838 0-1.519.68-1.519 1.52v3.097a1.52 1.52 0 0 0 3.039 0v-3.098c0-.838-.68-1.52-1.52-1.52z"/></g><defs><clipPath id="clip0"><path fill="#fff" d="M0 0h120v120H0z"/></clipPath></defs></svg>