<svg width="35" height="35" fill="none" xmlns="http://www.w3.org/2000/svg"><path d="M24.562 0H10.438C4.706 0 .044 4.663.044 10.394v14.212C.044 30.337 4.706 35 10.438 35h14.124c5.732 0 10.394-4.663 10.394-10.394V10.394C34.956 4.663 30.293 0 24.562 0zm9 24.606c0 4.962-4.037 9-9 9H10.438c-4.963 0-9-4.038-9-9V10.394c0-4.962 4.037-9 9-9h14.124c4.963 0 9 4.038 9 9v14.212z" fill="#F3A112"/><path d="M24.562 3.985H10.438a6.416 6.416 0 0 0-6.41 6.41v14.212a6.416 6.416 0 0 0 6.41 6.409h14.124a6.416 6.416 0 0 0 6.41-6.41V10.395a6.416 6.416 0 0 0-6.41-6.409zm5.015 20.621a5.02 5.02 0 0 1-5.015 5.015H10.438a5.02 5.02 0 0 1-5.015-5.015V10.394a5.02 5.02 0 0 1 5.015-5.014h14.124a5.02 5.02 0 0 1 5.015 5.014v14.212z" fill="#F3A112"/><path d="M17.5 8.49c-4.969 0-9.011 4.042-9.011 9.01 0 4.97 4.042 9.012 9.011 9.012 4.969 0 9.011-4.043 9.011-9.012 0-4.968-4.042-9.01-9.01-9.01zm0 16.627c-4.2 0-7.617-3.417-7.617-7.617S13.3 9.884 17.5 9.884s7.617 3.417 7.617 7.616c0 4.2-3.417 7.617-7.617 7.617z" fill="#F3A112"/><path d="M17.5 12.376a5.13 5.13 0 0 0-5.124 5.124 5.13 5.13 0 0 0 5.124 5.124 5.13 5.13 0 0 0 5.124-5.124 5.13 5.13 0 0 0-5.124-5.124zm0 8.854a3.734 3.734 0 0 1-3.73-3.73 3.734 3.734 0 0 1 3.73-3.73 3.734 3.734 0 0 1 3.73 3.73 3.734 3.734 0 0 1-3.73 3.73zM26.01 6.825a2.168 2.168 0 0 0-2.165 2.165c0 1.194.97 2.165 2.165 2.165a2.168 2.168 0 0 0 2.165-2.165 2.168 2.168 0 0 0-2.165-2.165zm0 2.936a.771.771 0 1 1 .001-1.543.771.771 0 0 1-.001 1.543zM16.384 31.653H9.831a.697.697 0 1 0 0 1.395h6.553a.697.697 0 1 0 0-1.395zM19.034 31.653h-.419a.697.697 0 0 0 0 1.395h.419a.697.697 0 0 0 0-1.395z" fill="#F3A112"/></svg>