<svg width="35" height="35" fill="none" xmlns="http://www.w3.org/2000/svg"><g clip-path="url(#clip0)" fill="#F3A112"><path d="M22.256 7.607h3.19a1.24 1.24 0 0 0 1.239-1.239V1.243a1.24 1.24 0 0 0-1.24-1.239h-4.379A5.19 5.19 0 0 0 20.85 0c-.826 0-3.7.163-5.98 2.26-2.488 2.29-2.25 5.029-2.145 5.704v3.338h-3.17a1.24 1.24 0 0 0-1.239 1.24v5.511c0 .684.556 1.24 1.24 1.24h2.986V33.76c0 .683.556 1.24 1.239 1.24h6.246a1.24 1.24 0 0 0 1.24-1.24V19.364h3.537c.63 0 1.159-.472 1.23-1.097l.644-5.583a1.24 1.24 0 0 0-1.231-1.381h-4.18V8.5c0-.58.157-.893.99-.893zm-1.688 5.09h4.704l-.608 5.273h-4.096a.697.697 0 0 0-.697.697v14.939h-5.936v-15.01a.697.697 0 0 0-.697-.698H9.709v-5.201h3.712A.697.697 0 0 0 14.12 12V7.907c0-.04-.004-.08-.01-.12-.074-.421-.337-2.622 1.705-4.5 1.908-1.756 4.337-1.893 5.035-1.893a3.573 3.573 0 0 1 .202.004h4.24v4.815h-3.034c-1.494 0-2.386.855-2.386 2.287V12c0 .385.312.697.697.697z"/><path d="M15.339 23.496a.697.697 0 0 0-.697.697v.349a.697.697 0 0 0 1.394 0v-.349a.697.697 0 0 0-.697-.697zM15.339 26.075a.697.697 0 0 0-.697.697v5.3a.697.697 0 0 0 1.394 0v-5.3a.697.697 0 0 0-.697-.697z"/></g><defs><clipPath id="clip0"><path fill="#fff" d="M0 0h35v35H0z"/></clipPath></defs></svg>