<svg width="87" height="66" fill="none" xmlns="http://www.w3.org/2000/svg"><path d="M34.688 22.088C34.688 8.264 26.048.2 16.544.2 7.904.2 1.28 7.4 1.28 15.752c0 8.64 5.76 14.688 13.824 14.688 1.44 0 3.456-.288 4.032-.576C17.984 39.368 9.632 50.6.416 56.648l10.656 8.928c13.248-9.504 23.616-25.92 23.616-43.488zm51.975 0C86.663 8.264 78.023.2 68.519.2c-8.64 0-15.264 7.2-15.264 15.552 0 8.64 5.76 14.688 13.824 14.688 1.44 0 3.456-.288 4.032-.576-1.152 9.504-9.504 20.736-18.72 26.784l10.656 8.928c13.248-9.504 23.616-25.92 23.616-43.488z" fill="#F67C26"/></svg>