<svg width="35" height="35" fill="none" xmlns="http://www.w3.org/2000/svg"><g clip-path="url(#clip0)" fill="#F3A112"><path d="M33.445 22.947c-.761-.913-1.622-1.727-2.453-2.515-.293-.277-.595-.564-.886-.848-.392-.382-.584-.653-.604-.854-.02-.197.115-.489.424-.92.463-.65.956-1.3 1.433-1.93.424-.559.863-1.137 1.283-1.718l.095-.13c.82-1.136 1.667-2.31 2.122-3.74.13-.41.264-1.016-.06-1.549-.326-.533-.929-.69-1.353-.763a3.412 3.412 0 0 0-.588-.038l-5.319-.005c-.92-.015-1.557.42-1.905 1.296-.278.699-.607 1.509-.988 2.277-.728 1.484-1.653 3.193-2.995 4.617l-.06.063c-.09.097-.24.257-.317.293-.145-.09-.313-.613-.305-.887v-.02l-.005-6.146a.712.712 0 0 0-.006-.093c-.12-.877-.352-1.756-1.74-2.03a.694.694 0 0 0-.134-.013H13.55c-1.041 0-1.592.477-2.033.993-.128.151-.467.551-.294 1.04.175.495.696.594.867.626.603.115.915.455 1.012 1.107.19 1.266.214 2.62.073 4.26-.039.44-.112.774-.23 1.052a.802.802 0 0 1-.08.153.816.816 0 0 1-.15-.084c-.424-.29-.743-.74-1.052-1.177-1.234-1.741-2.271-3.664-3.172-5.88-.371-.908-1.069-1.415-1.963-1.428-1.704-.029-3.28-.028-4.817.002-.725.012-1.233.24-1.51.678-.279.438-.269.997.03 1.661C2.364 15.039 4.3 18.489 6.51 21.483c1.556 2.107 3.122 3.57 4.928 4.604 1.898 1.086 4.039 1.618 6.522 1.618.283 0 .57-.007.861-.02 1.532-.07 2.156-.68 2.224-2.172.038-.79.126-1.428.43-1.983.085-.155.181-.26.257-.279.08-.02.224.03.382.133.29.188.54.444.746.668.209.228.419.464.623.692.433.485.882.987 1.352 1.465 1.062 1.083 2.287 1.58 3.642 1.476l4.867.002.047-.001a1.639 1.639 0 0 0 1.332-.853c.343-.608.338-1.378-.014-2.06-.368-.71-.845-1.321-1.264-1.826zm.064 3.2c-.068.12-.15.14-.193.146l-4.867-.002c-.02 0-.039 0-.058.002-.958.08-1.773-.257-2.561-1.06-.447-.456-.885-.945-1.308-1.418-.206-.23-.419-.47-.633-.704-.265-.29-.594-.623-1.015-.897-.632-.41-1.155-.397-1.482-.314-.325.081-.786.314-1.14.96-.458.835-.559 1.736-.6 2.588-.024.52-.112.658-.149.693-.048.045-.209.126-.746.15-2.583.122-4.75-.34-6.626-1.414-1.633-.934-3.062-2.276-4.499-4.222-2.148-2.911-4.038-6.282-6.128-10.93a1.183 1.183 0 0 1-.106-.33 1.19 1.19 0 0 1 .34-.043c1.52-.03 3.08-.03 4.769-.002.231.003.494.073.694.56.941 2.316 2.029 4.33 3.325 6.16.344.486.773 1.09 1.402 1.521.577.395 1.045.376 1.336.291.29-.085.695-.323.967-.967.176-.415.282-.883.335-1.474.15-1.754.123-3.212-.084-4.587-.146-.985-.655-1.697-1.456-2.06.142-.075.302-.106.525-.106h5.46c.308.07.369.15.39.178.088.118.138.396.17.613l.004 6.09c-.012.583.271 1.878 1.237 2.233a.675.675 0 0 0 .024.008c.88.287 1.461-.333 1.774-.667l.055-.06c1.47-1.559 2.46-3.381 3.232-4.956.403-.813.744-1.654 1.033-2.379.144-.364.276-.423.59-.417h.012l5.326.005c.123 0 .253.001.353.019.254.043.358.095.393.117.003.04.002.157-.074.4-.386 1.216-1.133 2.249-1.923 3.343l-.095.13c-.41.569-.844 1.14-1.263 1.693A82.03 82.03 0 0 0 28.792 17c-1.013 1.413-.924 2.35.34 3.583.299.292.605.582.901.862.84.795 1.633 1.547 2.34 2.395.371.446.791.983 1.097 1.574.16.31.12.589.039.734z"/><path d="M5.085 11.597a73.91 73.91 0 0 1-.305-.61.697.697 0 0 0-1.25.618l.31.62a.697.697 0 1 0 1.245-.628zM9.458 18.83c-1.143-1.55-2.213-3.232-3.27-5.144a.697.697 0 0 0-1.22.675c1.086 1.965 2.188 3.698 3.368 5.297a.696.696 0 1 0 1.122-.829z"/></g><defs><clipPath id="clip0"><path fill="#fff" d="M0 0h35v35H0z"/></clipPath></defs></svg>