<svg width="30" height="18" fill="none" xmlns="http://www.w3.org/2000/svg"><path d="M29.841 15.9a2.054 2.054 0 0 0-.102-.195c-.52-.938-1.515-2.088-2.983-3.453l-.031-.03-.016-.016-.015-.016h-.016c-.666-.635-1.088-1.062-1.265-1.28-.323-.418-.396-.84-.22-1.266.126-.323.595-1.005 1.407-2.046.427-.552.765-.995 1.015-1.328 1.801-2.395 2.583-3.926 2.343-4.592l-.093-.156c-.063-.094-.224-.18-.484-.258-.26-.078-.594-.09-1-.039l-4.498.031c-.073-.025-.177-.023-.313.008l-.203.047-.078.04-.063.046a.693.693 0 0 0-.171.164c-.063.078-.115.17-.156.274a25.491 25.491 0 0 1-1.672 3.514c-.385.646-.739 1.205-1.062 1.68-.323.473-.594.822-.812 1.046a5.658 5.658 0 0 1-.594.538c-.177.136-.312.193-.406.172-.094-.02-.182-.041-.266-.062a1.038 1.038 0 0 1-.35-.383 1.714 1.714 0 0 1-.18-.61 6.757 6.757 0 0 1-.055-.632c-.005-.177-.003-.427.008-.75.01-.323.015-.541.015-.656 0-.395.008-.825.024-1.288.015-.464.028-.83.039-1.101.01-.271.015-.558.015-.86 0-.302-.018-.538-.054-.71a2.432 2.432 0 0 0-.164-.5.843.843 0 0 0-.32-.375 1.805 1.805 0 0 0-.523-.21c-.552-.126-1.255-.193-2.11-.204-1.936-.02-3.18.104-3.732.375-.219.115-.417.27-.594.469-.187.229-.213.354-.078.374.625.094 1.067.318 1.327.672l.094.187c.073.136.146.375.22.719.072.344.119.724.14 1.14.052.76.052 1.411 0 1.952-.052.542-.102.964-.149 1.266a2.53 2.53 0 0 1-.21.734 3.094 3.094 0 0 1-.188.343.268.268 0 0 1-.078.078 1.17 1.17 0 0 1-.422.079c-.146 0-.323-.073-.531-.22a3.746 3.746 0 0 1-.648-.6 8.038 8.038 0 0 1-.758-1.07c-.28-.459-.573-1-.874-1.625l-.25-.453c-.157-.291-.37-.716-.64-1.273-.272-.557-.511-1.096-.72-1.617a1.03 1.03 0 0 0-.374-.5l-.078-.046a1.069 1.069 0 0 0-.25-.133 1.658 1.658 0 0 0-.36-.102L1 1.225c-.436 0-.733.099-.89.296l-.062.094a.505.505 0 0 0-.047.25c0 .115.031.255.094.422a51.543 51.543 0 0 0 2.038 4.248C2.866 7.9 3.504 8.998 4.045 9.831c.542.833 1.094 1.62 1.656 2.359.562.739.935 1.213 1.117 1.42.182.21.325.365.43.47l.39.374c.25.25.617.55 1.101.898.485.35 1.02.693 1.61 1.032a8.724 8.724 0 0 0 2.053.827c.781.214 1.541.3 2.28.258h1.797c.364-.031.64-.146.828-.344l.062-.078c.042-.062.08-.159.117-.288.037-.13.055-.274.055-.43-.01-.448.023-.851.101-1.21.078-.36.167-.63.266-.813.1-.182.211-.335.336-.46.124-.125.213-.2.266-.227a1 1 0 0 1 .124-.054c.25-.084.544-.003.883.242.338.245.656.547.953.906.297.36.653.763 1.07 1.21.416.448.78.781 1.093 1l.312.187c.209.125.48.24.813.344.332.104.624.13.874.078l3.999-.062c.395 0 .703-.066.921-.196.219-.13.349-.273.39-.43a1.21 1.21 0 0 0 .009-.53 1.96 1.96 0 0 0-.11-.414z" fill="#fff"/></svg>