<svg width="24" height="24" fill="none" xmlns="http://www.w3.org/2000/svg"><path d="M20.53 10.071c.029-3.383-2.853-6.485-6.424-6.914-.071-.009-.149-.022-.23-.035a3.34 3.34 0 0 0-.545-.06c-.732 0-.927.515-.979.821-.05.298-.002.549.142.745.242.33.669.388 1.011.435.1.014.196.026.275.044 3.208.717 4.289 1.844 4.817 5.026.013.077.018.173.025.275.023.38.07 1.171.921 1.171.071 0 .147-.006.227-.018.792-.12.767-.844.755-1.191a1.754 1.754 0 0 1 .005-.299z" fill="#fff"/><path d="M13.123 1.915c.096.006.186.013.26.025 5.27.81 7.692 3.306 8.364 8.616.011.09.013.2.015.317.006.415.02 1.278.947 1.296h.029c.29 0 .522-.088.687-.26.289-.303.268-.75.252-1.111-.004-.088-.008-.172-.006-.245C23.738 5.123 19.037.198 13.61.015c-.023 0-.044 0-.066.003a.453.453 0 0 1-.064.004c-.054 0-.12-.005-.191-.01C13.204.008 13.108 0 13.01 0c-.865 0-1.029.614-1.05.98-.048.846.77.906 1.163.935zM21.493 17.419a16.743 16.743 0 0 1-.337-.262c-.575-.462-1.187-.89-1.779-1.302l-.368-.257c-.758-.533-1.44-.791-2.084-.791-.867 0-1.623.479-2.247 1.424-.277.419-.612.623-1.026.623-.244 0-.522-.07-.825-.208-2.447-1.11-4.195-2.811-5.194-5.057-.483-1.085-.327-1.795.523-2.373.483-.327 1.382-.937 1.318-2.105-.072-1.327-2.999-5.318-4.232-5.771-.522-.192-1.07-.194-1.633-.005C2.19 1.812 1.174 2.65.666 3.755.176 4.825.198 6.08.731 7.386c1.538 3.777 3.7 7.07 6.428 9.786 2.67 2.66 5.95 4.839 9.752 6.476.342.147.702.227.964.286.09.02.167.037.223.053.031.008.063.013.095.013h.03c1.788 0 3.935-1.634 4.594-3.496.578-1.631-.477-2.437-1.324-3.085zM13.915 6.228c-.307.008-.944.024-1.167.673-.105.303-.092.566.037.782.19.317.553.414.884.468 1.2.192 1.815.855 1.939 2.087.057.574.444.975.94.975a.914.914 0 0 0 .111-.007c.597-.071.887-.51.86-1.304.01-.828-.423-1.769-1.16-2.518-.741-.752-1.633-1.175-2.445-1.156z" fill="#fff"/></svg>