<svg width="120" height="120" fill="none" xmlns="http://www.w3.org/2000/svg"><g clip-path="url(#clip0)" fill="#F3A112"><path d="M110.285 5.892H9.715A9.726 9.726 0 0 0 0 15.606v65.51c.006 5.362 4.352 9.709 9.715 9.714h33.21v19.799h-7.7a1.653 1.653 0 1 0 0 3.307h51.001a1.654 1.654 0 0 0 0-3.307h-9.15V90.83h33.209c5.363-.005 9.709-4.352 9.715-9.715V15.606c-.007-5.363-4.352-9.708-9.715-9.714zM9.715 9.199h100.57a6.414 6.414 0 0 1 6.407 6.407v56.497H3.307V15.606A6.415 6.415 0 0 1 9.715 9.2zm64.052 101.43H46.232V90.83h27.535v19.799zm36.518-23.106H9.715a6.414 6.414 0 0 1-6.408-6.408V75.41h113.385v5.705a6.413 6.413 0 0 1-6.407 6.408z"/><path d="M76.846 33.356a1.654 1.654 0 0 0 2.301.209l7.07-5.752a1.653 1.653 0 0 0-2.087-2.566l-5.817 4.735-1.988-2.328a1.654 1.654 0 0 0-2.515 2.148l3.036 3.554z"/><path d="M48.392 60.857a38.444 38.444 0 0 0 10.782 5.513c.297.088.614.089.913.005a40.398 40.398 0 0 0 11.135-5.5c7.058-4.99 10.946-11.55 11.3-19.02a12.68 12.68 0 0 0 2.455-24.165A12.676 12.676 0 0 0 70.3 21.393a100.057 100.057 0 0 1-9.307-6.197 1.652 1.652 0 0 0-1.985 0 99.906 99.906 0 0 1-20.424 11.826l-.138.058c-.607.262-1 .86-1 1.52v12.124c0 7.93 3.786 14.893 10.946 20.133zM80.12 20.035a9.371 9.371 0 1 1 0 18.742 9.371 9.371 0 0 1 0-18.742zm-39.367 9.65A103.114 103.114 0 0 0 60 18.577a103.219 103.219 0 0 0 8.554 5.624 12.699 12.699 0 0 0 2.35 13.912 12.73 12.73 0 0 0 8.3 3.934c-.285 4.493-2.034 8.518-5.217 12.035a1.654 1.654 0 0 0-3.18.64V56c0 .303.083.599.242.857-.53.43-1.082.85-1.66 1.263a38.31 38.31 0 0 1-9.742 4.928 36.458 36.458 0 0 1-9.38-4.915 30.64 30.64 0 0 1-1.425-1.117c.228-.29.351-.648.35-1.016v-1.278a1.653 1.653 0 1 0-3.235-.483c-3.455-3.892-5.203-8.419-5.203-13.514v-11.04z"/><path d="M60 57.654c.913 0 1.654-.74 1.654-1.654v-1.278a1.654 1.654 0 0 0-3.308 0V56c0 .913.74 1.654 1.654 1.654zM64.153 57.654c.913 0 1.654-.74 1.654-1.654v-1.278a1.654 1.654 0 0 0-3.307 0V56c0 .913.74 1.654 1.653 1.654zM68.307 57.654c.913 0 1.654-.74 1.654-1.654v-1.278a1.654 1.654 0 0 0-3.307 0V56c0 .913.74 1.654 1.653 1.654zM55.846 57.654c.914 0 1.654-.74 1.654-1.654v-1.278a1.653 1.653 0 1 0-3.308 0V56c0 .913.741 1.654 1.654 1.654zM51.692 57.654c.914 0 1.654-.74 1.654-1.654v-1.278a1.653 1.653 0 1 0-3.307 0V56c0 .913.74 1.654 1.653 1.654z"/></g><defs><clipPath id="clip0"><path fill="#fff" d="M0 0h120v120H0z"/></clipPath></defs></svg>