<svg width="120" height="120" fill="none" xmlns="http://www.w3.org/2000/svg"><path d="M94 70v4c9.937-.012 17.988-8.064 18-18h-4c-.009 7.728-6.271 13.991-14 14z" fill="#F3A112"/><path d="M116 42V22c0-12.15-9.85-22-22-22S72 9.85 72 22v11.2L20.786 19.466a8.012 8.012 0 0 0-9.8 5.658L6.422 42.16A7.999 7.999 0 0 0 0 50v62a8 8 0 0 0 8 8h104a8 8 0 0 0 8-8V56a25.799 25.799 0 0 0-4.126-14H116zM94 4c9.937.012 17.988 8.063 18 18v15.282a26.15 26.15 0 0 0-4-3.156V22c0-7.732-6.268-14-14-14s-14 6.268-14 14v12.126a26.145 26.145 0 0 0-4 3.156V22c.012-9.937 8.064-17.988 18-18zm10 28a25.927 25.927 0 0 0-20 0V22c0-5.523 4.478-10 10-10s10 4.477 10 10v10zm-89.15-5.84a4 4 0 0 1 4.9-2.83l52.25 14V42H10.6l4.25-15.84zM8 46h62a25.853 25.853 0 0 0-2 10c0 .676.05 1.338.102 2H4v-8a4 4 0 0 1 4-4zM4 62h64.726a25.923 25.923 0 0 0 4.822 10H4V62zm112 50a4 4 0 0 1-4 4H8a4 4 0 0 1-4-4V76h73.41A25.932 25.932 0 0 0 116 69.8V112zM94 78c-12.15 0-22-9.85-22-22s9.85-22 22-22 22 9.85 22 22c-.015 12.144-9.855 21.985-22 22z" fill="#F3A112"/><path d="M100 64v-6.74a8 8 0 1 0-12 0V64a2 2 0 0 0 2 2h8a2 2 0 0 0 2-2zm-4-7.556V62h-4v-5.556a2 2 0 0 0-.662-1.486A3.955 3.955 0 0 1 90 52a4 4 0 0 1 8 0 3.955 3.955 0 0 1-1.338 2.958A2 2 0 0 0 96 56.444zM24.21 99.106L22.764 102h-3.528L17.8 99.106A2 2 0 0 0 16 98h-6v4h4.764l1 2-1 2H10v4h6c.758 0 1.451-.428 1.79-1.106L19.236 106h3.528l1.446 2.894A2.001 2.001 0 0 0 26 110h6v-4h-4.764l-1-2 1-2H32v-4h-6a2 2 0 0 0-1.79 1.106zM94 106h14v4H94v-4zM76 106h14v4H76v-4zM58 106h14v4H58v-4zM40 106h14v4H40v-4zM104 84h4v8h-4v-8zM96 84h4v8h-4v-8zM88 84h4v8h-4v-8zM80 84h4v8h-4v-8zM72 84h4v8h-4v-8zM64 84h4v8h-4v-8z" fill="#F3A112"/></svg>