<?xml version="1.0" encoding="utf-8"?><svg width="120" height="1172" viewBox="0 0 120 1172" xmlns="http://www.w3.org/2000/svg" xmlns:xlink="http://www.w3.org/1999/xlink"><svg width="70" height="70" fill="none" viewBox="0 0 70 70" id="capability1" xmlns="http://www.w3.org/2000/svg"><g clip-path="url(#aclip0)" fill="#F3A112"><path d="M35.012 17.007a7.033 7.033 0 0 0-7.023 7.024v3.026a7.023 7.023 0 0 0 14.047 0V24.03a7.033 7.033 0 0 0-7.024-7.024zm5.08 10.05a5.079 5.079 0 0 1-10.159 0V24.03a5.079 5.079 0 1 1 10.159 0v3.026zm12.621 9.004a6.276 6.276 0 0 0 6.268-6.269v-2.648a6.269 6.269 0 1 0-12.538 0v2.648a6.276 6.276 0 0 0 6.27 6.27zm-4.325-8.917a4.324 4.324 0 1 1 8.65 0v2.648a4.323 4.323 0 0 1-6.495 3.767 4.324 4.324 0 0 1-2.155-3.767v-2.648z"/><path d="M63.519 48.994v-5.96a6.94 6.94 0 0 0-6.51-6.918c-.508-.033-.766.288-.976.543a4.161 4.161 0 0 1-6.562-.16.963.963 0 0 0-.807-.394 6.868 6.868 0 0 0-3.365.97 7.773 7.773 0 0 0-5.45-2.658c-.467 0-.716.304-.936.573a4.891 4.891 0 0 1-7.716-.189.969.969 0 0 0-.807-.393 7.733 7.733 0 0 0-5.678 2.677 6.898 6.898 0 0 0-3.128-.969c-.511-.033-.767.288-.976.543a4.157 4.157 0 0 1-6.563-.16.967.967 0 0 0-.806-.394 6.934 6.934 0 0 0-6.758 6.93v5.96c0 .537.436.971.973.971h15.351v2.054c0 .537.435.972.973.972h22.468a.972.972 0 0 0 .973-.972v-2.054h15.327a.972.972 0 0 0 .973-.972zm-40.714-6.808v5.836H8.425v-4.987a5.024 5.024 0 0 1 4.402-4.954 6.104 6.104 0 0 0 9.101.024 4.959 4.959 0 0 1 1.7.596 7.746 7.746 0 0 0-.823 3.485zm22.47 8.862H24.75v-8.862a5.877 5.877 0 0 1 5.222-5.805 6.837 6.837 0 0 0 10.288.026 5.844 5.844 0 0 1 5.014 5.779v8.862zm16.299-3.026H47.219v-5.836c0-1.214-.285-2.41-.831-3.494a4.915 4.915 0 0 1 1.863-.611 6.105 6.105 0 0 0 9.101.024 4.994 4.994 0 0 1 4.222 4.93v4.987z"/><path d="M11.019 27.144v2.648a6.269 6.269 0 1 0 12.538 0v-2.648a6.269 6.269 0 1 0-12.538 0zm10.593 0v2.648a4.324 4.324 0 1 1-8.649 0v-2.648a4.325 4.325 0 1 1 8.65 0zM0 .972V18.19a.972.972 0 0 0 1.944 0V1.944H18.19a.972.972 0 0 0 0-1.944H.972A.972.972 0 0 0 0 .972zm18.189 67.084H1.944V51.812a.972.972 0 0 0-1.944 0v17.216c0 .537.435.972.972.972H18.19a.972.972 0 0 0 0-1.944zM69.028 50.84a.972.972 0 0 0-.973.972v16.244H51.811a.972.972 0 0 0 0 1.944h17.217a.972.972 0 0 0 .972-.972V51.812a.972.972 0 0 0-.972-.973zm0-50.84H51.81a.972.972 0 0 0 0 1.944h16.244V18.19a.973.973 0 0 0 1.945 0V.972A.972.972 0 0 0 69.028 0z"/></g><defs><clipPath id="aclip0"><path fill="#fff" d="M0 0h70v70H0z"/></clipPath></defs></svg><svg width="70" height="70" fill="none" viewBox="0 0 70 70" id="capability2" y="70" xmlns="http://www.w3.org/2000/svg"><path d="M5.637 53.243h19.77v11.153h-4.328a.93.93 0 0 0 0 1.858h28.657a.93.93 0 1 0 0-1.858h-5.142V53.243h19.77A5.643 5.643 0 0 0 70 47.607V9.353a5.643 5.643 0 0 0-5.636-5.636H5.637A5.643 5.643 0 0 0 0 9.353v38.254a5.643 5.643 0 0 0 5.637 5.636zm37.1 11.153H27.264V53.243h15.471v11.153zM1.857 9.353a3.782 3.782 0 0 1 3.779-3.778h58.727a3.782 3.782 0 0 1 3.778 3.778V42.82a.931.931 0 0 0-.358-.072H2.217a.932.932 0 0 0-.359.072V9.353zm0 35.182a.921.921 0 0 0 .359.072h65.567a.921.921 0 0 0 .358-.072v3.072a3.782 3.782 0 0 1-3.778 3.778H5.637a3.782 3.782 0 0 1-3.779-3.778v-3.072z" fill="#F3A112"/><path d="M6.256 33.745h18.918a11.143 11.143 0 0 0 19.652 0h18.918a1.61 1.61 0 0 0 1.61-1.61v-7.31a1.613 1.613 0 0 0-1.61-1.61H44.826a11.145 11.145 0 0 0-19.652 0H6.256a1.613 1.613 0 0 0-1.61 1.61v7.31a1.61 1.61 0 0 0 1.61 1.61zm39.36-8.672h17.88v6.814h-17.88a11.134 11.134 0 0 0 0-6.814zM35 19.188a9.292 9.292 0 1 1-9.292 9.292A9.303 9.303 0 0 1 35 19.188zM6.504 25.073h17.88a11.136 11.136 0 0 0 0 6.814H6.504v-6.814z" fill="#F3A112"/><path d="M18.483 26.736a1.744 1.744 0 1 0 0 3.488 1.744 1.744 0 0 0 0-3.488zm0 1.858a.114.114 0 1 1 0-.228.114.114 0 0 1 0 .228zm33.034 1.63a1.744 1.744 0 1 0 0-3.488 1.744 1.744 0 0 0 0 3.488zm0-1.858a.114.114 0 1 1 0 .228.114.114 0 0 1 0-.228zm-41.292-1.63a1.744 1.744 0 1 0 0 3.488 1.744 1.744 0 0 0 0-3.488zm0 1.858a.115.115 0 0 1-.115-.114.115.115 0 1 1 .229 0 .115.115 0 0 1-.114.114zm49.55 1.63a1.744 1.744 0 1 0 0-3.488 1.744 1.744 0 0 0 0 3.488zm0-1.858c.063 0 .114.051.114.114a.115.115 0 0 1-.228 0c0-.063.051-.114.114-.114zM33.16 31.88a.93.93 0 0 0 1.314 0l5.485-5.486a.928.928 0 1 0-1.314-1.314l-4.828 4.828-2.462-2.462a.929.929 0 1 0-1.314 1.314l3.12 3.12z" fill="#F3A112"/></svg><svg width="70" height="70" fill="none" viewBox="0 0 70 70" id="capability3" y="140" xmlns="http://www.w3.org/2000/svg"><g clip-path="url(#cclip0)" fill="#F3A112"><path d="M35.067 13.924a6.961 6.961 0 1 0-6.96-6.961 6.969 6.969 0 0 0 6.96 6.96zm0-11.602a4.64 4.64 0 1 1 0 9.28 4.64 4.64 0 0 1 0-9.28zM7.545 13.924a6.961 6.961 0 1 0-6.96-6.961 6.969 6.969 0 0 0 6.96 6.96zm0-11.602a4.64 4.64 0 1 1 0 9.28 4.64 4.64 0 0 1 0-9.28z"/><path d="M69.55 6.963a6.961 6.961 0 1 0-8.121 6.862v14.312a6.977 6.977 0 0 0-5.703 5.703H41.93a6.959 6.959 0 0 0-13.725 0H14.408a6.961 6.961 0 1 0-8.023 8.022v14.313a6.962 6.962 0 1 0 2.32 0V41.862a6.976 6.976 0 0 0 5.703-5.702h13.796a6.96 6.96 0 0 0 13.725 0h13.797a6.96 6.96 0 1 0 8.023-8.023V13.825a6.972 6.972 0 0 0 5.801-6.862zM12.186 63.038a4.641 4.641 0 1 1-4.64-4.64 4.646 4.646 0 0 1 4.64 4.64zM7.546 39.64a4.64 4.64 0 1 1-.001-9.281 4.64 4.64 0 0 1 0 9.28zm27.521 0a4.64 4.64 0 1 1 0-9.281 4.64 4.64 0 0 1 0 9.28zM67.23 35a4.64 4.64 0 1 1-4.641-4.641 4.646 4.646 0 0 1 4.64 4.64zm-4.641-23.398a4.64 4.64 0 1 1 0-9.28 4.64 4.64 0 0 1 0 9.28z"/><path d="M35.067 56.077a6.96 6.96 0 1 0 6.961 6.96 6.969 6.969 0 0 0-6.96-6.96zm0 11.602a4.64 4.64 0 1 1 0-9.281 4.64 4.64 0 0 1 0 9.28zm27.522-11.602a6.96 6.96 0 1 0 6.961 6.96 6.969 6.969 0 0 0-6.961-6.96zm0 11.602a4.64 4.64 0 1 1 0-9.281 4.64 4.64 0 0 1 0 9.28z"/></g><defs><clipPath id="cclip0"><path fill="#fff" d="M0 0h70v70H0z"/></clipPath></defs></svg><svg width="70" height="70" fill="none" viewBox="0 0 70 70" id="capability4" y="210" xmlns="http://www.w3.org/2000/svg"><path d="M35 0c-9.447.01-17.104 7.667-17.114 17.114v15.769a22.411 22.411 0 0 0-5.397 14.606C12.489 59.902 22.589 70 35 70c12.412 0 22.511-10.099 22.511-22.511a22.41 22.41 0 0 0-5.396-14.606V17.114C52.104 7.668 44.447.011 35 0zm0 1.85c8.427.01 15.255 6.838 15.264 15.264V30.96a22.613 22.613 0 0 0-2.775-2.189V17.114c0-6.897-5.592-12.488-12.489-12.488-6.897 0-12.489 5.591-12.489 12.488V28.77a22.728 22.728 0 0 0-2.775 2.19V17.114C19.746 8.688 26.573 1.86 35 1.85zm10.639 25.805a22.476 22.476 0 0 0-21.278 0v-10.54c0-5.876 4.763-10.64 10.639-10.64 5.876 0 10.639 4.764 10.639 10.64v10.54zM35 68.15c-11.392 0-20.66-9.269-20.66-20.661 0-11.392 9.268-20.66 20.66-20.66s20.66 9.268 20.66 20.66-9.268 20.66-20.66 20.66z" fill="#F3A112"/><path d="M38.196 63.022a15.965 15.965 0 0 1-3.196.322.925.925 0 0 0 0 1.85c1.198 0 2.393-.12 3.567-.36a.925.925 0 1 0-.37-1.812zm3.122-.987a.923.923 0 0 0-.196 1.606c.272.197.63.232.934.09A17.707 17.707 0 0 0 52.705 47.49a.925.925 0 1 0-1.85 0 15.859 15.859 0 0 1-9.537 14.547zM31.952 31.91a.926.926 0 0 0 .168-.015c.95-.174 1.915-.261 2.88-.26a.925.925 0 0 0 0-1.85c-1.078 0-2.153.096-3.213.29a.925.925 0 0 0 .165 1.835zm-2.632-.242a.925.925 0 0 0-1.212-.492 17.68 17.68 0 0 0-10.813 16.313.925.925 0 1 0 1.85 0A15.833 15.833 0 0 1 28.83 32.88a.925.925 0 0 0 .491-1.212zm12.502 11.236a.925.925 0 0 0-1.309 0l-7.208 7.208-3.818-3.818a.924.924 0 1 0-1.308 1.308l4.472 4.472a.925.925 0 0 0 1.308 0l7.862-7.862a.925.925 0 0 0 0-1.308z" fill="#F3A112"/></svg><svg width="70" height="70" fill="none" viewBox="0 0 70 70" id="capability5" y="280" xmlns="http://www.w3.org/2000/svg"><path d="M13.136 20.791a13.504 13.504 0 0 0 4.36 9.922 8.064 8.064 0 0 1 2.579 5.935v6.298a2.798 2.798 0 0 0 2.794 2.794h2.882v19.89a3.693 3.693 0 0 0 7.385 0v-5.36a1.878 1.878 0 0 1 3.755 0V62a7.965 7.965 0 1 0 15.93 0v-6.824a19.952 19.952 0 0 0 4.558-2.379c3.568-2.522 5.454-5.877 5.454-9.702v-5.808a.853.853 0 0 0-.517-.784l-.065-.03a47.71 47.71 0 0 1-9.77-5.656.854.854 0 0 0-1.025 0 47.76 47.76 0 0 1-9.77 5.657l-.066.028a.853.853 0 0 0-.517.784v5.808c0 3.82 1.821 7.171 5.268 9.694a18.993 18.993 0 0 0 4.743 2.505V62a6.258 6.258 0 1 1-12.516 0v-1.729a3.585 3.585 0 0 0-7.17 0v5.358a1.985 1.985 0 1 1-3.97 0V45.74h2.884a2.797 2.797 0 0 0 2.794-2.794v-6.307a8.238 8.238 0 0 1 2.65-5.992 13.469 13.469 0 1 0-22.65-9.856zm31.68 28.168a.865.865 0 0 0 .048-.281v-.612a.854.854 0 0 0-1.114-.813 9.36 9.36 0 0 1-.94-4.157v-5.248a49.48 49.48 0 0 0 9.158-5.285 49.482 49.482 0 0 0 9.158 5.285v5.248a9.077 9.077 0 0 1-.97 4.147.851.851 0 0 0-1.083.822v.612a.9.9 0 0 0 .027.212 12.878 12.878 0 0 1-2.667 2.487 18.314 18.314 0 0 1-4.634 2.348 17.4 17.4 0 0 1-4.459-2.342c-.95-.687-1.8-1.503-2.525-2.423zM30.34 44.033h-7.47a1.088 1.088 0 0 1-1.086-1.069h6.422a.854.854 0 1 0 0-1.707h-6.423V40.19h1.377a.854.854 0 0 0 0-1.708h-1.377v-.98h9.647v.98h-6.26a.854.854 0 0 0 0 1.707h6.26v1.069h-1.215a.853.853 0 1 0 0 1.707h1.213a1.088 1.088 0 0 1-1.085 1.068zm-3.275-15.52a1.28 1.28 0 1 1 0-2.56 1.28 1.28 0 0 1 0 2.56zm-.46-19.483h.11a11.76 11.76 0 0 1 7.906 20.367 9.992 9.992 0 0 0-3.151 6.397h-3.55v-5.388a.859.859 0 0 0-.055-.297 2.987 2.987 0 1 0-1.598 0 .847.847 0 0 0-.054.297v5.388h-4.47a9.751 9.751 0 0 0-3.092-6.339A11.762 11.762 0 0 1 26.605 9.03zm1.315-4.295V.854a.854.854 0 0 0-1.707 0v3.88a.853.853 0 1 0 1.707 0z" fill="#F3A112"/><path d="M40.366 19.35c0 .471.382.853.854.853h3.88a.853.853 0 1 0 0-1.707h-3.88a.854.854 0 0 0-.854.854zm-27.521 0a.854.854 0 0 0-.854-.854H8.11a.854.854 0 0 0 0 1.707h3.882a.854.854 0 0 0 .854-.853zM39.65 5.1l-3.03 3.028a.853.853 0 1 0 1.207 1.207l3.03-3.029a.855.855 0 0 0-.379-1.437.853.853 0 0 0-.829.23zm-26.088 0a.853.853 0 0 0-1.207 1.207l3.028 3.029a.853.853 0 0 0 1.208-1.208L13.56 5.1zm39.259 43.578v-.612a.853.853 0 1 0-1.707 0v.612a.854.854 0 0 0 1.707 0zm1.8.854a.854.854 0 0 0 .854-.854v-.612a.854.854 0 1 0-1.708 0v.612c0 .471.382.854.854.854zm2.653 0a.854.854 0 0 0 .853-.854v-.612a.854.854 0 1 0-1.707 0v.612c0 .471.382.854.854.854zm-7.959-2.321a.854.854 0 0 0-.854.854v.612a.854.854 0 0 0 1.708 0v-.612a.854.854 0 0 0-.854-.854zm-2.653 0a.854.854 0 0 0-.853.854v.612a.854.854 0 1 0 1.707 0v-.612a.854.854 0 0 0-.854-.854z" fill="#F3A112"/></svg><svg width="70" height="70" fill="none" viewBox="0 0 70 70" id="capability6" y="350" xmlns="http://www.w3.org/2000/svg"><g clip-path="url(#fclip0)" fill="#F3A112"><path d="M65.394 30.391a4.618 4.618 0 0 0-4.537 3.79h-6.659a19.14 19.14 0 0 0-5.088-12.177l4.724-4.723a4.601 4.601 0 1 0-1.19-1.225l-4.746 4.746a19.138 19.138 0 0 0-12.181-4.965V9.172a4.613 4.613 0 1 0-1.707-.055v6.732a19.142 19.142 0 0 0-12.022 5.073l-4.719-4.72a4.607 4.607 0 1 0-1.234 1.181l4.75 4.75a19.14 19.14 0 0 0-4.973 12.192h-6.63a4.613 4.613 0 1 0-.067 1.707h6.707a19.14 19.14 0 0 0 5.052 11.999l-4.692 4.692a4.602 4.602 0 1 0 1.189 1.225l4.713-4.712a19.136 19.136 0 0 0 12.07 4.988v6.634a4.611 4.611 0 1 0 1.707 0v-6.634a19.137 19.137 0 0 0 12.152-5.066l4.696 4.696a4.601 4.601 0 1 0 1.217-1.197l-4.709-4.71a19.138 19.138 0 0 0 4.981-12.06h6.67a4.611 4.611 0 1 0 4.526-5.496zM54.44 11.462a2.904 2.904 0 1 1 4.106 4.109 2.904 2.904 0 0 1-4.106-4.109zM32.103 4.616a2.904 2.904 0 1 1 5.808 0 2.904 2.904 0 0 1-5.808 0zM11.467 15.568a2.904 2.904 0 1 1 4.107-4.105 2.904 2.904 0 0 1-4.107 4.105zM4.621 37.906a2.904 2.904 0 1 1 0-5.809 2.904 2.904 0 0 1 0 5.81zm10.953 20.636a2.907 2.907 0 1 1-.092-4.19.816.816 0 0 0 .259.267 2.902 2.902 0 0 1-.167 3.923zm22.337 6.846a2.904 2.904 0 1 1-3.091-2.894c.123.028.25.028.373 0a2.906 2.906 0 0 1 2.718 2.894zm20.636-10.952a2.903 2.903 0 1 1-4.104 4.106 2.903 2.903 0 0 1 4.104-4.106zm-23.54-1.9c-9.667 0-17.503-7.836-17.503-17.502 0-9.667 7.836-17.504 17.503-17.504s17.504 7.837 17.504 17.504c-.011 9.662-7.841 17.492-17.504 17.503zm30.387-14.63a2.904 2.904 0 1 1 0-5.809 2.904 2.904 0 0 1 0 5.81z"/><path d="M34.495 19.535a61.31 61.31 0 0 1-12.544 7.264l-.084.036a.853.853 0 0 0-.517.784v7.428c0 4.805 2.296 9.026 6.64 12.206a23.436 23.436 0 0 0 6.556 3.353.85.85 0 0 0 .471.002 24.544 24.544 0 0 0 6.774-3.346c4.497-3.18 6.874-7.404 6.874-12.215v-7.428a.853.853 0 0 0-.517-.784l-.083-.036a61.291 61.291 0 0 1-12.545-7.264.854.854 0 0 0-1.025 0zm12.463 15.512c0 3.218-1.164 6.07-3.466 8.511a.853.853 0 0 0-1.704.064v.783a.85.85 0 0 0 .204.553c-.363.3-.746.594-1.147.88a23.627 23.627 0 0 1-6.056 3.052A22.353 22.353 0 0 1 29 45.874a18.08 18.08 0 0 1-1.058-.833.85.85 0 0 0 .287-.636v-.783a.853.853 0 1 0-1.707 0v.069c-2.3-2.47-3.464-5.366-3.464-8.644v-6.868a63.019 63.019 0 0 0 11.95-6.898 63.035 63.035 0 0 0 11.95 6.898v6.868z"/><path d="M35.007 42.769a.853.853 0 0 0-.853.853v.783a.854.854 0 0 0 1.707 0v-.783a.853.853 0 0 0-.854-.853zm2.545 0a.853.853 0 0 0-.854.853v.783a.854.854 0 0 0 1.707 0v-.783a.853.853 0 0 0-.853-.853zm1.691.853v.783a.854.854 0 0 0 1.707 0v-.783a.853.853 0 1 0-1.707 0zm-6.781-.853a.853.853 0 0 0-.853.853v.783a.854.854 0 0 0 1.707 0v-.783a.853.853 0 0 0-.854-.853zm-2.544 0a.853.853 0 0 0-.854.853v.783a.854.854 0 0 0 1.707 0v-.783a.853.853 0 0 0-.853-.853zm1.695-8.721a.854.854 0 1 0-1.207 1.207l2.9 2.898a.853.853 0 0 0 1.206 0l5.097-5.096a.854.854 0 0 0-1.207-1.207l-4.493 4.493-2.296-2.295z"/></g><defs><clipPath id="fclip0"><path fill="#fff" d="M0 0h70v70H0z"/></clipPath></defs></svg><svg width="120" height="120" fill="none" viewBox="0 0 120 120" id="company" y="420" xmlns="http://www.w3.org/2000/svg"><g clip-path="url(#gclip0)" fill="#F3A112"><path d="M50.69 43.35v3.895a9.307 9.307 0 1 0 18.615 0V43.35a9.306 9.306 0 0 0-13.976-8.1 9.304 9.304 0 0 0-4.64 8.1zm3.038 0a6.268 6.268 0 1 1 12.538 0v3.895a6.267 6.267 0 0 1-9.415 5.462 6.267 6.267 0 0 1-3.123-5.462V43.35z"/><path d="M66.326 56.452c-.794-.047-1.212.46-1.516.832a6.026 6.026 0 0 1-9.509-.232 1.543 1.543 0 0 0-1.26-.615 10.257 10.257 0 0 0-7.333 3.386 9.114 9.114 0 0 0-3.958-1.186c-.8-.058-1.22.456-1.5.796a5.084 5.084 0 0 1-8.024-.196 1.537 1.537 0 0 0-1.26-.615 9.247 9.247 0 0 0-8.958 9.187v7.671c0 .84.68 1.52 1.52 1.52h19.49v2.374c0 .839.68 1.52 1.52 1.52h28.92a1.52 1.52 0 0 0 1.519-1.52v-2.375h19.458c.84 0 1.52-.68 1.52-1.52v-7.67a9.197 9.197 0 0 0-8.61-9.173c-.802-.058-1.221.456-1.5.796a5.082 5.082 0 0 1-8.024-.196 1.544 1.544 0 0 0-1.26-.615 9.108 9.108 0 0 0-4.273 1.173 10.24 10.24 0 0 0-6.962-3.342zm-40.28 17.509v-6.152a6.197 6.197 0 0 1 5.292-6.091 8.125 8.125 0 0 0 11.918.035c.61.11 1.2.311 1.75.6a10.127 10.127 0 0 0-.988 4.364v7.243H26.047zm46.891 3.893h-25.88V66.717a7.297 7.297 0 0 1 6.346-7.19 9.066 9.066 0 0 0 13.451.038 7.255 7.255 0 0 1 6.083 7.152v11.137zm3.995-16.138a8.126 8.126 0 0 0 11.919.037 6.16 6.16 0 0 1 5.065 6.056v6.15h-17.94v-7.242a10.232 10.232 0 0 0-.985-4.386 6.042 6.042 0 0 1 1.94-.615z"/><path d="M82.779 59.103a8.348 8.348 0 0 0 8.337-8.338v-3.409a8.337 8.337 0 0 0-16.674 0v3.41a8.346 8.346 0 0 0 8.337 8.337zm-5.298-11.747a5.298 5.298 0 0 1 10.595 0v3.41a5.298 5.298 0 1 1-10.595 0v-3.41zM37.184 59.103a8.347 8.347 0 0 0 8.338-8.338v-3.409a8.337 8.337 0 0 0-16.675 0v3.41a8.347 8.347 0 0 0 8.337 8.337zm-5.298-11.747a5.298 5.298 0 0 1 10.596 0v3.41a5.298 5.298 0 1 1-10.596 0v-3.41z"/><path d="M103.857 88.567a51.67 51.67 0 0 0 8.292-28.388V30.796c0-.607-.361-1.156-.92-1.395l-.331-.143A244.349 244.349 0 0 1 60.893.304a1.521 1.521 0 0 0-1.823 0A244.327 244.327 0 0 1 9.065 29.257l-.332.144a1.52 1.52 0 0 0-.92 1.396v29.382c0 10.266 2.694 19.81 8.005 28.367 4.232 6.817 10.12 13.012 17.502 18.415 12.514 9.16 24.838 12.827 25.356 12.979.274.08.565.081.84.004.536-.152 13.282-3.815 26.228-12.967 7.64-5.401 13.733-11.595 18.113-18.41zM84.06 104.446c-11.24 7.964-22.64 11.732-24.95 12.446-2.256-.723-13.238-4.49-24.067-12.435-7.049-5.171-12.656-11.079-16.67-17.556-4.99-8.059-7.521-17.049-7.521-26.722V31.797a247.389 247.389 0 0 0 49.13-28.38 247.422 247.422 0 0 0 49.128 28.38v28.382a48.68 48.68 0 0 1-7.783 26.703c-4.156 6.481-9.965 12.39-17.267 17.564z"/><path d="M104.313 35.315a1.52 1.52 0 0 0-.919-1.396l-.281-.12a206.295 206.295 0 0 1-42.22-24.447 1.518 1.518 0 0 0-1.823 0 206.349 206.349 0 0 1-42.22 24.446l-.28.12a1.52 1.52 0 0 0-.92 1.397v24.837c0 8.722 2.289 16.832 6.802 24.103 3.593 5.787 8.59 11.047 14.855 15.632 10.61 7.766 21.066 10.876 21.505 11.005.274.08.565.082.84.004.456-.129 11.266-3.236 22.242-10.995 6.482-4.584 11.654-9.84 15.371-15.625a43.918 43.918 0 0 0 7.048-24.124V35.315zm-3.039 24.836a40.92 40.92 0 0 1-6.538 22.437 46.22 46.22 0 0 1-3.037 4.187v-.19a1.52 1.52 0 1 0-3.039 0v3.097c0 .148.022.296.064.438a60.786 60.786 0 0 1-8.514 7.247 79.938 79.938 0 0 1-20.963 10.476A76.064 76.064 0 0 1 39.03 97.379a59.56 59.56 0 0 1-7.931-6.936c.134-.231.205-.494.205-.761v-3.097a1.52 1.52 0 0 0-3.038 0v.615a46.324 46.324 0 0 1-3.258-4.593c-4.192-6.77-6.318-14.325-6.318-22.455V36.315a209.329 209.329 0 0 0 41.29-23.852 209.32 209.32 0 0 0 41.293 23.852V60.15z"/><path d="M59.981 85.066c-.839 0-1.52.68-1.52 1.52v3.097a1.52 1.52 0 0 0 3.04 0v-3.098c0-.838-.68-1.52-1.52-1.52zm10.067 0c-.84 0-1.52.68-1.52 1.52v3.097a1.52 1.52 0 1 0 3.04 0v-3.098c0-.838-.681-1.52-1.52-1.52zm10.066 0c-.839 0-1.52.68-1.52 1.52v3.097a1.52 1.52 0 0 0 3.04 0v-3.098c0-.838-.681-1.52-1.52-1.52zm-30.198 0c-.84 0-1.52.68-1.52 1.52v3.097a1.52 1.52 0 1 0 3.04 0v-3.098c0-.838-.681-1.52-1.52-1.52zm-10.068 0a1.52 1.52 0 0 0-1.519 1.52v3.097a1.52 1.52 0 0 0 3.039 0v-3.098c0-.838-.68-1.52-1.52-1.52z"/></g><defs><clipPath id="gclip0"><path fill="#fff" d="M0 0h120v120H0z"/></clipPath></defs></svg><svg width="24" height="24" fill="none" viewBox="0 0 24 24" id="icon-blog-phone" y="540" xmlns="http://www.w3.org/2000/svg"><path d="M20.53 10.071c.029-3.383-2.853-6.485-6.424-6.914-.071-.009-.149-.022-.23-.035a3.34 3.34 0 0 0-.545-.06c-.732 0-.927.515-.979.821-.05.298-.002.549.142.745.242.33.669.388 1.011.435.1.014.196.026.275.044 3.208.717 4.289 1.844 4.817 5.026.013.077.018.173.025.275.023.38.07 1.171.921 1.171.071 0 .147-.006.227-.018.792-.12.767-.844.755-1.191a1.754 1.754 0 0 1 .005-.299z" fill="#fff"/><path d="M13.123 1.915c.096.006.186.013.26.025 5.27.81 7.692 3.306 8.364 8.616.011.09.013.2.015.317.006.415.02 1.278.947 1.296h.029c.29 0 .522-.088.687-.26.289-.303.268-.75.252-1.111-.004-.088-.008-.172-.006-.245C23.738 5.123 19.037.198 13.61.015c-.023 0-.044 0-.066.003a.453.453 0 0 1-.064.004c-.054 0-.12-.005-.191-.01C13.204.008 13.108 0 13.01 0c-.865 0-1.029.614-1.05.98-.048.846.77.906 1.163.935zm8.37 15.504a16.743 16.743 0 0 1-.337-.262 32.159 32.159 0 0 0-1.779-1.302l-.368-.257c-.758-.533-1.44-.791-2.084-.791-.867 0-1.623.479-2.247 1.424-.277.419-.612.623-1.026.623-.244 0-.522-.07-.825-.208-2.447-1.11-4.195-2.811-5.194-5.057-.483-1.085-.327-1.795.523-2.373.483-.327 1.382-.937 1.318-2.105-.072-1.327-2.999-5.318-4.232-5.771-.522-.192-1.07-.194-1.633-.005C2.19 1.812 1.174 2.65.666 3.755.176 4.825.198 6.08.731 7.386c1.538 3.777 3.7 7.07 6.428 9.786 2.67 2.66 5.95 4.839 9.752 6.476.342.147.702.227.964.286.09.02.167.037.223.053a.382.382 0 0 0 .095.013h.03c1.788 0 3.935-1.634 4.594-3.496.578-1.631-.477-2.437-1.324-3.085zM13.915 6.228c-.307.008-.944.024-1.167.673-.105.303-.092.566.037.782.19.317.553.414.884.468 1.2.192 1.815.855 1.939 2.087.057.574.444.975.94.975a.914.914 0 0 0 .111-.007c.597-.071.887-.51.86-1.304.01-.828-.423-1.769-1.16-2.518-.741-.752-1.633-1.175-2.445-1.156z" fill="#fff"/></svg><svg width="30" height="28" fill="none" viewBox="0 0 30 28" id="icon-blog-telegram" y="564" xmlns="http://www.w3.org/2000/svg"><path d="M.53 13.464l6.912 2.58 2.676 8.605a.814.814 0 0 0 1.293.39l3.853-3.142a1.15 1.15 0 0 1 1.401-.039l6.95 5.046a.815.815 0 0 0 1.276-.493l5.091-24.489a.815.815 0 0 0-1.09-.926L.521 11.94c-.7.27-.694 1.261.008 1.524zm9.157 1.207l13.51-8.32c.242-.15.492.179.284.372L12.33 17.087a2.311 2.311 0 0 0-.716 1.383l-.38 2.815c-.05.375-.578.413-.682.049L9.093 16.2a1.36 1.36 0 0 1 .594-1.53z" fill="#fff"/></svg><svg width="30" height="30" fill="none" viewBox="0 0 30 30" id="icon-blog-viber" y="592" xmlns="http://www.w3.org/2000/svg"><path d="M15.004 0h-.008C6.726 0 0 6.728 0 15a14.89 14.89 0 0 0 2.856 8.792l-1.87 5.572 5.766-1.843A14.87 14.87 0 0 0 15.004 30C23.274 30 30 23.27 30 15S23.274 0 15.004 0zm8.728 21.182c-.362 1.022-1.798 1.87-2.944 2.117-.784.167-1.807.3-5.254-1.129-4.408-1.826-7.247-6.306-7.468-6.596-.212-.29-1.781-2.372-1.781-4.525 0-2.152 1.093-3.2 1.534-3.65.362-.37.96-.538 1.533-.538.186 0 .353.009.503.017.44.018.662.045.952.74.362.872 1.244 3.024 1.349 3.246.106.221.213.521.063.812-.14.3-.264.433-.485.688-.222.255-.431.45-.653.723-.202.239-.431.494-.176.934.255.431 1.136 1.87 2.434 3.025 1.674 1.49 3.032 1.966 3.517 2.169.362.15.793.114 1.058-.167.335-.362.75-.962 1.172-1.552.3-.424.678-.477 1.076-.327.405.141 2.548 1.2 2.989 1.42.44.221.73.326.838.512.105.185.105 1.057-.257 2.08z" fill="#fff"/></svg><svg width="30" height="18" fill="none" viewBox="0 0 30 18" id="icon-blog-vk" y="622" xmlns="http://www.w3.org/2000/svg"><path d="M29.841 15.9a2.054 2.054 0 0 0-.102-.195c-.52-.938-1.515-2.088-2.983-3.453l-.031-.03-.016-.016-.015-.016h-.016c-.666-.635-1.088-1.062-1.265-1.28-.323-.418-.396-.84-.22-1.266.126-.323.595-1.005 1.407-2.046.427-.552.765-.995 1.015-1.328 1.801-2.395 2.583-3.926 2.343-4.592l-.093-.156c-.063-.094-.224-.18-.484-.258-.26-.078-.594-.09-1-.039l-4.498.031a.597.597 0 0 0-.313.008l-.203.047-.078.04-.063.046a.693.693 0 0 0-.171.164c-.063.078-.115.17-.156.274a25.491 25.491 0 0 1-1.672 3.514 33.65 33.65 0 0 1-1.062 1.68c-.323.473-.594.822-.812 1.046a5.658 5.658 0 0 1-.594.538c-.177.136-.312.193-.406.172a7.661 7.661 0 0 1-.266-.062 1.038 1.038 0 0 1-.35-.383 1.714 1.714 0 0 1-.18-.61 6.757 6.757 0 0 1-.055-.632 12.71 12.71 0 0 1 .008-.75c.01-.323.015-.541.015-.656 0-.395.008-.825.024-1.288.015-.464.028-.83.039-1.101.01-.271.015-.558.015-.86 0-.302-.018-.538-.054-.71a2.432 2.432 0 0 0-.164-.5.843.843 0 0 0-.32-.375 1.805 1.805 0 0 0-.523-.21c-.552-.126-1.255-.193-2.11-.204-1.936-.02-3.18.104-3.732.375-.219.115-.417.27-.594.469-.187.229-.213.354-.078.374.625.094 1.067.318 1.327.672l.094.187c.073.136.146.375.22.719.072.344.119.724.14 1.14.052.76.052 1.411 0 1.952-.052.542-.102.964-.149 1.266a2.53 2.53 0 0 1-.21.734 3.094 3.094 0 0 1-.188.343.268.268 0 0 1-.078.078 1.17 1.17 0 0 1-.422.079c-.146 0-.323-.073-.531-.22a3.746 3.746 0 0 1-.648-.6 8.038 8.038 0 0 1-.758-1.07c-.28-.459-.573-1-.874-1.625l-.25-.453c-.157-.291-.37-.716-.64-1.273a24.332 24.332 0 0 1-.72-1.617 1.03 1.03 0 0 0-.374-.5l-.078-.046a1.069 1.069 0 0 0-.25-.133 1.658 1.658 0 0 0-.36-.102L1 1.225c-.436 0-.733.099-.89.296l-.062.094a.505.505 0 0 0-.047.25c0 .115.031.255.094.422a51.543 51.543 0 0 0 2.038 4.248C2.866 7.9 3.504 8.998 4.045 9.831c.542.833 1.094 1.62 1.656 2.359.562.739.935 1.213 1.117 1.42.182.21.325.365.43.47l.39.374c.25.25.617.55 1.101.898.485.35 1.02.693 1.61 1.032a8.724 8.724 0 0 0 2.053.827c.781.214 1.541.3 2.28.258h1.797c.364-.031.64-.146.828-.344l.062-.078c.042-.062.08-.159.117-.288.037-.13.055-.274.055-.43-.01-.448.023-.851.101-1.21.078-.36.167-.63.266-.813a2.017 2.017 0 0 1 .602-.687 1 1 0 0 1 .124-.054c.25-.084.544-.003.883.242.338.245.656.547.953.906.297.36.653.763 1.07 1.21.416.448.78.781 1.093 1l.312.187c.209.125.48.24.813.344.332.104.624.13.874.078l3.999-.062c.395 0 .703-.066.921-.196.219-.13.349-.273.39-.43a1.21 1.21 0 0 0 .009-.53 1.96 1.96 0 0 0-.11-.414z" fill="#fff"/></svg><svg width="35" height="35" fill="none" viewBox="0 0 35 35" id="icon-facebook" y="640" xmlns="http://www.w3.org/2000/svg"><g clip-path="url(#lclip0)" fill="#F3A112"><path d="M22.256 7.607h3.19a1.24 1.24 0 0 0 1.239-1.239V1.243a1.24 1.24 0 0 0-1.24-1.239h-4.379A5.19 5.19 0 0 0 20.85 0c-.826 0-3.7.163-5.98 2.26-2.488 2.29-2.25 5.029-2.145 5.704v3.338h-3.17a1.24 1.24 0 0 0-1.239 1.24v5.511c0 .684.556 1.24 1.24 1.24h2.986V33.76c0 .683.556 1.24 1.239 1.24h6.246a1.24 1.24 0 0 0 1.24-1.24V19.364h3.537c.63 0 1.159-.472 1.23-1.097l.644-5.583a1.24 1.24 0 0 0-1.231-1.381h-4.18V8.5c0-.58.157-.893.99-.893zm-1.688 5.09h4.704l-.608 5.273h-4.096a.697.697 0 0 0-.697.697v14.939h-5.936v-15.01a.697.697 0 0 0-.697-.698H9.709v-5.201h3.712A.697.697 0 0 0 14.12 12V7.907a.81.81 0 0 0-.01-.12c-.074-.421-.337-2.622 1.705-4.5 1.908-1.756 4.337-1.893 5.035-1.893a3.573 3.573 0 0 1 .202.004h4.24v4.815h-3.034c-1.494 0-2.386.855-2.386 2.287V12c0 .385.312.697.697.697z"/><path d="M15.339 23.496a.697.697 0 0 0-.697.697v.349a.697.697 0 0 0 1.394 0v-.349a.697.697 0 0 0-.697-.697zm0 2.579a.697.697 0 0 0-.697.697v5.3a.697.697 0 0 0 1.394 0v-5.3a.697.697 0 0 0-.697-.697z"/></g><defs><clipPath id="lclip0"><path fill="#fff" d="M0 0h35v35H0z"/></clipPath></defs></svg><svg width="35" height="35" fill="none" viewBox="0 0 35 35" id="icon-instagram" y="675" xmlns="http://www.w3.org/2000/svg"><path d="M24.562 0H10.438C4.706 0 .044 4.663.044 10.394v14.212C.044 30.337 4.706 35 10.438 35h14.124c5.732 0 10.394-4.663 10.394-10.394V10.394C34.956 4.663 30.293 0 24.562 0zm9 24.606c0 4.962-4.037 9-9 9H10.438c-4.963 0-9-4.038-9-9V10.394c0-4.962 4.037-9 9-9h14.124c4.963 0 9 4.038 9 9v14.212z" fill="#F3A112"/><path d="M24.562 3.985H10.438a6.416 6.416 0 0 0-6.41 6.41v14.212a6.416 6.416 0 0 0 6.41 6.409h14.124a6.416 6.416 0 0 0 6.41-6.41V10.395a6.416 6.416 0 0 0-6.41-6.409zm5.015 20.621a5.02 5.02 0 0 1-5.015 5.015H10.438a5.02 5.02 0 0 1-5.015-5.015V10.394a5.02 5.02 0 0 1 5.015-5.014h14.124a5.02 5.02 0 0 1 5.015 5.014v14.212z" fill="#F3A112"/><path d="M17.5 8.49c-4.969 0-9.011 4.042-9.011 9.01 0 4.97 4.042 9.012 9.011 9.012 4.969 0 9.011-4.043 9.011-9.012 0-4.968-4.042-9.01-9.01-9.01zm0 16.627c-4.2 0-7.617-3.417-7.617-7.617S13.3 9.884 17.5 9.884s7.617 3.417 7.617 7.616c0 4.2-3.417 7.617-7.617 7.617z" fill="#F3A112"/><path d="M17.5 12.376a5.13 5.13 0 0 0-5.124 5.124 5.13 5.13 0 0 0 5.124 5.124 5.13 5.13 0 0 0 5.124-5.124 5.13 5.13 0 0 0-5.124-5.124zm0 8.854a3.734 3.734 0 0 1-3.73-3.73 3.734 3.734 0 0 1 3.73-3.73 3.734 3.734 0 0 1 3.73 3.73 3.734 3.734 0 0 1-3.73 3.73zm8.51-14.405a2.168 2.168 0 0 0-2.165 2.165c0 1.194.97 2.165 2.165 2.165a2.168 2.168 0 0 0 2.165-2.165 2.168 2.168 0 0 0-2.165-2.165zm0 2.936a.771.771 0 1 1 .001-1.543.771.771 0 0 1-.001 1.543zm-9.626 21.892H9.831a.697.697 0 1 0 0 1.395h6.553a.697.697 0 1 0 0-1.395zm2.65 0h-.419a.697.697 0 0 0 0 1.395h.419a.697.697 0 0 0 0-1.395z" fill="#F3A112"/></svg><svg width="87" height="66" fill="none" viewBox="0 0 87 66" id="icon-quote" y="710" xmlns="http://www.w3.org/2000/svg"><path d="M34.688 22.088C34.688 8.264 26.048.2 16.544.2 7.904.2 1.28 7.4 1.28 15.752c0 8.64 5.76 14.688 13.824 14.688 1.44 0 3.456-.288 4.032-.576C17.984 39.368 9.632 50.6.416 56.648l10.656 8.928c13.248-9.504 23.616-25.92 23.616-43.488zm51.975 0C86.663 8.264 78.023.2 68.519.2c-8.64 0-15.264 7.2-15.264 15.552 0 8.64 5.76 14.688 13.824 14.688 1.44 0 3.456-.288 4.032-.576-1.152 9.504-9.504 20.736-18.72 26.784l10.656 8.928c13.248-9.504 23.616-25.92 23.616-43.488z" fill="#F67C26"/></svg><svg width="35" height="35" fill="none" viewBox="0 0 35 35" id="icon-vk" y="776" xmlns="http://www.w3.org/2000/svg"><g clip-path="url(#oclip0)" fill="#F3A112"><path d="M33.445 22.947c-.761-.913-1.622-1.727-2.453-2.515a77.854 77.854 0 0 1-.886-.848c-.392-.382-.584-.653-.604-.854-.02-.197.115-.489.424-.92.463-.65.956-1.3 1.433-1.93.424-.559.863-1.137 1.283-1.718l.095-.13c.82-1.136 1.667-2.31 2.122-3.74.13-.41.264-1.016-.06-1.549-.326-.533-.929-.69-1.353-.763a3.412 3.412 0 0 0-.588-.038l-5.319-.005c-.92-.015-1.557.42-1.905 1.296a30.623 30.623 0 0 1-.988 2.277c-.728 1.484-1.653 3.193-2.995 4.617l-.06.063c-.09.097-.24.257-.317.293-.145-.09-.313-.613-.305-.887v-.02l-.005-6.146a.712.712 0 0 0-.006-.093c-.12-.877-.352-1.756-1.74-2.03a.694.694 0 0 0-.134-.013H13.55c-1.041 0-1.592.477-2.033.993-.128.151-.467.551-.294 1.04.175.495.696.594.867.626.603.115.915.455 1.012 1.107.19 1.266.214 2.62.073 4.26-.039.44-.112.774-.23 1.052a.802.802 0 0 1-.08.153.816.816 0 0 1-.15-.084c-.424-.29-.743-.74-1.052-1.177-1.234-1.741-2.271-3.664-3.172-5.88-.371-.908-1.069-1.415-1.963-1.428-1.704-.029-3.28-.028-4.817.002-.725.012-1.233.24-1.51.678-.279.438-.269.997.03 1.661C2.364 15.039 4.3 18.489 6.51 21.483c1.556 2.107 3.122 3.57 4.928 4.604 1.898 1.086 4.039 1.618 6.522 1.618.283 0 .57-.007.861-.02 1.532-.07 2.156-.68 2.224-2.172.038-.79.126-1.428.43-1.983.085-.155.181-.26.257-.279.08-.02.224.03.382.133.29.188.54.444.746.668.209.228.419.464.623.692.433.485.882.987 1.352 1.465 1.062 1.083 2.287 1.58 3.642 1.476l4.867.002.047-.001a1.639 1.639 0 0 0 1.332-.853c.343-.608.338-1.378-.014-2.06-.368-.71-.845-1.321-1.264-1.826zm.064 3.2c-.068.12-.15.14-.193.146l-4.867-.002c-.02 0-.039 0-.058.002-.958.08-1.773-.257-2.561-1.06a42.537 42.537 0 0 1-1.308-1.418c-.206-.23-.419-.47-.633-.704-.265-.29-.594-.623-1.015-.897-.632-.41-1.155-.397-1.482-.314-.325.081-.786.314-1.14.96-.458.835-.559 1.736-.6 2.588-.024.52-.112.658-.149.693-.048.045-.209.126-.746.15-2.583.122-4.75-.34-6.626-1.414-1.633-.934-3.062-2.276-4.499-4.222-2.148-2.911-4.038-6.282-6.128-10.93a1.183 1.183 0 0 1-.106-.33 1.19 1.19 0 0 1 .34-.043c1.52-.03 3.08-.03 4.769-.002.231.003.494.073.694.56.941 2.316 2.029 4.33 3.325 6.16.344.486.773 1.09 1.402 1.521.577.395 1.045.376 1.336.291.29-.085.695-.323.967-.967.176-.415.282-.883.335-1.474.15-1.754.123-3.212-.084-4.587-.146-.985-.655-1.697-1.456-2.06.142-.075.302-.106.525-.106h5.46c.308.07.369.15.39.178.088.118.138.396.17.613l.004 6.09c-.012.583.271 1.878 1.237 2.233a.675.675 0 0 0 .024.008c.88.287 1.461-.333 1.774-.667l.055-.06c1.47-1.559 2.46-3.381 3.232-4.956.403-.813.744-1.654 1.033-2.379.144-.364.276-.423.59-.417h.012l5.326.005c.123 0 .253.001.353.019.254.043.358.095.393.117.003.04.002.157-.074.4-.386 1.216-1.133 2.249-1.923 3.343l-.095.13c-.41.569-.844 1.14-1.263 1.693A82.03 82.03 0 0 0 28.792 17c-1.013 1.413-.924 2.35.34 3.583.299.292.605.582.901.862.84.795 1.633 1.547 2.34 2.395.371.446.791.983 1.097 1.574.16.31.12.589.039.734z"/><path d="M5.085 11.597a73.91 73.91 0 0 1-.305-.61.697.697 0 0 0-1.25.618l.31.62a.697.697 0 1 0 1.245-.628zm4.373 7.233c-1.143-1.55-2.213-3.232-3.27-5.144a.697.697 0 0 0-1.22.675c1.086 1.965 2.188 3.698 3.368 5.297a.696.696 0 1 0 1.122-.829z"/></g><defs><clipPath id="oclip0"><path fill="#fff" d="M0 0h35v35H0z"/></clipPath></defs></svg><svg width="100" height="100" fill="none" viewBox="0 0 100 100" id="like" y="811" xmlns="http://www.w3.org/2000/svg"><path d="M98.78 42.84a7.277 7.277 0 0 0-4.505-3.054 7.122 7.122 0 0 0-.377-7.334 7.304 7.304 0 0 0-4.503-3.05 7.16 7.16 0 0 0 .693-1.92 7.074 7.074 0 0 0-1.072-5.418 7.27 7.27 0 0 0-4.506-3.053 7.124 7.124 0 0 0-.376-7.335c-2.23-3.315-6.785-4.227-10.153-2.031L66.69 14.4a46.057 46.057 0 0 0-12.313-4.103 33.451 33.451 0 0 0-4.698-5.596l-3.017-2.878c-2.21-2.11-5.674-2.426-8.239-.753-3.034 1.979-3.868 6.02-1.859 9.007.08.118.157.237.233.356A46.124 46.124 0 0 0 11.226 25.14C3.987 33.356 0 43.88 0 54.77c0 2.086.145 4.178.432 6.213 2.209 15.824 12.915 29.461 27.94 35.59C33.943 98.846 39.855 100 45.94 100c9.637 0 18.863-2.906 26.68-8.403 7.647-5.379 13.368-12.801 16.546-21.465a1.548 1.548 0 0 0-.948-1.99 1.586 1.586 0 0 0-2.022.934c-2.96 8.068-8.289 14.98-15.413 19.99-7.277 5.119-15.868 7.824-24.843 7.824a43.21 43.21 0 0 1-13.508-2.143l12.85-8.378.002-.001.002-.002 10.679-6.962a4.214 4.214 0 0 0 1.844-2.691 4.157 4.157 0 0 0-.63-3.186l-.14-.21 2.074-1.353a7.124 7.124 0 0 1 5.013-1.067 10.312 10.312 0 0 0 7.257-1.545L88.59 58.134a41.583 41.583 0 0 1-.582 4.367 1.556 1.556 0 0 0 1.265 1.813 1.573 1.573 0 0 0 1.84-1.245c.438-2.32.69-4.694.755-7.072l4.85-3.162a7.16 7.16 0 0 0 3.133-4.577 7.073 7.073 0 0 0-1.071-5.418zM63.623 16.399l-4.825 3.146-.95-2.52a32.992 32.992 0 0 0-1.356-3.09 42.84 42.84 0 0 1 7.131 2.464zm-50.011 10.78a42.952 42.952 0 0 1 24.697-13.864c1.532 3.656 1.9 7.74.984 11.634l-3.85 16.378a4.287 4.287 0 0 0-2.277-1.252 4.328 4.328 0 0 0-3.236.62l-10.907 7.11h-.002v.002L3.29 58.063a42.002 42.002 0 0 1-.131-3.294c0-10.14 3.712-19.94 10.453-27.59zm41.102 48.913a1.126 1.126 0 0 1-.492.72l-9.38 6.114-17.408-25.56a1.595 1.595 0 0 0-2.192-.426 1.54 1.54 0 0 0-.431 2.157l17.398 25.547-13.39 8.73c-13.306-5.73-22.827-17.83-25.116-31.91l15.75-10.235 1.812 2.663c.305.447.804.689 1.313.689.303 0 .609-.085.878-.264a1.54 1.54 0 0 0 .433-2.157l-1.8-2.644 9.585-6.23a1.15 1.15 0 0 1 .862-.164c.3.06.56.233.73.484l21.281 31.638c.17.251.229.552.168.849zM96.757 47.64a4.073 4.073 0 0 1-1.783 2.604l-5.543 3.614-.006.003-19.784 12.9a7.12 7.12 0 0 1-5.013 1.066c-2.537-.4-5.115.148-7.258 1.545l-2.074 1.353-17.43-25.912 4.506-19.161a22.026 22.026 0 0 0-1.728-14.804 21.926 21.926 0 0 0-1.446-2.488 3.36 3.36 0 0 1 .97-4.696 3.506 3.506 0 0 1 4.297.392l3.017 2.88a30.341 30.341 0 0 1 7.405 11.173l1.643 4.357.009.023.012.03a1.538 1.538 0 0 0 .143.264 1.593 1.593 0 0 0 2.188.438l16.845-10.982c1.915-1.249 4.506-.73 5.775 1.155 1.268 1.886.742 4.437-1.174 5.686l-1.462.953-.001.001-3.262 2.127-.013.009c-.018.013-.036.025-.05.037a1.537 1.537 0 0 0-.382 2.109 1.594 1.594 0 0 0 2.19.438l3.263-2.129a4.194 4.194 0 0 1 3.129-.598 4.14 4.14 0 0 1 2.644 1.756c.614.913.831 2.008.61 3.081a4.073 4.073 0 0 1-1.784 2.604l-4.725 3.081a1.539 1.539 0 0 0-.445 2.155c.304.452.806.697 1.318.697.3 0 .602-.084.87-.26l.732-.476 2.531-1.65c1.916-1.25 4.506-.731 5.775 1.155a4.07 4.07 0 0 1-1.174 5.686l-2.36 1.539a1.071 1.071 0 0 0-.037.024l-2.328 1.518a1.54 1.54 0 0 0-.445 2.155c.304.452.806.697 1.318.697.3 0 .602-.084.87-.259l.732-.477 2.532-1.65a4.187 4.187 0 0 1 3.13-.6 4.14 4.14 0 0 1 2.644 1.755c.614.913.83 2.008.609 3.082z" fill="#555"/></svg><svg width="120" height="120" fill="none" viewBox="0 0 120 120" id="operators" y="911" xmlns="http://www.w3.org/2000/svg"><g clip-path="url(#qclip0)" fill="#F3A112"><path d="M110.285 5.892H9.715A9.726 9.726 0 0 0 0 15.606v65.51c.006 5.362 4.352 9.709 9.715 9.714h33.21v19.799h-7.7a1.653 1.653 0 1 0 0 3.307h51.001a1.654 1.654 0 0 0 0-3.307h-9.15V90.83h33.209c5.363-.005 9.709-4.352 9.715-9.715V15.606c-.007-5.363-4.352-9.708-9.715-9.714zM9.715 9.199h100.57a6.414 6.414 0 0 1 6.407 6.407v56.497H3.307V15.606A6.415 6.415 0 0 1 9.715 9.2zm64.052 101.43H46.232V90.83h27.535v19.799zm36.518-23.106H9.715a6.414 6.414 0 0 1-6.408-6.408V75.41h113.385v5.705a6.413 6.413 0 0 1-6.407 6.408z"/><path d="M76.846 33.356a1.654 1.654 0 0 0 2.301.209l7.07-5.752a1.653 1.653 0 0 0-2.087-2.566l-5.817 4.735-1.988-2.328a1.654 1.654 0 0 0-2.515 2.148l3.036 3.554z"/><path d="M48.392 60.857a38.444 38.444 0 0 0 10.782 5.513c.297.088.614.089.913.005a40.398 40.398 0 0 0 11.135-5.5c7.058-4.99 10.946-11.55 11.3-19.02a12.68 12.68 0 0 0 2.455-24.165A12.676 12.676 0 0 0 70.3 21.393a100.057 100.057 0 0 1-9.307-6.197 1.652 1.652 0 0 0-1.985 0 99.906 99.906 0 0 1-20.424 11.826l-.138.058c-.607.262-1 .86-1 1.52v12.124c0 7.93 3.786 14.893 10.946 20.133zM80.12 20.035a9.371 9.371 0 1 1 0 18.742 9.371 9.371 0 0 1 0-18.742zm-39.367 9.65A103.114 103.114 0 0 0 60 18.577a103.219 103.219 0 0 0 8.554 5.624 12.699 12.699 0 0 0 2.35 13.912 12.73 12.73 0 0 0 8.3 3.934c-.285 4.493-2.034 8.518-5.217 12.035a1.654 1.654 0 0 0-3.18.64V56c0 .303.083.599.242.857-.53.43-1.082.85-1.66 1.263a38.31 38.31 0 0 1-9.742 4.928 36.458 36.458 0 0 1-9.38-4.915 30.64 30.64 0 0 1-1.425-1.117c.228-.29.351-.648.35-1.016v-1.278a1.653 1.653 0 1 0-3.235-.483c-3.455-3.892-5.203-8.419-5.203-13.514v-11.04z"/><path d="M60 57.654c.913 0 1.654-.74 1.654-1.654v-1.278a1.654 1.654 0 0 0-3.308 0V56c0 .913.74 1.654 1.654 1.654zm4.153 0c.913 0 1.654-.74 1.654-1.654v-1.278a1.654 1.654 0 0 0-3.307 0V56c0 .913.74 1.654 1.653 1.654zm4.154 0c.913 0 1.654-.74 1.654-1.654v-1.278a1.654 1.654 0 0 0-3.307 0V56c0 .913.74 1.654 1.653 1.654zm-12.461 0c.914 0 1.654-.74 1.654-1.654v-1.278a1.653 1.653 0 1 0-3.308 0V56c0 .913.741 1.654 1.654 1.654zm-4.154 0c.914 0 1.654-.74 1.654-1.654v-1.278a1.653 1.653 0 1 0-3.307 0V56c0 .913.74 1.654 1.653 1.654z"/></g><defs><clipPath id="qclip0"><path fill="#fff" d="M0 0h120v120H0z"/></clipPath></defs></svg><svg width="120" height="120" fill="none" viewBox="0 0 120 120" id="security-payment" y="1031" xmlns="http://www.w3.org/2000/svg"><path d="M94 70v4c9.937-.012 17.988-8.064 18-18h-4c-.009 7.728-6.271 13.991-14 14z" fill="#F3A112"/><path d="M116 42V22c0-12.15-9.85-22-22-22S72 9.85 72 22v11.2L20.786 19.466a8.012 8.012 0 0 0-9.8 5.658L6.422 42.16A7.999 7.999 0 0 0 0 50v62a8 8 0 0 0 8 8h104a8 8 0 0 0 8-8V56a25.799 25.799 0 0 0-4.126-14H116zM94 4c9.937.012 17.988 8.063 18 18v15.282a26.15 26.15 0 0 0-4-3.156V22c0-7.732-6.268-14-14-14s-14 6.268-14 14v12.126a26.145 26.145 0 0 0-4 3.156V22c.012-9.937 8.064-17.988 18-18zm10 28a25.927 25.927 0 0 0-20 0V22c0-5.523 4.478-10 10-10s10 4.477 10 10v10zm-89.15-5.84a4 4 0 0 1 4.9-2.83l52.25 14V42H10.6l4.25-15.84zM8 46h62a25.853 25.853 0 0 0-2 10c0 .676.05 1.338.102 2H4v-8a4 4 0 0 1 4-4zM4 62h64.726a25.923 25.923 0 0 0 4.822 10H4V62zm112 50a4 4 0 0 1-4 4H8a4 4 0 0 1-4-4V76h73.41A25.932 25.932 0 0 0 116 69.8V112zM94 78c-12.15 0-22-9.85-22-22s9.85-22 22-22 22 9.85 22 22c-.015 12.144-9.855 21.985-22 22z" fill="#F3A112"/><path d="M100 64v-6.74a8 8 0 1 0-12 0V64a2 2 0 0 0 2 2h8a2 2 0 0 0 2-2zm-4-7.556V62h-4v-5.556a2 2 0 0 0-.662-1.486A3.955 3.955 0 0 1 90 52a4 4 0 0 1 8 0 3.955 3.955 0 0 1-1.338 2.958A2 2 0 0 0 96 56.444zM24.21 99.106L22.764 102h-3.528L17.8 99.106A2 2 0 0 0 16 98h-6v4h4.764l1 2-1 2H10v4h6c.758 0 1.451-.428 1.79-1.106L19.236 106h3.528l1.446 2.894A2.001 2.001 0 0 0 26 110h6v-4h-4.764l-1-2 1-2H32v-4h-6a2 2 0 0 0-1.79 1.106zM94 106h14v4H94v-4zm-18 0h14v4H76v-4zm-18 0h14v4H58v-4zm-18 0h14v4H40v-4zm64-22h4v8h-4v-8zm-8 0h4v8h-4v-8zm-8 0h4v8h-4v-8zm-8 0h4v8h-4v-8zm-8 0h4v8h-4v-8zm-8 0h4v8h-4v-8z" fill="#F3A112"/></svg><svg width="97" height="21" fill="none" viewBox="0 0 97 21" id="senurable-logo" y="1151" xmlns="http://www.w3.org/2000/svg"><path d="M13.22 2.987a2.557 2.557 0 0 0-.405-.297 3.965 3.965 0 0 0-.7-.36 5.215 5.215 0 0 0-.886-.313 3.886 3.886 0 0 0-.98-.125c-.591 0-1.032.11-1.322.329-.29.218-.436.526-.436.922 0 .23.052.422.156.579.114.146.275.276.482.39.207.115.467.22.778.313.321.094.69.193 1.104.298.54.146 1.027.302 1.462.469.446.167.82.375 1.12.625.311.25.55.553.716.907.166.344.248.772.248 1.283 0 .594-.114 1.105-.342 1.532a2.744 2.744 0 0 1-.902 1.017c-.373.26-.809.453-1.306.578a6.71 6.71 0 0 1-1.54.172 8.28 8.28 0 0 1-2.458-.375 7.57 7.57 0 0 1-2.177-1.064l.948-1.86c.094.093.26.218.498.375.249.146.54.297.871.453.332.146.7.271 1.105.376.404.104.819.156 1.244.156 1.182 0 1.773-.38 1.773-1.142a.94.94 0 0 0-.202-.61 1.717 1.717 0 0 0-.576-.437 5.491 5.491 0 0 0-.902-.344c-.352-.105-.746-.22-1.182-.344a11.27 11.27 0 0 1-1.384-.47 3.936 3.936 0 0 1-.965-.61 2.46 2.46 0 0 1-.59-.813c-.125-.312-.187-.682-.187-1.11 0-.563.103-1.063.31-1.501.208-.438.493-.803.856-1.095A3.88 3.88 0 0 1 8.74.235 5.113 5.113 0 0 1 10.311 0c.778 0 1.493.125 2.147.375.653.24 1.223.527 1.71.86l-.948 1.752zm10.628 6.302v1.892h-7.669V.078h7.529V1.97h-5.382v2.674h4.65v1.752h-4.65v2.893h5.521zm3.819-5.223v7.115h-2.146V.078h1.664l5.755 7.287V.094h2.147V11.18h-1.742l-5.678-7.115zM42.05 9.351c.508 0 .933-.104 1.276-.312.352-.209.632-.48.84-.814a3.17 3.17 0 0 0 .45-1.141 6.39 6.39 0 0 0 .14-1.345V.079h2.131v5.66a7.92 7.92 0 0 1-.28 2.142 4.758 4.758 0 0 1-.855 1.752c-.384.5-.881.896-1.493 1.188-.612.292-1.343.438-2.193.438-.882 0-1.634-.151-2.256-.453a4.331 4.331 0 0 1-1.493-1.22 5.062 5.062 0 0 1-.84-1.767 8.588 8.588 0 0 1-.249-2.08V.079h2.147v5.66c0 .47.041.923.124 1.36.094.428.244.808.451 1.142.218.334.498.605.84.813.342.198.762.297 1.26.297zm7 1.83V.078h4.883c.508 0 .975.11 1.4.329.436.208.809.49 1.12.844.311.344.555.74.731 1.188.176.438.265.881.265 1.33 0 .719-.182 1.376-.545 1.97a3.055 3.055 0 0 1-1.446 1.267l2.52 4.175h-2.412l-2.255-3.722h-2.115v3.722h-2.147zm2.146-5.614h2.69c.198 0 .38-.047.545-.14.176-.095.327-.22.451-.376.125-.167.223-.36.296-.579.072-.219.109-.453.109-.703 0-.26-.042-.5-.125-.72a1.704 1.704 0 0 0-.342-.563 1.294 1.294 0 0 0-.482-.375 1.145 1.145 0 0 0-.545-.14h-2.597v3.596zM62.368.078h1.898l4.2 11.103h-2.21L65.23 8.413h-3.857l-1.011 2.768h-2.209L62.368.078zm2.473 6.818l-1.524-4.363-1.587 4.363h3.111zM78.574 8.32c0 .468-.094.88-.28 1.235a2.559 2.559 0 0 1-.778.891c-.322.24-.7.422-1.136.547a4.828 4.828 0 0 1-1.368.188h-5.335V.078h5.91c.384 0 .731.084 1.042.25.311.167.576.386.794.657.217.26.383.563.497.907.125.334.187.673.187 1.017 0 .542-.135 1.053-.404 1.532a2.48 2.48 0 0 1-1.183 1.048c.633.187 1.13.526 1.494 1.016.373.48.56 1.085.56 1.814zm-2.162-.407a1.47 1.47 0 0 0-.11-.563 1.453 1.453 0 0 0-.264-.485 1.179 1.179 0 0 0-.404-.313 1.069 1.069 0 0 0-.513-.125h-3.298v2.924h3.189c.197 0 .378-.036.544-.11.176-.072.327-.171.451-.296.125-.136.223-.292.296-.47a1.47 1.47 0 0 0 .109-.562zm-4.589-5.99v2.8h2.862c.363 0 .669-.126.918-.376.259-.25.389-.594.389-1.032 0-.427-.12-.766-.358-1.016a1.11 1.11 0 0 0-.856-.376h-2.955zm8.426 9.258V.078h2.146v9.21h5.63v1.893H80.25zM97 9.289v1.892h-7.668V.078h7.528V1.97h-5.382v2.674h4.651v1.752h-4.65v2.893H97zM8.166 15.595h.497l.752 1.905.76-1.905h.503l-.933 2.29 1.023 2.427 1.933-4.755h.571l-2.263 5.367h-.466l-1.12-2.653-1.129 2.653h-.458L5.58 15.557h.564l1.94 4.755 1.015-2.427-.933-2.29zM15.125 21a1.94 1.94 0 0 1-.79-.159 2.017 2.017 0 0 1-.616-.446 2.177 2.177 0 0 1-.413-.657 2.188 2.188 0 0 1-.143-.794 2.052 2.052 0 0 1 .549-1.422c.175-.186.383-.332.624-.438.24-.11.501-.166.782-.166.285 0 .546.055.782.166.24.106.446.252.616.438a2.066 2.066 0 0 1 .542 1.414v.121a.3.3 0 0 1-.008.083h-3.354c.016.212.063.409.143.59a1.7 1.7 0 0 0 .324.461c.13.131.278.234.443.31a1.4 1.4 0 0 0 .918.053c.125-.035.24-.083.346-.144.105-.06.2-.133.285-.219a1 1 0 0 0 .196-.295l.444.121a1.36 1.36 0 0 1-.256.4c-.11.117-.238.22-.384.31a1.86 1.86 0 0 1-.48.197 1.98 1.98 0 0 1-.55.076zm1.444-2.253a1.52 1.52 0 0 0-.15-.574 1.47 1.47 0 0 0-.76-.749 1.347 1.347 0 0 0-.534-.106 1.43 1.43 0 0 0-.992.4 1.537 1.537 0 0 0-.309.455c-.075.176-.12.368-.135.574h2.88zM19.764 21a1.64 1.64 0 0 1-.857-.234 1.732 1.732 0 0 1-.602-.605v.763h-.458v-5.518h.511v2.404a2.2 2.2 0 0 1 .632-.643c.245-.166.531-.25.857-.25.276 0 .521.059.737.174.22.116.406.273.556.47.156.19.273.41.354.657a2.237 2.237 0 0 1-.015 1.535 2.12 2.12 0 0 1-.391.65 1.921 1.921 0 0 1-.595.438 1.695 1.695 0 0 1-.729.159zm-.12-.454c.215 0 .41-.042.586-.128.18-.09.334-.21.459-.355.13-.152.23-.32.3-.507a1.6 1.6 0 0 0 .114-.59 1.73 1.73 0 0 0-.106-.597 1.525 1.525 0 0 0-.285-.506 1.274 1.274 0 0 0-.444-.356 1.181 1.181 0 0 0-.564-.136 1.372 1.372 0 0 0-.812.295 1.66 1.66 0 0 0-.308.318 1.87 1.87 0 0 0-.226.37v1.225c.02.136.073.264.158.385a1.503 1.503 0 0 0 .714.507c.146.05.284.075.414.075zm7.986-3.984c-.15-.171-.35-.31-.601-.416a2.187 2.187 0 0 0-.858-.158c-.471 0-.814.09-1.03.272-.215.176-.323.418-.323.726 0 .16.027.294.082.4.06.101.15.19.271.265.12.076.273.141.459.197.19.055.413.11.67.166.285.06.54.128.766.204.23.076.426.171.587.287.16.111.283.247.368.409.085.16.128.362.128.604 0 .247-.048.461-.143.643a1.277 1.277 0 0 1-.398.453 1.843 1.843 0 0 1-.61.273 3.383 3.383 0 0 1-.774.083c-.827 0-1.542-.26-2.143-.779l.263-.43c.095.1.208.196.338.286.136.091.284.172.444.242.165.066.34.119.526.16.186.034.381.052.587.052.426 0 .757-.076.992-.227.241-.156.361-.39.361-.703a.764.764 0 0 0-.105-.416.81.81 0 0 0-.3-.295 2.054 2.054 0 0 0-.504-.219c-.2-.06-.434-.12-.7-.181a8.231 8.231 0 0 1-.737-.204 1.957 1.957 0 0 1-.534-.265 1.073 1.073 0 0 1-.33-.378 1.304 1.304 0 0 1-.106-.552c0-.247.046-.466.136-.657a1.29 1.29 0 0 1 .398-.484c.17-.131.371-.23.602-.295.23-.07.486-.106.767-.106a2.536 2.536 0 0 1 1.707.62l-.256.423zM30.664 21c-.286 0-.55-.053-.79-.159a2.017 2.017 0 0 1-.617-.446 2.18 2.18 0 0 1-.413-.657 2.188 2.188 0 0 1-.143-.794 2.052 2.052 0 0 1 .549-1.422c.175-.186.383-.332.624-.438.24-.11.501-.166.782-.166.286 0 .547.055.782.166.24.106.446.252.617.438a2.085 2.085 0 0 1 .541 1.414v.121c0 .04-.002.068-.007.083h-3.354c.015.212.063.409.143.59.085.176.193.33.323.461s.278.234.444.31a1.4 1.4 0 0 0 .917.053c.125-.035.24-.083.346-.144.105-.06.2-.133.286-.219a.996.996 0 0 0 .195-.295l.444.121a1.36 1.36 0 0 1-.256.4 1.89 1.89 0 0 1-.383.31 1.858 1.858 0 0 1-.482.197c-.175.05-.358.076-.548.076zm1.443-2.253a1.518 1.518 0 0 0-.15-.574 1.47 1.47 0 0 0-.76-.749 1.347 1.347 0 0 0-.533-.106 1.43 1.43 0 0 0-.993.4 1.54 1.54 0 0 0-.308.455c-.075.176-.12.368-.136.574h2.88zm3.233-1.307c-.346.01-.647.105-.902.287a1.449 1.449 0 0 0-.542.748v2.45h-.511v-3.94h.481v.946c.146-.303.341-.54.587-.711.245-.171.509-.257.79-.257.04 0 .072.002.097.008v.468zm1.854 3.484L35.6 16.986h.526l1.346 3.462 1.354-3.462h.496l-1.594 3.938h-.534zm2.836 0v-3.938h.512v3.938h-.511zm0-4.762v-.756h.512v.756h-.511zm1.368 2.782c0-.277.047-.54.142-.787a1.893 1.893 0 0 1 1.023-1.081c.24-.105.506-.158.797-.158a1.8 1.8 0 0 1 .97.257 1.6 1.6 0 0 1 .624.68l-.496.159a1.163 1.163 0 0 0-.466-.469 1.259 1.259 0 0 0-.654-.174 1.334 1.334 0 0 0-1.015.454c-.126.136-.226.3-.301.491-.07.192-.106.4-.106.628 0 .222.038.43.113.627.075.197.178.368.308.514.13.141.281.255.452.34a1.316 1.316 0 0 0 .925.069c.125-.036.24-.084.345-.144.106-.066.196-.139.271-.22a.701.701 0 0 0 .158-.256l.504.15a1.342 1.342 0 0 1-.24.394c-.106.116-.231.22-.377.31a1.74 1.74 0 0 1-.474.196c-.17.05-.348.076-.533.076-.286 0-.55-.053-.79-.159a1.99 1.99 0 0 1-.624-.446 2.177 2.177 0 0 1-.414-.657 2.188 2.188 0 0 1-.142-.794zM47.45 21a1.94 1.94 0 0 1-.79-.159 2.016 2.016 0 0 1-.616-.446 2.177 2.177 0 0 1-.413-.657 2.188 2.188 0 0 1-.143-.794c0-.277.047-.537.142-.779.1-.247.236-.461.407-.643.175-.186.383-.332.624-.438.24-.11.501-.166.782-.166.285 0 .546.055.782.166.24.106.446.252.616.438a2.065 2.065 0 0 1 .542 1.414v.121a.3.3 0 0 1-.008.083h-3.353c.015.212.062.409.142.59a1.7 1.7 0 0 0 .324.461c.13.131.278.234.443.31a1.4 1.4 0 0 0 .918.053c.125-.035.24-.083.346-.144.105-.06.2-.133.285-.219a1 1 0 0 0 .196-.295l.444.121a1.36 1.36 0 0 1-.256.4c-.11.117-.238.22-.384.31a1.86 1.86 0 0 1-.48.197 1.98 1.98 0 0 1-.55.076zm1.444-2.253a1.52 1.52 0 0 0-.15-.574 1.47 1.47 0 0 0-.76-.749 1.347 1.347 0 0 0-.534-.106 1.43 1.43 0 0 0-.992.4 1.537 1.537 0 0 0-.309.455c-.075.176-.12.368-.135.574h2.88zM51.472 21c-.305 0-.604-.05-.894-.151a2.138 2.138 0 0 1-.752-.439l.233-.347c.22.181.444.317.67.408a2 2 0 0 0 .736.136c.316 0 .566-.063.752-.19a.632.632 0 0 0 .286-.551.46.46 0 0 0-.075-.272.626.626 0 0 0-.226-.197 1.524 1.524 0 0 0-.368-.143 7.16 7.16 0 0 0-.512-.136 7.552 7.552 0 0 1-.586-.167 1.883 1.883 0 0 1-.414-.189.734.734 0 0 1-.24-.257.916.916 0 0 1-.076-.393c0-.196.038-.37.113-.521a1.08 1.08 0 0 1 .316-.371c.135-.1.29-.176.466-.227.18-.05.371-.075.571-.075.301 0 .575.05.82.15.246.097.444.225.594.386l-.248.303a1.37 1.37 0 0 0-.534-.34 1.858 1.858 0 0 0-.646-.114c-.136 0-.261.015-.377.046a.888.888 0 0 0-.308.128.662.662 0 0 0-.278.56c0 .105.018.191.053.257a.476.476 0 0 0 .173.173c.08.046.18.089.3.129.126.035.276.073.451.113.251.06.472.121.662.182.19.06.349.13.474.212.13.08.228.178.293.294a.851.851 0 0 1 .098.424c0 .362-.138.65-.414.861-.275.212-.646.318-1.113.318zm4.468-.076v-3.53h-.54v-.408h.54v-.106c0-.484.103-.862.309-1.134a.992.992 0 0 1 .842-.416c.155 0 .306.023.451.068.145.045.27.106.376.181l-.158.37a.758.758 0 0 0-.263-.128c-.1-.03-.203-.045-.308-.045a.62.62 0 0 0-.55.28c-.125.186-.187.456-.187.809v.12h1.083v.409h-1.083v3.53h-.511zm3.766.076c-.286 0-.547-.053-.782-.159a2.016 2.016 0 0 1-.617-.446 2.043 2.043 0 0 1-.399-.65 2.146 2.146 0 0 1-.142-.779c0-.277.047-.539.142-.786.1-.247.236-.463.407-.65.175-.187.38-.335.616-.446.236-.11.494-.166.775-.166.28 0 .538.055.774.166a1.978 1.978 0 0 1 1.023 1.096c.1.247.15.51.15.786 0 .272-.047.532-.143.779a1.976 1.976 0 0 1-1.022 1.096 1.886 1.886 0 0 1-.782.159zm-1.422-2.026a1.68 1.68 0 0 0 .414 1.119c.13.14.28.252.451.332a1.316 1.316 0 0 0 1.105 0c.176-.085.329-.199.46-.34a1.671 1.671 0 0 0 .42-1.126c0-.217-.037-.421-.112-.613a1.559 1.559 0 0 0-.309-.506 1.383 1.383 0 0 0-.459-.34 1.206 1.206 0 0 0-.548-.129c-.196 0-.379.043-.55.129-.17.08-.32.194-.45.34-.13.146-.234.317-.309.514a1.681 1.681 0 0 0-.113.62zm6.179-1.534a1.6 1.6 0 0 0-.902.287 1.45 1.45 0 0 0-.541.748v2.45h-.512v-3.94h.482v.946c.145-.303.34-.54.586-.711.246-.171.509-.257.79-.257.04 0 .072.002.097.008v.468zm6.535 2.1c0 .203-.04.389-.12.56-.08.167-.188.313-.323.439a1.55 1.55 0 0 1-.474.287c-.18.066-.374.098-.58.098h-2.518v-5.367h2.572c.185 0 .353.04.503.12a1.327 1.327 0 0 1 .624.756 1.433 1.433 0 0 1-.113 1.24 1.265 1.265 0 0 1-.563.5c.305.09.546.26.722.506.18.247.27.534.27.862zm-.526-.09c0-.13-.023-.257-.068-.378a.923.923 0 0 0-.195-.325.87.87 0 0 0-.294-.227.74.74 0 0 0-.36-.09h-2.046v2.033h1.993c.135 0 .26-.027.376-.083a.98.98 0 0 0 .308-.22 1.036 1.036 0 0 0 .286-.71zm-2.963-3.432v1.98h1.835c.13 0 .25-.027.36-.082a.915.915 0 0 0 .294-.22 1.024 1.024 0 0 0 .256-.688c0-.136-.023-.264-.068-.385a.826.826 0 0 0-.18-.31.791.791 0 0 0-.271-.212.73.73 0 0 0-.346-.083h-1.88zM73.111 21c-.426 0-.744-.141-.955-.423-.205-.288-.308-.714-.308-1.278v-2.313h.511v2.222c0 .892.304 1.338.91 1.338a1.346 1.346 0 0 0 .842-.294c.126-.096.236-.21.331-.34.1-.132.18-.28.24-.447v-2.48h.512v3.274c0 .141.06.212.18.212v.453a.938.938 0 0 1-.15.015h-.075a.407.407 0 0 1-.293-.128.458.458 0 0 1-.113-.325v-.454a1.846 1.846 0 0 1-1.632.968zm4.54 0a2.71 2.71 0 0 1-.895-.151 2.156 2.156 0 0 1-.752-.439l.233-.347c.221.181.444.317.67.408.23.09.476.136.737.136.316 0 .566-.063.752-.19a.632.632 0 0 0 .285-.551.46.46 0 0 0-.075-.272.627.627 0 0 0-.225-.197 1.525 1.525 0 0 0-.369-.143 7.142 7.142 0 0 0-.511-.136 7.552 7.552 0 0 1-.587-.167 1.883 1.883 0 0 1-.413-.189.732.732 0 0 1-.24-.257.916.916 0 0 1-.076-.393c0-.196.037-.37.113-.521a1.08 1.08 0 0 1 .316-.371c.135-.1.29-.176.466-.227.18-.05.37-.075.571-.075.301 0 .574.05.82.15.245.097.444.225.594.386l-.248.303a1.37 1.37 0 0 0-.534-.34 1.858 1.858 0 0 0-.647-.114c-.135 0-.26.015-.376.046a.888.888 0 0 0-.308.128.662.662 0 0 0-.278.56c0 .105.017.191.052.257a.475.475 0 0 0 .173.173c.08.046.18.089.301.129.125.035.276.073.451.113.25.06.471.121.662.182.19.06.348.13.474.212.13.08.228.178.293.294a.851.851 0 0 1 .098.424c0 .362-.138.65-.414.861-.276.212-.647.318-1.113.318zm2.364-.076v-3.938h.51v3.938h-.51zm0-4.762v-.756h.51v.756h-.51zm4.931 4.762h-.512v-2.2c0-.468-.07-.808-.21-1.02-.136-.212-.346-.318-.632-.318-.15 0-.3.028-.451.084-.15.055-.29.133-.421.234-.125.1-.238.222-.338.363-.1.136-.173.285-.219.446v2.411h-.51v-3.938h.465v.892a1.898 1.898 0 0 1 1.662-.96c.216 0 .399.04.55.12.15.081.27.195.36.34.09.147.155.326.195.538.04.211.06.446.06.703v2.305zm2.782.076a1.94 1.94 0 0 1-.79-.159 2.017 2.017 0 0 1-.616-.446 2.18 2.18 0 0 1-.414-.657 2.188 2.188 0 0 1-.143-.794c0-.277.048-.537.143-.779.1-.247.236-.461.406-.643.176-.186.384-.332.624-.438.241-.11.502-.166.782-.166.286 0 .547.055.782.166.241.106.447.252.617.438a2.087 2.087 0 0 1 .541 1.414v.121c0 .04-.002.068-.007.083h-3.354c.015.212.063.409.143.59.085.176.193.33.324.461.13.131.278.234.443.31a1.4 1.4 0 0 0 .917.053c.126-.035.241-.083.346-.144.106-.06.2-.133.286-.219.085-.09.15-.189.196-.295l.443.121a1.36 1.36 0 0 1-.255.4c-.11.117-.239.22-.384.31a1.858 1.858 0 0 1-.481.197 2 2 0 0 1-.549.076zm1.444-2.253a1.518 1.518 0 0 0-.15-.574 1.47 1.47 0 0 0-.76-.749 1.347 1.347 0 0 0-.534-.106 1.43 1.43 0 0 0-.993.4 1.54 1.54 0 0 0-.308.455c-.075.176-.12.368-.135.574h2.88zM91.75 21c-.305 0-.604-.05-.895-.151a2.156 2.156 0 0 1-.752-.439l.234-.347c.22.181.443.317.669.408.23.09.476.136.737.136.316 0 .566-.063.752-.19a.632.632 0 0 0 .285-.551.46.46 0 0 0-.075-.272.626.626 0 0 0-.225-.197 1.522 1.522 0 0 0-.369-.143 7.156 7.156 0 0 0-.511-.136 7.569 7.569 0 0 1-.587-.167 1.88 1.88 0 0 1-.413-.189.733.733 0 0 1-.24-.257.916.916 0 0 1-.076-.393c0-.196.037-.37.113-.521a1.08 1.08 0 0 1 .316-.371c.135-.1.29-.176.466-.227.18-.05.37-.075.571-.075.301 0 .574.05.82.15.246.097.444.225.594.386l-.248.303a1.371 1.371 0 0 0-.534-.34 1.858 1.858 0 0 0-.647-.114c-.135 0-.26.015-.376.046a.889.889 0 0 0-.308.128.663.663 0 0 0-.278.56c0 .105.017.191.052.257a.476.476 0 0 0 .173.173c.08.046.18.089.301.129.125.035.276.073.451.113.25.06.472.121.662.182.19.06.348.13.474.212.13.08.228.178.293.294a.851.851 0 0 1 .098.424c0 .362-.138.65-.414.861-.276.212-.647.318-1.113.318zm3.665 0c-.306 0-.605-.05-.895-.151a2.138 2.138 0 0 1-.752-.439l.233-.347c.22.181.444.317.67.408a2 2 0 0 0 .736.136c.316 0 .567-.063.752-.19a.632.632 0 0 0 .286-.551.46.46 0 0 0-.075-.272.626.626 0 0 0-.226-.197 1.524 1.524 0 0 0-.369-.143 7.16 7.16 0 0 0-.51-.136 7.565 7.565 0 0 1-.587-.167 1.883 1.883 0 0 1-.414-.189.734.734 0 0 1-.24-.257.916.916 0 0 1-.076-.393c0-.196.038-.37.113-.521a1.08 1.08 0 0 1 .316-.371c.135-.1.29-.176.466-.227.18-.05.371-.075.572-.075.3 0 .573.05.82.15.245.097.443.225.593.386l-.248.303a1.37 1.37 0 0 0-.534-.34 1.859 1.859 0 0 0-.647-.114c-.135 0-.26.015-.376.046a.889.889 0 0 0-.308.128.663.663 0 0 0-.278.56c0 .105.017.191.053.257a.476.476 0 0 0 .173.173c.08.046.18.089.3.129.126.035.276.073.452.113.25.06.47.121.661.182.19.06.349.13.474.212.13.08.228.178.293.294a.851.851 0 0 1 .098.424c0 .362-.138.65-.414.861-.275.212-.646.318-1.112.318zM1.921 5.132A1.926 1.926 0 0 0 3.843 3.2c0-1.067-.86-1.931-1.922-1.931A1.926 1.926 0 0 0 0 3.2c0 1.067.86 1.932 1.921 1.932zm0 6.274a1.926 1.926 0 0 0 1.922-1.931c0-1.067-.86-1.932-1.922-1.932A1.926 1.926 0 0 0 0 9.475c0 1.067.86 1.931 1.921 1.931z" fill="#fff"/></svg></svg>