<svg width="100" height="100" viewBox="0 0 100 100" fill="none" xmlns="http://www.w3.org/2000/svg"><path d="M98.78 42.84a7.277 7.277 0 0 0-4.505-3.054 7.122 7.122 0 0 0-.377-7.334 7.304 7.304 0 0 0-4.503-3.05 7.16 7.16 0 0 0 .693-1.92 7.074 7.074 0 0 0-1.072-5.418 7.27 7.27 0 0 0-4.506-3.053 7.124 7.124 0 0 0-.376-7.335c-2.23-3.315-6.785-4.227-10.153-2.031L66.69 14.4a46.057 46.057 0 0 0-12.313-4.103 33.451 33.451 0 0 0-4.698-5.596l-3.017-2.878c-2.21-2.11-5.674-2.426-8.239-.753-3.034 1.979-3.868 6.02-1.859 9.007.08.118.157.237.233.356A46.124 46.124 0 0 0 11.226 25.14C3.987 33.356 0 43.88 0 54.77c0 2.086.145 4.178.432 6.213 2.209 15.824 12.915 29.461 27.94 35.59C33.943 98.846 39.855 100 45.94 100c9.637 0 18.863-2.906 26.68-8.403 7.647-5.379 13.368-12.801 16.546-21.465a1.548 1.548 0 0 0-.948-1.99 1.586 1.586 0 0 0-2.022.934c-2.96 8.068-8.289 14.98-15.413 19.99-7.277 5.119-15.868 7.824-24.843 7.824a43.21 43.21 0 0 1-13.508-2.143l12.85-8.378.002-.001.002-.002 10.679-6.962a4.214 4.214 0 0 0 1.844-2.691 4.157 4.157 0 0 0-.63-3.186l-.14-.21 2.074-1.353a7.124 7.124 0 0 1 5.013-1.067 10.312 10.312 0 0 0 7.257-1.545L88.59 58.134a41.583 41.583 0 0 1-.582 4.367 1.556 1.556 0 0 0 1.265 1.813 1.573 1.573 0 0 0 1.84-1.245c.438-2.32.69-4.694.755-7.072l4.85-3.162a7.16 7.16 0 0 0 3.133-4.577 7.073 7.073 0 0 0-1.071-5.418zM63.623 16.399l-4.825 3.146-.95-2.52a32.992 32.992 0 0 0-1.356-3.09 42.84 42.84 0 0 1 7.131 2.464zm-50.011 10.78a42.952 42.952 0 0 1 24.697-13.864c1.532 3.656 1.9 7.74.984 11.634l-3.85 16.378a4.287 4.287 0 0 0-2.277-1.252 4.328 4.328 0 0 0-3.236.62l-10.907 7.11h-.002v.002L3.29 58.063a42.002 42.002 0 0 1-.131-3.294c0-10.14 3.712-19.94 10.453-27.59zm41.102 48.913a1.126 1.126 0 0 1-.492.72l-9.38 6.114-17.408-25.56a1.595 1.595 0 0 0-2.192-.426 1.54 1.54 0 0 0-.431 2.157l17.398 25.547-13.39 8.73c-13.306-5.73-22.827-17.83-25.116-31.91l15.75-10.235 1.812 2.663c.305.447.804.689 1.313.689.303 0 .609-.085.878-.264a1.54 1.54 0 0 0 .433-2.157l-1.8-2.644 9.585-6.23a1.15 1.15 0 0 1 .862-.164c.3.06.56.233.73.484l21.281 31.638c.17.251.229.552.168.849zM96.757 47.64a4.073 4.073 0 0 1-1.783 2.604l-5.543 3.614-.006.003-19.784 12.9a7.12 7.12 0 0 1-5.013 1.066c-2.537-.4-5.115.148-7.258 1.545l-2.074 1.353-17.43-25.912 4.506-19.161a22.026 22.026 0 0 0-1.728-14.804 21.926 21.926 0 0 0-1.446-2.488 3.36 3.36 0 0 1 .97-4.696 3.506 3.506 0 0 1 4.297.392l3.017 2.88a30.341 30.341 0 0 1 7.405 11.173l1.643 4.357.009.023.012.03a1.538 1.538 0 0 0 .143.264 1.593 1.593 0 0 0 2.188.438l16.845-10.982c1.915-1.249 4.506-.73 5.775 1.155 1.268 1.886.742 4.437-1.174 5.686l-1.462.953-.001.001-3.262 2.127-.013.009c-.018.013-.036.025-.05.037a1.537 1.537 0 0 0-.382 2.109 1.594 1.594 0 0 0 2.19.438l3.263-2.129a4.194 4.194 0 0 1 3.129-.598 4.14 4.14 0 0 1 2.644 1.756c.614.913.831 2.008.61 3.081a4.073 4.073 0 0 1-1.784 2.604l-4.725 3.081a1.539 1.539 0 0 0-.445 2.155c.304.452.806.697 1.318.697.3 0 .602-.084.87-.26l.732-.476 2.531-1.65c1.916-1.25 4.506-.731 5.775 1.155a4.07 4.07 0 0 1-1.174 5.686l-2.36 1.539a1.071 1.071 0 0 0-.037.024l-2.328 1.518a1.54 1.54 0 0 0-.445 2.155c.304.452.806.697 1.318.697.3 0 .602-.084.87-.259l.732-.477 2.532-1.65a4.187 4.187 0 0 1 3.13-.6 4.14 4.14 0 0 1 2.644 1.755c.614.913.83 2.008.609 3.082z" fill="#555"/></svg>